Orbitron Medium.ufo
<glyph name="exclam" format="1">
  <advance width="220"/>
  <unicode hex="0021"/>
  <outline>
    <contour>
      <point x="166" y="0" type="line"/>
      <point x="166" y="108" type="line"/>
      <point x="58" y="108" type="line"/>
      <point x="58" y="0" type="line"/>
    </contour>
    <contour>
      <point x="58" y="200" type="line"/>
      <point x="166" y="200" type="line"/>
      <point x="166" y="720" type="line"/>
      <point x="58" y="720" type="line"/>
    </contour>
  </outline>
</glyph>
<glyph name="quotedbl" format="1">
  <advance width="372"/>
  <unicode hex="0022"/>
  <outline>
    <contour>
      <point x="167" y="719" type="line"/>
      <point x="59" y="719" type="line"/>
      <point x="59" y="557" type="line"/>
      <point x="167" y="557" type="line"/>
    </contour>
    <contour>
      <point x="314" y="719" type="line"/>
      <point x="206" y="719" type="line"/>
      <point x="206" y="557" type="line"/>
      <point x="314" y="557" type="line"/>
    </contour>
  </outline>
</glyph>
<glyph name="numbersign" format="1">
  <advance width="797"/>
  <unicode hex="0023"/>
  <outline>
    <contour>
      <point x="765" y="558" type="line"/>
      <point x="680" y="558" type="line"/>
      <point x="734" y="717" type="line"/>
      <point x="626" y="717" type="line"/>
      <point x="572" y="558" type="line"/>
      <point x="357" y="558" type="line"/>
      <point x="411" y="717" type="line"/>
      <point x="303" y="717" type="line"/>
      <point x="249" y="558" type="line"/>
      <point x="63" y="558" type="line"/>
      <point x="63" y="450" type="line"/>
      <point x="215" y="450" type="line"/>
      <point x="157" y="272" type="line"/>
      <point x="32" y="272" type="line"/>
      <point x="32" y="164" type="line"/>
      <point x="123" y="164" type="line"/>
      <point x="73" y="0" type="line"/>
      <point x="181" y="0" type="line"/>
      <point x="231" y="164" type="line"/>
      <point x="446" y="164" type="line"/>
      <point x="396" y="0" type="line"/>
      <point x="504" y="0" type="line"/>
      <point x="554" y="164" type="line"/>
      <point x="734" y="164" type="line"/>
      <point x="734" y="272" type="line"/>
      <point x="588" y="272" type="line"/>
      <point x="646" y="450" type="line"/>
      <point x="765" y="450" type="line"/>
    </contour>
    <contour>
      <point x="265" y="272" type="line"/>
      <point x="323" y="450" type="line"/>
      <point x="538" y="450" type="line"/>
      <point x="480" y="272" type="line"/>
    </contour>
  </outline>
</glyph>
<glyph name="dollar" format="1">
  <advance width="788"/>
  <unicode hex="0024"/>
  <outline>
    <contour>
      <point x="754" y="590" type="line" smooth="yes"/>
      <point x="754" y="662"/>
      <point x="696" y="720"/>
      <point x="624" y="720" type="curve" smooth="yes"/>
      <point x="448" y="720" type="line"/>
      <point x="448" y="828" type="line"/>
      <point x="340" y="828" type="line"/>
      <point x="340" y="720" type="line"/>
      <point x="164" y="720" type="line" smooth="yes"/>
      <point x="92" y="720"/>
      <point x="34" y="662"/>
      <point x="34" y="590" type="curve" smooth="yes"/>
      <point x="34" y="436" type="line" smooth="yes"/>
      <point x="34" y="364"/>
      <point x="92" y="306"/>
      <point x="164" y="306" type="curve" smooth="yes"/>
      <point x="340" y="306" type="line"/>
      <point x="340" y="108" type="line"/>
      <point x="164" y="108" type="line" smooth="yes"/>
      <point x="152" y="108"/>
      <point x="142" y="118"/>
      <point x="142" y="130" type="curve" smooth="yes"/>
      <point x="142" y="172" type="line"/>
      <point x="34" y="172" type="line"/>
      <point x="34" y="130" type="line" smooth="yes"/>
      <point x="34" y="58"/>
      <point x="92" y="0"/>
      <point x="164" y="0" type="curve" smooth="yes"/>
      <point x="340" y="0" type="line"/>
      <point x="340" y="-108" type="line"/>
      <point x="448" y="-108" type="line"/>
      <point x="448" y="0" type="line"/>
      <point x="624" y="0" type="line" smooth="yes"/>
      <point x="696" y="0"/>
      <point x="754" y="58"/>
      <point x="754" y="130" type="curve" smooth="yes"/>
      <point x="754" y="284" type="line" smooth="yes"/>
      <point x="754" y="356"/>
      <point x="696" y="414"/>
      <point x="624" y="414" type="curve" smooth="yes"/>
      <point x="448" y="414" type="line"/>
      <point x="448" y="612" type="line"/>
      <point x="624" y="612" type="line" smooth="yes"/>
      <point x="636" y="612"/>
      <point x="646" y="602"/>
      <point x="646" y="590" type="curve" smooth="yes"/>
      <point x="646" y="548" type="line"/>
      <point x="754" y="548" type="line"/>
    </contour>
    <contour>
      <point x="624" y="306" type="line" smooth="yes"/>
      <point x="636" y="306"/>
      <point x="646" y="296"/>
      <point x="646" y="284" type="curve" smooth="yes"/>
      <point x="646" y="130" type="line" smooth="yes"/>
      <point x="646" y="118"/>
      <point x="636" y="108"/>
      <point x="624" y="108" type="curve" smooth="yes"/>
      <point x="448" y="108" type="line"/>
      <point x="448" y="306" type="line"/>
    </contour>
    <contour>
      <point x="261" y="414" type="line"/>
      <point x="164" y="414" type="line" smooth="yes"/>
      <point x="152" y="414"/>
      <point x="142" y="424"/>
      <point x="142" y="436" type="curve" smooth="yes"/>
      <point x="142" y="590" type="line" smooth="yes"/>
      <point x="142" y="602"/>
      <point x="152" y="612"/>
      <point x="164" y="612" type="curve" smooth="yes"/>
      <point x="340" y="612" type="line"/>
      <point x="340" y="414" type="line"/>
    </contour>
  </outline>
</glyph>
<glyph name="percent" format="1">
  <advance width="966"/>
  <unicode hex="0025"/>
  <outline>
    <contour>
      <point x="837" y="720" type="line"/>
      <point x="132" y="128" type="line"/>
      <point x="132" y="0" type="line"/>
      <point x="147" y="0" type="line"/>
      <point x="852" y="592" type="line"/>
      <point x="852" y="720" type="line"/>
    </contour>
    <contour>
      <point x="178" y="720" type="line" smooth="yes"/>
      <point x="106" y="720"/>
      <point x="48" y="662"/>
      <point x="48" y="590" type="curve" smooth="yes"/>
      <point x="48" y="510" type="line" smooth="yes"/>
      <point x="48" y="438"/>
      <point x="106" y="380"/>
      <point x="178" y="380" type="curve" smooth="yes"/>
      <point x="268" y="380" type="line" smooth="yes"/>
      <point x="340" y="380"/>
      <point x="398" y="438"/>
      <point x="398" y="510" type="curve" smooth="yes"/>
      <point x="398" y="590" type="line" smooth="yes"/>
      <point x="398" y="662"/>
      <point x="340" y="720"/>
      <point x="268" y="720" type="curve" smooth="yes"/>
    </contour>
    <contour>
      <point x="158" y="468" type="line" smooth="yes"/>
      <point x="146" y="468"/>
      <point x="136" y="478"/>
      <point x="136" y="490" type="curve" smooth="yes"/>
      <point x="136" y="610" type="line" smooth="yes"/>
      <point x="136" y="622"/>
      <point x="146" y="632"/>
      <point x="158" y="632" type="curve" smooth="yes"/>
      <point x="288" y="632" type="line" smooth="yes"/>
      <point x="300" y="632"/>
      <point x="310" y="622"/>
      <point x="310" y="610" type="curve" smooth="yes"/>
      <point x="310" y="490" type="line" smooth="yes"/>
      <point x="310" y="478"/>
      <point x="300" y="468"/>
      <point x="288" y="468" type="curve" smooth="yes"/>
    </contour>
    <contour>
      <point x="696" y="339" type="line" smooth="yes"/>
      <point x="624" y="339"/>
      <point x="566" y="281"/>
      <point x="566" y="209" type="curve" smooth="yes"/>
      <point x="566" y="129" type="line" smooth="yes"/>
      <point x="566" y="57"/>
      <point x="624" y="-1"/>
      <point x="696" y="-1" type="curve" smooth="yes"/>
      <point x="786" y="-1" type="line" smooth="yes"/>
      <point x="858" y="-1"/>
      <point x="916" y="57"/>
      <point x="916" y="129" type="curve" smooth="yes"/>
      <point x="916" y="209" type="line" smooth="yes"/>
      <point x="916" y="281"/>
      <point x="858" y="339"/>
      <point x="786" y="339" type="curve" smooth="yes"/>
    </contour>
    <contour>
      <point x="676" y="87" type="line" smooth="yes"/>
      <point x="664" y="87"/>
      <point x="654" y="97"/>
      <point x="654" y="109" type="curve" smooth="yes"/>
      <point x="654" y="229" type="line" smooth="yes"/>
      <point x="654" y="241"/>
      <point x="664" y="251"/>
      <point x="676" y="251" type="curve" smooth="yes"/>
      <point x="806" y="251" type="line" smooth="yes"/>
      <point x="818" y="251"/>
      <point x="828" y="241"/>
      <point x="828" y="229" type="curve" smooth="yes"/>
      <point x="828" y="109" type="line" smooth="yes"/>
      <point x="828" y="97"/>
      <point x="818" y="87"/>
      <point x="806" y="87" type="curve" smooth="yes"/>
    </contour>
  </outline>
</glyph>
<glyph name="ampersand" format="1">
  <advance width="938"/>
  <unicode hex="0026"/>
  <outline>
    <contour>
      <point x="773" y="181" type="line"/>
      <point x="773" y="346" type="line"/>
      <point x="665" y="346" type="line"/>
      <point x="665" y="223" type="line"/>
      <point x="201" y="457" type="line"/>
      <point x="201" y="589" type="line" smooth="yes"/>
      <point x="201" y="601"/>
      <point x="211" y="611"/>
      <point x="223" y="611" type="curve" smooth="yes"/>
      <point x="613" y="611" type="line" smooth="yes"/>
      <point x="625" y="611"/>
      <point x="635" y="601"/>
      <point x="635" y="589" type="curve" smooth="yes"/>
      <point x="635" y="541" type="line"/>
      <point x="743" y="541" type="line"/>
      <point x="743" y="612" type="line"/>
      <point x="732" y="673"/>
      <point x="677" y="720"/>
      <point x="613" y="720" type="curve" smooth="yes"/>
      <point x="223" y="720" type="line" smooth="yes"/>
      <point x="151" y="720"/>
      <point x="93" y="662"/>
      <point x="93" y="590" type="curve" smooth="yes"/>
      <point x="93" y="486" type="line" smooth="yes"/>
      <point x="93" y="458"/>
      <point x="97" y="426"/>
      <point x="118" y="410" type="curve"/>
      <point x="75" y="410"/>
      <point x="53" y="362"/>
      <point x="53" y="334" type="curve" smooth="yes"/>
      <point x="53" y="130" type="line" smooth="yes"/>
      <point x="53" y="58"/>
      <point x="111" y="0"/>
      <point x="183" y="0" type="curve" smooth="yes"/>
      <point x="643" y="0" type="line" smooth="yes"/>
      <point x="698" y="0"/>
      <point x="744" y="33"/>
      <point x="763" y="81" type="curve"/>
      <point x="900" y="3" type="line"/>
      <point x="900" y="107" type="line"/>
    </contour>
    <contour>
      <point x="183" y="108" type="line" smooth="yes"/>
      <point x="171" y="108"/>
      <point x="161" y="118"/>
      <point x="161" y="130" type="curve" smooth="yes"/>
      <point x="161" y="334" type="line" smooth="yes"/>
      <point x="161" y="346"/>
      <point x="171" y="356"/>
      <point x="183" y="356" type="curve" smooth="yes"/>
      <point x="194" y="356" type="line"/>
      <point x="662" y="120" type="line"/>
      <point x="659" y="113"/>
      <point x="651" y="108"/>
      <point x="643" y="108" type="curve" smooth="yes"/>
    </contour>
  </outline>
</glyph>
<glyph name="quotesingle" format="1">
  <advance width="224"/>
  <unicode hex="0027"/>
  <outline>
    <contour>
      <point x="167" y="719" type="line"/>
      <point x="59" y="719" type="line"/>
      <point x="59" y="557" type="line"/>
      <point x="167" y="557" type="line"/>
    </contour>
  </outline>
</glyph>
<glyph name="parenleft" format="1">
  <advance width="277"/>
  <unicode hex="0028"/>
  <outline>
    <contour>
      <point x="182" y="108" type="line" smooth="yes"/>
      <point x="170" y="108"/>
      <point x="160" y="118"/>
      <point x="160" y="130" type="curve" smooth="yes"/>
      <point x="160" y="590" type="line" smooth="yes"/>
      <point x="160" y="602"/>
      <point x="170" y="612"/>
      <point x="182" y="612" type="curve" smooth="yes"/>
      <point x="224" y="612" type="line"/>
      <point x="224" y="720" type="line"/>
      <point x="182" y="720" type="line" smooth="yes"/>
      <point x="110" y="720"/>
      <point x="52" y="662"/>
      <point x="52" y="590" type="curve" smooth="yes"/>
      <point x="52" y="130" type="line" smooth="yes"/>
      <point x="52" y="58"/>
      <point x="110" y="0"/>
      <point x="182" y="0" type="curve" smooth="yes"/>
      <point x="224" y="0" type="line"/>
      <point x="224" y="108" type="line"/>
    </contour>
  </outline>
</glyph>
<glyph name="parenright" format="1">
  <advance width="278"/>
  <unicode hex="0029"/>
  <outline>
    <contour>
      <point x="56" y="0" type="line"/>
      <point x="98" y="0" type="line" smooth="yes"/>
      <point x="169" y="0"/>
      <point x="228" y="58"/>
      <point x="228" y="130" type="curve" smooth="yes"/>
      <point x="228" y="590" type="line" smooth="yes"/>
      <point x="228" y="662"/>
      <point x="169" y="720"/>
      <point x="98" y="720" type="curve" smooth="yes"/>
      <point x="56" y="720" type="line"/>
      <point x="56" y="612" type="line"/>
      <point x="98" y="612" type="line" smooth="yes"/>
      <point x="110" y="612"/>
      <point x="120" y="602"/>
      <point x="120" y="590" type="curve" smooth="yes"/>
      <point x="120" y="130" type="line" smooth="yes"/>
      <point x="120" y="118"/>
      <point x="110" y="108"/>
      <point x="98" y="108" type="curve" smooth="yes"/>
      <point x="56" y="108" type="line"/>
    </contour>
  </outline>
</glyph>
<glyph name="asterisk" format="1">
  <advance width="491"/>
  <unicode hex="002A"/>
  <outline>
    <contour>
      <point x="432" y="623" type="line"/>
      <point x="299" y="579" type="line"/>
      <point x="299" y="719" type="line"/>
      <point x="191" y="719" type="line"/>
      <point x="191" y="579" type="line"/>
      <point x="58" y="623" type="line"/>
      <point x="25" y="520" type="line"/>
      <point x="158" y="477" type="line"/>
      <point x="76" y="363" type="line"/>
      <point x="163" y="300" type="line"/>
      <point x="245" y="413" type="line"/>
      <point x="328" y="300" type="line"/>
      <point x="415" y="363" type="line"/>
      <point x="333" y="477" type="line"/>
      <point x="466" y="520" type="line"/>
    </contour>
  </outline>
</glyph>
<glyph name="plus" format="1">
  <advance width="433"/>
  <unicode hex="002B"/>
  <outline>
    <contour>
      <point x="161" y="495" type="line"/>
      <point x="161" y="350" type="line"/>
      <point x="17" y="350" type="line"/>
      <point x="17" y="242" type="line"/>
      <point x="161" y="242" type="line"/>
      <point x="161" y="95" type="line"/>
      <point x="269" y="95" type="line"/>
      <point x="269" y="242" type="line"/>
      <point x="417" y="242" type="line"/>
      <point x="417" y="350" type="line"/>
      <point x="269" y="350" type="line"/>
      <point x="269" y="495" type="line"/>
    </contour>
  </outline>
</glyph>
<glyph name="comma" format="1">
  <advance width="193"/>
  <unicode hex="002C"/>
  <outline>
    <contour>
      <point x="54" y="108" type="line"/>
      <point x="54" y="-128" type="line"/>
      <point x="115" y="-118"/>
      <point x="162" y="-65"/>
      <point x="162" y="0" type="curve" smooth="yes"/>
      <point x="162" y="108" type="line"/>
    </contour>
  </outline>
</glyph>
<glyph name="slash" format="1">
  <advance width="521"/>
  <unicode hex="002F"/>
  <outline>
    <contour>
      <point x="6" y="128" type="line"/>
      <point x="6" y="0" type="line"/>
      <point x="21" y="0" type="line"/>
      <point x="516" y="592" type="line"/>
      <point x="516" y="720" type="line"/>
      <point x="501" y="720" type="line"/>
    </contour>
  </outline>
</glyph>
<glyph name="zero" format="1">
  <advance width="834"/>
  <unicode hex="0030"/>
  <outline>
    <contour>
      <point x="187" y="720" type="line" smooth="yes"/>
      <point x="115" y="720"/>
      <point x="57" y="662"/>
      <point x="57" y="590" type="curve" smooth="yes"/>
      <point x="57" y="130" type="line" smooth="yes"/>
      <point x="57" y="58"/>
      <point x="115" y="0"/>
      <point x="187" y="0" type="curve" smooth="yes"/>
      <point x="647" y="0" type="line" smooth="yes"/>
      <point x="719" y="0"/>
      <point x="777" y="58"/>
      <point x="777" y="130" type="curve" smooth="yes"/>
      <point x="777" y="590" type="line" smooth="yes"/>
      <point x="777" y="662"/>
      <point x="719" y="720"/>
      <point x="647" y="720" type="curve" smooth="yes"/>
    </contour>
    <contour>
      <point x="633" y="612" type="line"/>
      <point x="165" y="219" type="line"/>
      <point x="165" y="590" type="line" smooth="yes"/>
      <point x="165" y="602"/>
      <point x="175" y="612"/>
      <point x="187" y="612" type="curve" smooth="yes"/>
    </contour>
    <contour>
      <point x="201" y="108" type="line"/>
      <point x="669" y="501" type="line"/>
      <point x="669" y="130" type="line" smooth="yes"/>
      <point x="669" y="118"/>
      <point x="659" y="108"/>
      <point x="647" y="108" type="curve" smooth="yes"/>
    </contour>
  </outline>
</glyph>
<glyph name="one" format="1">
  <advance width="391"/>
  <unicode hex="0031"/>
  <outline>
    <contour>
      <point x="1" y="477" type="line"/>
      <point x="142" y="477" type="line"/>
      <point x="225" y="576" type="line"/>
      <point x="225" y="0" type="line"/>
      <point x="333" y="0" type="line"/>
      <point x="333" y="720" type="line"/>
      <point x="204" y="720" type="line"/>
    </contour>
  </outline>
</glyph>
<glyph name="two" format="1">
  <advance width="830"/>
  <unicode hex="0032"/>
  <outline>
    <contour>
      <point x="187" y="720" type="line" smooth="yes"/>
      <point x="115" y="720"/>
      <point x="57" y="662"/>
      <point x="57" y="590" type="curve" smooth="yes"/>
      <point x="57" y="548" type="line"/>
      <point x="165" y="548" type="line"/>
      <point x="165" y="590" type="line" smooth="yes"/>
      <point x="165" y="602"/>
      <point x="175" y="612"/>
      <point x="187" y="612" type="curve" smooth="yes"/>
      <point x="647" y="612" type="line" smooth="yes"/>
      <point x="659" y="612"/>
      <point x="669" y="602"/>
      <point x="669" y="590" type="curve" smooth="yes"/>
      <point x="669" y="426" type="line" smooth="yes"/>
      <point x="669" y="414"/>
      <point x="659" y="404"/>
      <point x="647" y="404" type="curve" smooth="yes"/>
      <point x="187" y="404" type="line" smooth="yes"/>
      <point x="115" y="404"/>
      <point x="57" y="346"/>
      <point x="57" y="274" type="curve" smooth="yes"/>
      <point x="57" y="0" type="line"/>
      <point x="777" y="0" type="line"/>
      <point x="777" y="108" type="line"/>
      <point x="187" y="108" type="line" smooth="yes"/>
      <point x="175" y="108"/>
      <point x="165" y="118"/>
      <point x="165" y="130" type="curve" smooth="yes"/>
      <point x="165" y="274" type="line" smooth="yes"/>
      <point x="165" y="286"/>
      <point x="175" y="296"/>
      <point x="187" y="296" type="curve" smooth="yes"/>
      <point x="647" y="296" type="line" smooth="yes"/>
      <point x="719" y="296"/>
      <point x="777" y="354"/>
      <point x="777" y="426" type="curve" smooth="yes"/>
      <point x="777" y="590" type="line" smooth="yes"/>
      <point x="777" y="662"/>
      <point x="719" y="720"/>
      <point x="647" y="720" type="curve" smooth="yes"/>
    </contour>
  </outline>
</glyph>
<glyph name="three" format="1">
  <advance width="826"/>
  <unicode hex="0033"/>
  <outline>
    <contour>
      <point x="738" y="404"/>
      <point x="743" y="423"/>
      <point x="743" y="443" type="curve" smooth="yes"/>
      <point x="743" y="590" type="line" smooth="yes"/>
      <point x="743" y="662"/>
      <point x="685" y="720"/>
      <point x="613" y="720" type="curve" smooth="yes"/>
      <point x="183" y="720" type="line" smooth="yes"/>
      <point x="111" y="720"/>
      <point x="53" y="662"/>
      <point x="53" y="590" type="curve" smooth="yes"/>
      <point x="53" y="550" type="line"/>
      <point x="161" y="550" type="line"/>
      <point x="161" y="590" type="line" smooth="yes"/>
      <point x="161" y="602"/>
      <point x="171" y="612"/>
      <point x="183" y="612" type="curve" smooth="yes"/>
      <point x="613" y="612" type="line" smooth="yes"/>
      <point x="625" y="612"/>
      <point x="635" y="602"/>
      <point x="635" y="590" type="curve" smooth="yes"/>
      <point x="635" y="443" type="line" smooth="yes"/>
      <point x="635" y="431"/>
      <point x="625" y="421"/>
      <point x="613" y="421" type="curve" smooth="yes"/>
      <point x="183" y="421" type="line"/>
      <point x="183" y="313" type="line"/>
      <point x="643" y="313" type="line" smooth="yes"/>
      <point x="655" y="313"/>
      <point x="665" y="303"/>
      <point x="665" y="291" type="curve" smooth="yes"/>
      <point x="665" y="130" type="line" smooth="yes"/>
      <point x="665" y="118"/>
      <point x="655" y="108"/>
      <point x="643" y="108" type="curve" smooth="yes"/>
      <point x="183" y="108" type="line" smooth="yes"/>
      <point x="171" y="108"/>
      <point x="161" y="118"/>
      <point x="161" y="130" type="curve" smooth="yes"/>
      <point x="161" y="160" type="line"/>
      <point x="53" y="160" type="line"/>
      <point x="53" y="130" type="line" smooth="yes"/>
      <point x="53" y="58"/>
      <point x="111" y="0"/>
      <point x="183" y="0" type="curve" smooth="yes"/>
      <point x="643" y="0" type="line" smooth="yes"/>
      <point x="715" y="0"/>
      <point x="773" y="58"/>
      <point x="773" y="130" type="curve" smooth="yes"/>
      <point x="773" y="291" type="line" smooth="yes"/>
      <point x="773" y="329"/>
      <point x="756" y="364"/>
      <point x="730" y="387" type="curve"/>
    </contour>
  </outline>
</glyph>
<glyph name="four" format="1">
  <advance width="730"/>
  <unicode hex="0034"/>
  <outline>
    <contour>
      <point x="590" y="291" type="line"/>
      <point x="590" y="720" type="line"/>
      <point x="482" y="720" type="line"/>
      <point x="6" y="291" type="line"/>
      <point x="6" y="183" type="line"/>
      <point x="482" y="183" type="line"/>
      <point x="482" y="0" type="line"/>
      <point x="590" y="0" type="line"/>
      <point x="590" y="183" type="line"/>
      <point x="696" y="183" type="line"/>
      <point x="696" y="291" type="line"/>
    </contour>
    <contour>
      <point x="482" y="550" type="line"/>
      <point x="482" y="291" type="line"/>
      <point x="163" y="291" type="line"/>
    </contour>
  </outline>
</glyph>
<glyph name="five" format="1">
  <advance width="830"/>
  <unicode hex="0035"/>
  <outline>
    <contour>
      <point x="165" y="602"/>
      <point x="175" y="612"/>
      <point x="187" y="612" type="curve" smooth="yes"/>
      <point x="777" y="612" type="line"/>
      <point x="777" y="720" type="line"/>
      <point x="57" y="720" type="line"/>
      <point x="57" y="446" type="line" smooth="yes"/>
      <point x="57" y="438"/>
      <point x="58" y="431"/>
      <point x="59" y="424" type="curve"/>
      <point x="57" y="424" type="line"/>
      <point x="57" y="316" type="line"/>
      <point x="647" y="316" type="line" smooth="yes"/>
      <point x="659" y="316"/>
      <point x="669" y="306"/>
      <point x="669" y="294" type="curve" smooth="yes"/>
      <point x="669" y="130" type="line" smooth="yes"/>
      <point x="669" y="118"/>
      <point x="659" y="108"/>
      <point x="647" y="108" type="curve" smooth="yes"/>
      <point x="187" y="108" type="line" smooth="yes"/>
      <point x="175" y="108"/>
      <point x="165" y="118"/>
      <point x="165" y="130" type="curve" smooth="yes"/>
      <point x="165" y="172" type="line"/>
      <point x="57" y="172" type="line"/>
      <point x="57" y="130" type="line" smooth="yes"/>
      <point x="57" y="58"/>
      <point x="115" y="0"/>
      <point x="187" y="0" type="curve" smooth="yes"/>
      <point x="647" y="0" type="line" smooth="yes"/>
      <point x="719" y="0"/>
      <point x="777" y="58"/>
      <point x="777" y="130" type="curve" smooth="yes"/>
      <point x="777" y="294" type="line" smooth="yes"/>
      <point x="777" y="366"/>
      <point x="719" y="424"/>
      <point x="647" y="424" type="curve" smooth="yes"/>
      <point x="187" y="424" type="line" smooth="yes"/>
      <point x="175" y="424"/>
      <point x="165" y="434"/>
      <point x="165" y="446" type="curve" smooth="yes"/>
      <point x="165" y="590" type="line" smooth="yes"/>
    </contour>
  </outline>
</glyph>
<glyph name="six" format="1">
  <advance width="820"/>
  <unicode hex="0036"/>
  <outline>
    <contour>
      <point x="527" y="424" type="line"/>
      <point x="187" y="424" type="line" smooth="yes"/>
      <point x="175" y="424"/>
      <point x="165" y="434"/>
      <point x="165" y="446" type="curve" smooth="yes"/>
      <point x="165" y="590" type="line" smooth="yes"/>
      <point x="165" y="602"/>
      <point x="175" y="612"/>
      <point x="187" y="612" type="curve" smooth="yes"/>
      <point x="657" y="612" type="line"/>
      <point x="657" y="720" type="line"/>
      <point x="654" y="720"/>
      <point x="650" y="720"/>
      <point x="187" y="720" type="curve" smooth="yes"/>
      <point x="115" y="720"/>
      <point x="57" y="662"/>
      <point x="57" y="590" type="curve" smooth="yes"/>
      <point x="57" y="130" type="line" smooth="yes"/>
      <point x="57" y="58"/>
      <point x="115" y="0"/>
      <point x="187" y="0" type="curve" smooth="yes"/>
      <point x="647" y="0" type="line" smooth="yes"/>
      <point x="719" y="0"/>
      <point x="777" y="58"/>
      <point x="777" y="130" type="curve" smooth="yes"/>
      <point x="777" y="294" type="line" smooth="yes"/>
      <point x="777" y="366"/>
      <point x="719" y="424"/>
      <point x="647" y="424" type="curve" smooth="yes"/>
    </contour>
    <contour>
      <point x="669" y="130" type="line" smooth="yes"/>
      <point x="669" y="118"/>
      <point x="659" y="108"/>
      <point x="647" y="108" type="curve" smooth="yes"/>
      <point x="187" y="108" type="line" smooth="yes"/>
      <point x="175" y="108"/>
      <point x="165" y="118"/>
      <point x="165" y="130" type="curve" smooth="yes"/>
      <point x="165" y="316" type="line"/>
      <point x="647" y="316" type="line" smooth="yes"/>
      <point x="659" y="316"/>
      <point x="669" y="306"/>
      <point x="669" y="294" type="curve" smooth="yes"/>
    </contour>
  </outline>
</glyph>
<glyph name="seven" format="1">
  <advance width="660"/>
  <unicode hex="0037"/>
  <outline>
    <contour>
      <point x="10" y="720"/>
      <point x="6" y="720"/>
      <point x="3" y="720" type="curve"/>
      <point x="3" y="612" type="line"/>
      <point x="473" y="612" type="line" smooth="yes"/>
      <point x="485" y="612"/>
      <point x="495" y="602"/>
      <point x="495" y="590" type="curve" smooth="yes"/>
      <point x="495" y="0" type="line"/>
      <point x="603" y="0" type="line"/>
      <point x="603" y="590" type="line" smooth="yes"/>
      <point x="603" y="662"/>
      <point x="545" y="720"/>
      <point x="473" y="720" type="curve" smooth="yes"/>
      <point x="13" y="720" type="line" smooth="yes"/>
    </contour>
  </outline>
</glyph>
<glyph name="eight" format="1">
  <advance width="834"/>
  <unicode hex="0038"/>
  <outline>
    <contour>
      <point x="777" y="612" type="line"/>
      <point x="766" y="673"/>
      <point x="711" y="720"/>
      <point x="647" y="720" type="curve" smooth="yes"/>
      <point x="187" y="720" type="line" smooth="yes"/>
      <point x="115" y="720"/>
      <point x="57" y="662"/>
      <point x="57" y="590" type="curve" smooth="yes"/>
      <point x="57" y="446" type="line" smooth="yes"/>
      <point x="57" y="418"/>
      <point x="66" y="391"/>
      <point x="82" y="370" type="curve"/>
      <point x="66" y="349"/>
      <point x="57" y="322"/>
      <point x="57" y="294" type="curve" smooth="yes"/>
      <point x="57" y="130" type="line" smooth="yes"/>
      <point x="57" y="58"/>
      <point x="115" y="0"/>
      <point x="187" y="0" type="curve" smooth="yes"/>
      <point x="647" y="0" type="line" smooth="yes"/>
      <point x="719" y="0"/>
      <point x="777" y="58"/>
      <point x="777" y="130" type="curve" smooth="yes"/>
      <point x="777" y="294" type="line" smooth="yes"/>
      <point x="777" y="322"/>
      <point x="768" y="349"/>
      <point x="752" y="370" type="curve"/>
      <point x="768" y="391"/>
      <point x="777" y="418"/>
      <point x="777" y="446" type="curve" smooth="yes"/>
    </contour>
    <contour>
      <point x="669" y="130" type="line" smooth="yes"/>
      <point x="669" y="118"/>
      <point x="659" y="108"/>
      <point x="647" y="108" type="curve" smooth="yes"/>
      <point x="187" y="108" type="line" smooth="yes"/>
      <point x="175" y="108"/>
      <point x="165" y="118"/>
      <point x="165" y="130" type="curve" smooth="yes"/>
      <point x="165" y="294" type="line" smooth="yes"/>
      <point x="165" y="306"/>
      <point x="175" y="316"/>
      <point x="187" y="316" type="curve" smooth="yes"/>
      <point x="647" y="316" type="line" smooth="yes"/>
      <point x="659" y="316"/>
      <point x="669" y="306"/>
      <point x="669" y="294" type="curve" smooth="yes"/>
    </contour>
    <contour>
      <point x="669" y="435" type="line" smooth="yes"/>
      <point x="669" y="423"/>
      <point x="659" y="413"/>
      <point x="647" y="413" type="curve" smooth="yes"/>
      <point x="187" y="413" type="line" smooth="yes"/>
      <point x="175" y="413"/>
      <point x="165" y="423"/>
      <point x="165" y="435" type="curve" smooth="yes"/>
      <point x="165" y="589" type="line" smooth="yes"/>
      <point x="165" y="601"/>
      <point x="175" y="611"/>
      <point x="187" y="611" type="curve" smooth="yes"/>
      <point x="647" y="611" type="line" smooth="yes"/>
      <point x="659" y="611"/>
      <point x="669" y="601"/>
      <point x="669" y="589" type="curve" smooth="yes"/>
    </contour>
  </outline>
</glyph>
<glyph name="nine" format="1">
  <advance width="828"/>
  <unicode hex="0039"/>
  <outline>
    <contour>
      <point x="301" y="296" type="line"/>
      <point x="641" y="296" type="line" smooth="yes"/>
      <point x="653" y="296"/>
      <point x="663" y="286"/>
      <point x="663" y="274" type="curve" smooth="yes"/>
      <point x="663" y="130" type="line" smooth="yes"/>
      <point x="663" y="118"/>
      <point x="653" y="108"/>
      <point x="641" y="108" type="curve" smooth="yes"/>
      <point x="53" y="108" type="line"/>
      <point x="63" y="47"/>
      <point x="117" y="0"/>
      <point x="181" y="0" type="curve" smooth="yes"/>
      <point x="641" y="0" type="line" smooth="yes"/>
      <point x="713" y="0"/>
      <point x="771" y="58"/>
      <point x="771" y="130" type="curve" smooth="yes"/>
      <point x="771" y="590" type="line" smooth="yes"/>
      <point x="771" y="662"/>
      <point x="713" y="720"/>
      <point x="641" y="720" type="curve" smooth="yes"/>
      <point x="181" y="720" type="line" smooth="yes"/>
      <point x="109" y="720"/>
      <point x="51" y="662"/>
      <point x="51" y="590" type="curve" smooth="yes"/>
      <point x="51" y="426" type="line" smooth="yes"/>
      <point x="51" y="354"/>
      <point x="109" y="296"/>
      <point x="181" y="296" type="curve" smooth="yes"/>
    </contour>
    <contour>
      <point x="159" y="590" type="line" smooth="yes"/>
      <point x="159" y="602"/>
      <point x="169" y="612"/>
      <point x="181" y="612" type="curve" smooth="yes"/>
      <point x="641" y="612" type="line" smooth="yes"/>
      <point x="653" y="612"/>
      <point x="663" y="602"/>
      <point x="663" y="590" type="curve" smooth="yes"/>
      <point x="663" y="404" type="line"/>
      <point x="181" y="404" type="line" smooth="yes"/>
      <point x="169" y="404"/>
      <point x="159" y="414"/>
      <point x="159" y="426" type="curve" smooth="yes"/>
    </contour>
  </outline>
</glyph>
<glyph name="colon" format="1">
  <advance width="214"/>
  <unicode hex="003A"/>
  <outline>
    <contour>
      <point x="54" y="108" type="line"/>
      <point x="54" y="0" type="line"/>
      <point x="162" y="0" type="line"/>
      <point x="162" y="108" type="line"/>
    </contour>
    <contour>
      <point x="162" y="588" type="line"/>
      <point x="54" y="588" type="line"/>
      <point x="54" y="480" type="line"/>
      <point x="162" y="480" type="line"/>
    </contour>
  </outline>
</glyph>
<glyph name="semicolon" format="1">
  <advance width="193"/>
  <unicode hex="003B"/>
  <outline>
    <contour>
      <point x="159" y="588" type="line"/>
      <point x="51" y="588" type="line"/>
      <point x="51" y="480" type="line"/>
      <point x="159" y="480" type="line"/>
    </contour>
    <contour>
      <point x="51" y="108" type="line"/>
      <point x="51" y="-128" type="line"/>
      <point x="112" y="-118"/>
      <point x="159" y="-65"/>
      <point x="159" y="0" type="curve" smooth="yes"/>
      <point x="159" y="108" type="line"/>
    </contour>
  </outline>
</glyph>
<glyph name="less" format="1">
  <advance width="473"/>
  <unicode hex="003C"/>
  <outline>
    <contour>
      <point x="127" y="296" type="line"/>
      <point x="416" y="462" type="line"/>
      <point x="416" y="587" type="line"/>
      <point x="5" y="350" type="line"/>
      <point x="5" y="242" type="line"/>
      <point x="416" y="4" type="line"/>
      <point x="416" y="129" type="line"/>
    </contour>
  </outline>
</glyph>
<glyph name="equal" format="1">
  <advance width="638"/>
  <unicode hex="003D"/>
  <outline>
    <contour>
      <point x="579" y="251" type="line"/>
      <point x="59" y="251" type="line"/>
      <point x="59" y="143" type="line"/>
      <point x="579" y="143" type="line"/>
    </contour>
    <contour>
      <point x="579" y="441" type="line"/>
      <point x="59" y="441" type="line"/>
      <point x="59" y="333" type="line"/>
      <point x="579" y="333" type="line"/>
    </contour>
  </outline>
</glyph>
<glyph name="greater" format="1">
  <advance width="475"/>
  <unicode hex="003E"/>
  <outline>
    <contour>
      <point x="59" y="2" type="line"/>
      <point x="470" y="240" type="line"/>
      <point x="470" y="348" type="line"/>
      <point x="59" y="585" type="line"/>
      <point x="59" y="460" type="line"/>
      <point x="348" y="294" type="line"/>
      <point x="59" y="127" type="line"/>
    </contour>
  </outline>
</glyph>
<glyph name="question" format="1">
  <advance width="678"/>
  <unicode hex="003F"/>
  <outline>
    <contour>
      <point x="31" y="720" type="line" smooth="yes"/>
      <point x="31" y="720"/>
      <point x="31" y="673"/>
      <point x="31" y="612" type="curve"/>
      <point x="528" y="612" type="line" smooth="yes"/>
      <point x="540" y="612"/>
      <point x="550" y="602"/>
      <point x="550" y="590" type="curve" smooth="yes"/>
      <point x="550" y="406" type="line" smooth="yes"/>
      <point x="550" y="394"/>
      <point x="540" y="384"/>
      <point x="528" y="384" type="curve" smooth="yes"/>
      <point x="269" y="384" type="line" smooth="yes"/>
      <point x="197" y="384"/>
      <point x="139" y="326"/>
      <point x="139" y="254" type="curve" smooth="yes"/>
      <point x="139" y="199" type="line"/>
      <point x="247" y="199" type="line"/>
      <point x="247" y="254" type="line" smooth="yes"/>
      <point x="247" y="266"/>
      <point x="257" y="276"/>
      <point x="269" y="276" type="curve" smooth="yes"/>
      <point x="528" y="276" type="line" smooth="yes"/>
      <point x="600" y="276"/>
      <point x="658" y="334"/>
      <point x="658" y="406" type="curve" smooth="yes"/>
      <point x="658" y="590" type="line" smooth="yes"/>
      <point x="658" y="662"/>
      <point x="600" y="720"/>
      <point x="528" y="720" type="curve" smooth="yes"/>
    </contour>
    <contour>
      <point x="247" y="0" type="line"/>
      <point x="247" y="108" type="line"/>
      <point x="139" y="108" type="line"/>
      <point x="139" y="0" type="line"/>
    </contour>
  </outline>
</glyph>
<glyph name="at" format="1">
  <advance width="831"/>
  <unicode hex="0040"/>
  <outline>
    <contour>
      <point x="372" y="530" type="line" smooth="yes"/>
      <point x="300" y="530"/>
      <point x="242" y="472"/>
      <point x="242" y="400" type="curve" smooth="yes"/>
      <point x="242" y="320" type="line" smooth="yes"/>
      <point x="242" y="248"/>
      <point x="300" y="190"/>
      <point x="372" y="190" type="curve" smooth="yes"/>
      <point x="777" y="190" type="line"/>
      <point x="777" y="590" type="line" smooth="yes"/>
      <point x="777" y="662"/>
      <point x="719" y="720"/>
      <point x="647" y="720" type="curve" smooth="yes"/>
      <point x="187" y="720" type="line" smooth="yes"/>
      <point x="115" y="720"/>
      <point x="57" y="662"/>
      <point x="57" y="590" type="curve" smooth="yes"/>
      <point x="57" y="130" type="line" smooth="yes"/>
      <point x="57" y="58"/>
      <point x="115" y="0"/>
      <point x="187" y="0" type="curve" smooth="yes"/>
      <point x="777" y="0" type="line"/>
      <point x="777" y="53"/>
      <point x="777" y="59"/>
      <point x="777" y="108" type="curve"/>
      <point x="187" y="108" type="line" smooth="yes"/>
      <point x="175" y="108"/>
      <point x="165" y="118"/>
      <point x="165" y="130" type="curve" smooth="yes"/>
      <point x="165" y="590" type="line" smooth="yes"/>
      <point x="165" y="602"/>
      <point x="175" y="612"/>
      <point x="187" y="612" type="curve" smooth="yes"/>
      <point x="647" y="612" type="line" smooth="yes"/>
      <point x="659" y="612"/>
      <point x="669" y="602"/>
      <point x="669" y="590" type="curve" smooth="yes"/>
      <point x="669" y="278" type="line"/>
      <point x="592" y="278" type="line"/>
      <point x="592" y="400" type="line" smooth="yes"/>
      <point x="592" y="472"/>
      <point x="534" y="530"/>
      <point x="462" y="530" type="curve" smooth="yes"/>
    </contour>
    <contour>
      <point x="352" y="278" type="line" smooth="yes"/>
      <point x="340" y="278"/>
      <point x="330" y="288"/>
      <point x="330" y="300" type="curve" smooth="yes"/>
      <point x="330" y="420" type="line" smooth="yes"/>
      <point x="330" y="432"/>
      <point x="340" y="442"/>
      <point x="352" y="442" type="curve" smooth="yes"/>
      <point x="482" y="442" type="line" smooth="yes"/>
      <point x="494" y="442"/>
      <point x="504" y="432"/>
      <point x="504" y="420" type="curve" smooth="yes"/>
      <point x="504" y="278" type="line"/>
    </contour>
  </outline>
</glyph>
<glyph name="B" format="1">
  <advance width="832"/>
  <unicode hex="0042"/>
  <outline>
    <contour>
      <point x="744" y="404"/>
      <point x="749" y="423"/>
      <point x="749" y="443" type="curve" smooth="yes"/>
      <point x="749" y="590" type="line" smooth="yes"/>
      <point x="749" y="662"/>
      <point x="691" y="720"/>
      <point x="619" y="720" type="curve" smooth="yes"/>
      <point x="59" y="720" type="line"/>
      <point x="59" y="0" type="line"/>
      <point x="649" y="0" type="line" smooth="yes"/>
      <point x="721" y="0"/>
      <point x="779" y="58"/>
      <point x="779" y="130" type="curve" smooth="yes"/>
      <point x="779" y="291" type="line" smooth="yes"/>
      <point x="779" y="329"/>
      <point x="762" y="364"/>
      <point x="736" y="387" type="curve"/>
    </contour>
    <contour>
      <point x="619" y="612" type="line" smooth="yes"/>
      <point x="631" y="612"/>
      <point x="641" y="602"/>
      <point x="641" y="590" type="curve" smooth="yes"/>
      <point x="641" y="443" type="line" smooth="yes"/>
      <point x="641" y="431"/>
      <point x="631" y="421"/>
      <point x="619" y="421" type="curve" smooth="yes"/>
      <point x="189" y="421" type="line" smooth="yes"/>
      <point x="177" y="421"/>
      <point x="167" y="431"/>
      <point x="167" y="443" type="curve" smooth="yes"/>
      <point x="167" y="590" type="line" smooth="yes"/>
      <point x="167" y="602"/>
      <point x="177" y="612"/>
      <point x="189" y="612" type="curve" smooth="yes"/>
    </contour>
    <contour>
      <point x="671" y="130" type="line" smooth="yes"/>
      <point x="671" y="118"/>
      <point x="661" y="108"/>
      <point x="649" y="108" type="curve" smooth="yes"/>
      <point x="189" y="108" type="line" smooth="yes"/>
      <point x="177" y="108"/>
      <point x="167" y="118"/>
      <point x="167" y="130" type="curve" smooth="yes"/>
      <point x="167" y="291" type="line" smooth="yes"/>
      <point x="167" y="303"/>
      <point x="177" y="313"/>
      <point x="189" y="313" type="curve" smooth="yes"/>
      <point x="649" y="313" type="line" smooth="yes"/>
      <point x="661" y="313"/>
      <point x="671" y="303"/>
      <point x="671" y="291" type="curve" smooth="yes"/>
    </contour>
  </outline>
</glyph>
<glyph name="C" format="1">
  <advance width="822"/>
  <unicode hex="0043"/>
  <outline>
    <contour>
      <point x="774" y="612" type="line"/>
      <point x="774" y="720" type="line"/>
      <point x="186" y="720" type="line" smooth="yes"/>
      <point x="114" y="720"/>
      <point x="56" y="662"/>
      <point x="56" y="590" type="curve" smooth="yes"/>
      <point x="56" y="130" type="line" smooth="yes"/>
      <point x="56" y="58"/>
      <point x="114" y="0"/>
      <point x="186" y="0" type="curve" smooth="yes"/>
      <point x="774" y="0" type="line"/>
      <point x="774" y="108" type="line"/>
      <point x="186" y="108" type="line" smooth="yes"/>
      <point x="174" y="108"/>
      <point x="164" y="118"/>
      <point x="164" y="130" type="curve" smooth="yes"/>
      <point x="164" y="590" type="line" smooth="yes"/>
      <point x="164" y="602"/>
      <point x="174" y="612"/>
      <point x="186" y="612" type="curve" smooth="yes"/>
    </contour>
  </outline>
</glyph>
<glyph name="D" format="1">
  <advance width="834"/>
  <unicode hex="0044"/>
  <outline>
    <contour>
      <point x="58" y="720" type="line"/>
      <point x="58" y="0" type="line"/>
      <point x="648" y="0" type="line" smooth="yes"/>
      <point x="720" y="0"/>
      <point x="778" y="58"/>
      <point x="778" y="130" type="curve" smooth="yes"/>
      <point x="778" y="590" type="line" smooth="yes"/>
      <point x="778" y="662"/>
      <point x="720" y="720"/>
      <point x="648" y="720" type="curve" smooth="yes"/>
    </contour>
    <contour>
      <point x="670" y="130" type="line" smooth="yes"/>
      <point x="670" y="118"/>
      <point x="660" y="108"/>
      <point x="648" y="108" type="curve" smooth="yes"/>
      <point x="188" y="108" type="line" smooth="yes"/>
      <point x="176" y="108"/>
      <point x="166" y="118"/>
      <point x="166" y="130" type="curve" smooth="yes"/>
      <point x="166" y="590" type="line" smooth="yes"/>
      <point x="166" y="602"/>
      <point x="176" y="612"/>
      <point x="188" y="612" type="curve" smooth="yes"/>
      <point x="648" y="612" type="line" smooth="yes"/>
      <point x="660" y="612"/>
      <point x="670" y="602"/>
      <point x="670" y="590" type="curve" smooth="yes"/>
    </contour>
  </outline>
</glyph>
<glyph name="E" format="1">
  <advance width="766"/>
  <unicode hex="0045"/>
  <outline>
    <contour>
      <point x="718" y="720" type="line"/>
      <point x="58" y="720" type="line"/>
      <point x="58" y="0" type="line"/>
      <point x="718" y="0" type="line"/>
      <point x="718" y="108" type="line"/>
      <point x="166" y="108" type="line"/>
      <point x="166" y="306" type="line"/>
      <point x="610" y="306" type="line"/>
      <point x="610" y="414" type="line"/>
      <point x="166" y="414" type="line"/>
      <point x="166" y="612" type="line"/>
      <point x="718" y="612" type="line"/>
    </contour>
  </outline>
</glyph>
<glyph name="G" format="1">
  <advance width="830"/>
  <unicode hex="0047"/>
  <outline>
    <contour>
      <point x="776" y="590" type="line" smooth="yes"/>
      <point x="776" y="662"/>
      <point x="718" y="720"/>
      <point x="646" y="720" type="curve" smooth="yes"/>
      <point x="186" y="720" type="line" smooth="yes"/>
      <point x="114" y="720"/>
      <point x="56" y="662"/>
      <point x="56" y="590" type="curve" smooth="yes"/>
      <point x="56" y="130" type="line" smooth="yes"/>
      <point x="56" y="58"/>
      <point x="114" y="0"/>
      <point x="186" y="0" type="curve" smooth="yes"/>
      <point x="646" y="0" type="line" smooth="yes"/>
      <point x="718" y="0"/>
      <point x="776" y="58"/>
      <point x="776" y="130" type="curve" smooth="yes"/>
      <point x="776" y="394" type="line"/>
      <point x="498" y="394" type="line"/>
      <point x="498" y="286" type="line"/>
      <point x="668" y="286" type="line"/>
      <point x="668" y="130" type="line" smooth="yes"/>
      <point x="668" y="118"/>
      <point x="658" y="108"/>
      <point x="646" y="108" type="curve" smooth="yes"/>
      <point x="186" y="108" type="line" smooth="yes"/>
      <point x="174" y="108"/>
      <point x="164" y="118"/>
      <point x="164" y="130" type="curve" smooth="yes"/>
      <point x="164" y="590" type="line" smooth="yes"/>
      <point x="164" y="602"/>
      <point x="174" y="612"/>
      <point x="186" y="612" type="curve" smooth="yes"/>
      <point x="646" y="612" type="line" smooth="yes"/>
      <point x="658" y="612"/>
      <point x="668" y="602"/>
      <point x="668" y="590" type="curve" smooth="yes"/>
      <point x="668" y="547" type="line"/>
      <point x="776" y="547" type="line"/>
    </contour>
  </outline>
</glyph>
<glyph name="H" format="1">
  <advance width="851"/>
  <unicode hex="0048"/>
  <outline>
    <contour>
      <point x="686" y="720" type="line"/>
      <point x="686" y="414" type="line"/>
      <point x="165" y="414" type="line"/>
      <point x="165" y="720" type="line"/>
      <point x="57" y="720" type="line"/>
      <point x="57" y="0" type="line"/>
      <point x="165" y="0" type="line"/>
      <point x="165" y="306" type="line"/>
      <point x="686" y="306" type="line"/>
      <point x="686" y="0" type="line"/>
      <point x="794" y="0" type="line"/>
      <point x="794" y="720" type="line"/>
    </contour>
  </outline>
</glyph>
<glyph name="J" format="1">
  <advance width="780"/>
  <unicode hex="004A"/>
  <outline>
    <contour>
      <point x="616" y="130" type="line" smooth="yes"/>
      <point x="616" y="118"/>
      <point x="606" y="108"/>
      <point x="594" y="108" type="curve" smooth="yes"/>
      <point x="134" y="108" type="line" smooth="yes"/>
      <point x="122" y="108"/>
      <point x="112" y="118"/>
      <point x="112" y="130" type="curve" smooth="yes"/>
      <point x="112" y="200" type="line"/>
      <point x="4" y="200" type="line"/>
      <point x="4" y="130" type="line" smooth="yes"/>
      <point x="4" y="58"/>
      <point x="62" y="0"/>
      <point x="134" y="0" type="curve" smooth="yes"/>
      <point x="594" y="0" type="line" smooth="yes"/>
      <point x="666" y="0"/>
      <point x="724" y="58"/>
      <point x="724" y="130" type="curve" smooth="yes"/>
      <point x="724" y="720" type="line"/>
      <point x="616" y="720" type="line"/>
    </contour>
  </outline>
</glyph>
<glyph name="K" format="1">
  <advance width="797"/>
  <unicode hex="004B"/>
  <outline>
    <contour>
      <point x="622" y="720" type="line"/>
      <point x="365" y="414" type="line"/>
      <point x="165" y="414" type="line"/>
      <point x="165" y="720" type="line"/>
      <point x="57" y="720" type="line"/>
      <point x="57" y="0" type="line"/>
      <point x="165" y="0" type="line"/>
      <point x="165" y="306" type="line"/>
      <point x="365" y="306" type="line"/>
      <point x="622" y="0" type="line"/>
      <point x="750" y="0" type="line"/>
      <point x="750" y="15" type="line"/>
      <point x="461" y="360" type="line"/>
      <point x="750" y="705" type="line"/>
      <point x="750" y="720" type="line"/>
    </contour>
  </outline>
</glyph>
<glyph name="M" format="1">
  <advance width="928"/>
  <unicode hex="004D"/>
  <outline>
    <contour>
      <point x="464" y="387" type="line"/>
      <point x="184" y="720" type="line"/>
      <point x="56" y="720" type="line"/>
      <point x="56" y="0" type="line"/>
      <point x="164" y="0" type="line"/>
      <point x="164" y="576" type="line"/>
      <point x="464" y="219" type="line"/>
      <point x="764" y="576" type="line"/>
      <point x="764" y="0" type="line"/>
      <point x="872" y="0" type="line"/>
      <point x="872" y="720" type="line"/>
      <point x="743" y="720" type="line"/>
    </contour>
  </outline>
</glyph>
<glyph name="N" format="1">
  <advance width="832"/>
  <unicode hex="004E"/>
  <outline>
    <contour>
      <point x="668" y="144" type="line"/>
      <point x="184" y="720" type="line"/>
      <point x="56" y="720" type="line"/>
      <point x="56" y="0" type="line"/>
      <point x="164" y="0" type="line"/>
      <point x="164" y="576" type="line"/>
      <point x="648" y="0" type="line"/>
      <point x="776" y="0" type="line"/>
      <point x="776" y="720" type="line"/>
      <point x="668" y="720" type="line"/>
    </contour>
  </outline>
</glyph>
<glyph name="P" format="1">
  <advance width="791"/>
  <unicode hex="0050"/>
  <outline>
    <contour>
      <point x="56" y="719" type="line"/>
      <point x="56" y="0" type="line"/>
      <point x="164" y="0" type="line"/>
      <point x="164" y="259" type="line"/>
      <point x="171" y="258"/>
      <point x="178" y="257"/>
      <point x="186" y="257" type="curve" smooth="yes"/>
      <point x="646" y="257" type="line" smooth="yes"/>
      <point x="718" y="257"/>
      <point x="776" y="316"/>
      <point x="776" y="387" type="curve" smooth="yes"/>
      <point x="776" y="589" type="line" smooth="yes"/>
      <point x="776" y="660"/>
      <point x="718" y="719"/>
      <point x="646" y="719" type="curve" smooth="yes"/>
    </contour>
    <contour>
      <point x="668" y="387" type="line" smooth="yes"/>
      <point x="668" y="375"/>
      <point x="658" y="365"/>
      <point x="646" y="365" type="curve" smooth="yes"/>
      <point x="186" y="365" type="line" smooth="yes"/>
      <point x="174" y="365"/>
      <point x="164" y="375"/>
      <point x="164" y="387" type="curve" smooth="yes"/>
      <point x="164" y="589" type="line" smooth="yes"/>
      <point x="164" y="601"/>
      <point x="174" y="611"/>
      <point x="186" y="611" type="curve" smooth="yes"/>
      <point x="646" y="611" type="line" smooth="yes"/>
      <point x="658" y="611"/>
      <point x="668" y="601"/>
      <point x="668" y="589" type="curve" smooth="yes"/>
    </contour>
  </outline>
</glyph>
<glyph name="Q" format="1">
  <advance width="884"/>
  <unicode hex="0051"/>
  <outline>
    <contour>
      <point x="772" y="108" type="line"/>
      <point x="773" y="115"/>
      <point x="774" y="122"/>
      <point x="774" y="130" type="curve" smooth="yes"/>
      <point x="774" y="590" type="line" smooth="yes"/>
      <point x="774" y="662"/>
      <point x="716" y="720"/>
      <point x="644" y="720" type="curve" smooth="yes"/>
      <point x="184" y="720" type="line" smooth="yes"/>
      <point x="112" y="720"/>
      <point x="54" y="662"/>
      <point x="54" y="590" type="curve" smooth="yes"/>
      <point x="54" y="130" type="line" smooth="yes"/>
      <point x="54" y="58"/>
      <point x="112" y="0"/>
      <point x="184" y="0" type="curve" smooth="yes"/>
      <point x="864" y="0" type="line"/>
      <point x="864" y="108" type="line"/>
    </contour>
    <contour>
      <point x="184" y="108" type="line" smooth="yes"/>
      <point x="172" y="108"/>
      <point x="162" y="118"/>
      <point x="162" y="130" type="curve" smooth="yes"/>
      <point x="162" y="590" type="line" smooth="yes"/>
      <point x="162" y="602"/>
      <point x="172" y="612"/>
      <point x="184" y="612" type="curve" smooth="yes"/>
      <point x="644" y="612" type="line" smooth="yes"/>
      <point x="656" y="612"/>
      <point x="666" y="602"/>
      <point x="666" y="590" type="curve" smooth="yes"/>
      <point x="666" y="130" type="line" smooth="yes"/>
      <point x="666" y="118"/>
      <point x="656" y="108"/>
      <point x="644" y="108" type="curve" smooth="yes"/>
    </contour>
  </outline>
</glyph>
<glyph name="R" format="1">
  <advance width="825"/>
  <unicode hex="0052"/>
  <outline>
    <contour>
      <point x="775" y="589" type="line" smooth="yes"/>
      <point x="775" y="660"/>
      <point x="717" y="719"/>
      <point x="645" y="719" type="curve" smooth="yes"/>
      <point x="55" y="719" type="line"/>
      <point x="55" y="0" type="line"/>
      <point x="163" y="0" type="line"/>
      <point x="163" y="259" type="line"/>
      <point x="170" y="258"/>
      <point x="177" y="257"/>
      <point x="185" y="257" type="curve" smooth="yes"/>
      <point x="431" y="257" type="line"/>
      <point x="647" y="0" type="line"/>
      <point x="775" y="0" type="line"/>
      <point x="775" y="15" type="line"/>
      <point x="572" y="257" type="line"/>
      <point x="645" y="257" type="line" smooth="yes"/>
      <point x="717" y="257"/>
      <point x="775" y="316"/>
      <point x="775" y="387" type="curve" smooth="yes"/>
    </contour>
    <contour>
      <point x="185" y="365" type="line" smooth="yes"/>
      <point x="173" y="365"/>
      <point x="163" y="375"/>
      <point x="163" y="387" type="curve" smooth="yes"/>
      <point x="163" y="589" type="line" smooth="yes"/>
      <point x="163" y="601"/>
      <point x="173" y="611"/>
      <point x="185" y="611" type="curve" smooth="yes"/>
      <point x="645" y="611" type="line" smooth="yes"/>
      <point x="657" y="611"/>
      <point x="667" y="601"/>
      <point x="667" y="589" type="curve" smooth="yes"/>
      <point x="667" y="387" type="line" smooth="yes"/>
      <point x="667" y="375"/>
      <point x="657" y="365"/>
      <point x="645" y="365" type="curve" smooth="yes"/>
    </contour>
  </outline>
</glyph>
<glyph name="S" format="1">
  <advance width="822"/>
  <unicode hex="0053"/>
  <outline>
    <contour>
      <point x="771" y="590" type="line" smooth="yes"/>
      <point x="771" y="662"/>
      <point x="713" y="720"/>
      <point x="641" y="720" type="curve" smooth="yes"/>
      <point x="181" y="720" type="line" smooth="yes"/>
      <point x="109" y="720"/>
      <point x="51" y="662"/>
      <point x="51" y="590" type="curve" smooth="yes"/>
      <point x="51" y="436" type="line" smooth="yes"/>
      <point x="51" y="364"/>
      <point x="109" y="306"/>
      <point x="181" y="306" type="curve" smooth="yes"/>
      <point x="641" y="306" type="line" smooth="yes"/>
      <point x="653" y="306"/>
      <point x="663" y="296"/>
      <point x="663" y="284" type="curve" smooth="yes"/>
      <point x="663" y="130" type="line" smooth="yes"/>
      <point x="663" y="118"/>
      <point x="653" y="108"/>
      <point x="641" y="108" type="curve" smooth="yes"/>
      <point x="181" y="108" type="line" smooth="yes"/>
      <point x="169" y="108"/>
      <point x="159" y="118"/>
      <point x="159" y="130" type="curve" smooth="yes"/>
      <point x="159" y="172" type="line"/>
      <point x="51" y="172" type="line"/>
      <point x="51" y="130" type="line" smooth="yes"/>
      <point x="51" y="58"/>
      <point x="109" y="0"/>
      <point x="181" y="0" type="curve" smooth="yes"/>
      <point x="641" y="0" type="line" smooth="yes"/>
      <point x="713" y="0"/>
      <point x="771" y="58"/>
      <point x="771" y="130" type="curve" smooth="yes"/>
      <point x="771" y="284" type="line" smooth="yes"/>
      <point x="771" y="356"/>
      <point x="713" y="414"/>
      <point x="641" y="414" type="curve" smooth="yes"/>
      <point x="181" y="414" type="line" smooth="yes"/>
      <point x="169" y="414"/>
      <point x="159" y="424"/>
      <point x="159" y="436" type="curve" smooth="yes"/>
      <point x="159" y="590" type="line" smooth="yes"/>
      <point x="159" y="602"/>
      <point x="169" y="612"/>
      <point x="181" y="612" type="curve" smooth="yes"/>
      <point x="641" y="612" type="line" smooth="yes"/>
      <point x="653" y="612"/>
      <point x="663" y="602"/>
      <point x="663" y="590" type="curve" smooth="yes"/>
      <point x="663" y="548" type="line"/>
      <point x="771" y="548" type="line"/>
    </contour>
  </outline>
</glyph>
<glyph name="T" format="1">
  <advance width="759"/>
  <unicode hex="0054"/>
  <outline>
    <contour>
      <point x="20" y="720" type="line"/>
      <point x="20" y="612" type="line"/>
      <point x="326" y="612" type="line"/>
      <point x="326" y="0" type="line"/>
      <point x="434" y="0" type="line"/>
      <point x="434" y="612" type="line"/>
      <point x="740" y="612" type="line"/>
      <point x="740" y="720" type="line"/>
    </contour>
  </outline>
</glyph>
<glyph name="V" format="1">
  <advance width="1003"/>
  <unicode hex="0056"/>
  <outline>
    <contour>
      <point x="505" y="122" type="line"/>
      <point x="160" y="720" type="line"/>
      <point x="35" y="720" type="line"/>
      <point x="451" y="0" type="line"/>
      <point x="559" y="0" type="line"/>
      <point x="974" y="720" type="line"/>
      <point x="850" y="720" type="line"/>
    </contour>
  </outline>
</glyph>
<glyph name="W" format="1">
  <advance width="1179"/>
  <unicode hex="0057"/>
  <outline>
    <contour>
      <point x="1029" y="720" type="line"/>
      <point x="838" y="195" type="line"/>
      <point x="647" y="720" type="line"/>
      <point x="532" y="720" type="line"/>
      <point x="341" y="195" type="line"/>
      <point x="150" y="720" type="line"/>
      <point x="35" y="720" type="line"/>
      <point x="297" y="0" type="line"/>
      <point x="384" y="0" type="line"/>
      <point x="383" y="1" type="line"/>
      <point x="385" y="0" type="line"/>
      <point x="589" y="561" type="line"/>
      <point x="794" y="0" type="line"/>
      <point x="882" y="0" type="line"/>
      <point x="1144" y="720" type="line"/>
    </contour>
  </outline>
</glyph>
<glyph name="X" format="1">
  <advance width="812"/>
  <unicode hex="0058"/>
  <outline>
    <contour>
      <point x="638" y="720" type="line"/>
      <point x="406" y="444" type="line"/>
      <point x="174" y="720" type="line"/>
      <point x="46" y="720" type="line"/>
      <point x="46" y="705" type="line"/>
      <point x="335" y="360" type="line"/>
      <point x="46" y="15" type="line"/>
      <point x="46" y="0" type="line"/>
      <point x="174" y="0" type="line"/>
      <point x="406" y="276" type="line"/>
      <point x="638" y="0" type="line"/>
      <point x="766" y="0" type="line"/>
      <point x="766" y="15" type="line"/>
      <point x="476" y="360" type="line"/>
      <point x="766" y="705" type="line"/>
      <point x="766" y="720" type="line"/>
    </contour>
  </outline>
</glyph>
<glyph name="Z" format="1">
  <advance width="821"/>
  <unicode hex="005A"/>
  <outline>
    <contour>
      <point x="51" y="612" type="line"/>
      <point x="627" y="612" type="line"/>
      <point x="51" y="128" type="line"/>
      <point x="51" y="0" type="line"/>
      <point x="771" y="0" type="line"/>
      <point x="771" y="108" type="line"/>
      <point x="195" y="108" type="line"/>
      <point x="771" y="592" type="line"/>
      <point x="771" y="720" type="line"/>
      <point x="51" y="720" type="line"/>
    </contour>
  </outline>
</glyph>
<glyph name="bracketleft" format="1">
  <advance width="275"/>
  <unicode hex="005B"/>
  <outline>
    <contour>
      <point x="54" y="0" type="line"/>
      <point x="226" y="0" type="line"/>
      <point x="226" y="108" type="line"/>
      <point x="162" y="108" type="line"/>
      <point x="162" y="612" type="line"/>
      <point x="226" y="612" type="line"/>
      <point x="226" y="720" type="line"/>
      <point x="54" y="720" type="line"/>
    </contour>
  </outline>
</glyph>
<glyph name="backslash" format="1">
  <advance width="520"/>
  <unicode hex="005C"/>
  <outline>
    <contour>
      <point x="5" y="720" type="line"/>
      <point x="5" y="592" type="line"/>
      <point x="500" y="0" type="line"/>
      <point x="515" y="0" type="line"/>
      <point x="515" y="128" type="line"/>
      <point x="20" y="720" type="line"/>
    </contour>
  </outline>
</glyph>
<glyph name="bracketright" format="1">
  <advance width="276"/>
  <unicode hex="005D"/>
  <outline>
    <contour>
      <point x="51" y="612" type="line"/>
      <point x="115" y="612" type="line"/>
      <point x="115" y="108" type="line"/>
      <point x="51" y="108" type="line"/>
      <point x="51" y="0" type="line"/>
      <point x="223" y="0" type="line"/>
      <point x="223" y="720" type="line"/>
      <point x="51" y="720" type="line"/>
    </contour>
  </outline>
</glyph>
<glyph name="underscore" format="1">
  <advance width="828"/>
  <unicode hex="005F"/>
  <outline>
    <contour>
      <point x="774" y="0" type="line"/>
      <point x="54" y="0" type="line"/>
      <point x="54" y="-108" type="line"/>
      <point x="774" y="-108" type="line"/>
    </contour>
  </outline>
</glyph>
<glyph name="grave" format="1">
  <advance width="213"/>
  <unicode hex="0060"/>
  <outline>
    <contour>
      <point x="140" y="989" type="line"/>
      <point x="32" y="989" type="line"/>
      <point x="72" y="827" type="line"/>
      <point x="180" y="827" type="line"/>
    </contour>
  </outline>
</glyph>
<glyph name="c" format="1">
  <advance width="695"/>
  <unicode hex="0063"/>
  <outline>
    <contour>
      <point x="181" y="108" type="line" smooth="yes"/>
      <point x="169" y="108"/>
      <point x="159" y="118"/>
      <point x="159" y="130" type="curve" smooth="yes"/>
      <point x="159" y="450" type="line" smooth="yes"/>
      <point x="159" y="462"/>
      <point x="169" y="472"/>
      <point x="181" y="472" type="curve" smooth="yes"/>
      <point x="639" y="472" type="line"/>
      <point x="639" y="580" type="line"/>
      <point x="181" y="580" type="line" smooth="yes"/>
      <point x="109" y="580"/>
      <point x="51" y="522"/>
      <point x="51" y="450" type="curve" smooth="yes"/>
      <point x="51" y="130" type="line" smooth="yes"/>
      <point x="51" y="58"/>
      <point x="109" y="0"/>
      <point x="181" y="0" type="curve" smooth="yes"/>
      <point x="641" y="0" type="line"/>
      <point x="641" y="108" type="line"/>
    </contour>
  </outline>
</glyph>
<glyph name="d" format="1">
  <advance width="667"/>
  <unicode hex="0064"/>
  <outline>
    <contour>
      <point x="505" y="770" type="line"/>
      <point x="505" y="580" type="line"/>
      <point x="153" y="580" type="line" smooth="yes"/>
      <point x="81" y="580"/>
      <point x="23" y="522"/>
      <point x="23" y="450" type="curve" smooth="yes"/>
      <point x="23" y="130" type="line" smooth="yes"/>
      <point x="23" y="58"/>
      <point x="81" y="0"/>
      <point x="153" y="0" type="curve" smooth="yes"/>
      <point x="613" y="0" type="line"/>
      <point x="613" y="770" type="line"/>
    </contour>
    <contour>
      <point x="153" y="108" type="line" smooth="yes"/>
      <point x="141" y="108"/>
      <point x="131" y="118"/>
      <point x="131" y="130" type="curve" smooth="yes"/>
      <point x="131" y="450" type="line" smooth="yes"/>
      <point x="131" y="462"/>
      <point x="141" y="472"/>
      <point x="153" y="472" type="curve" smooth="yes"/>
      <point x="483" y="472" type="line" smooth="yes"/>
      <point x="495" y="472"/>
      <point x="505" y="462"/>
      <point x="505" y="450" type="curve" smooth="yes"/>
      <point x="505" y="130" type="line" smooth="yes"/>
      <point x="505" y="118"/>
      <point x="495" y="108"/>
      <point x="483" y="108" type="curve" smooth="yes"/>
    </contour>
  </outline>
</glyph>
<glyph name="f" format="1">
  <advance width="407"/>
  <unicode hex="0066"/>
  <outline>
    <contour>
      <point x="399" y="662" type="line"/>
      <point x="399" y="770" type="line"/>
      <point x="183" y="770" type="line" smooth="yes"/>
      <point x="111" y="770"/>
      <point x="53" y="712"/>
      <point x="53" y="640" type="curve" smooth="yes"/>
      <point x="53" y="320" type="line"/>
      <point x="53" y="320"/>
      <point x="53" y="320"/>
      <point x="53" y="320" type="curve"/>
      <point x="53" y="0" type="line"/>
      <point x="161" y="0" type="line"/>
      <point x="161" y="472" type="line"/>
      <point x="399" y="472" type="line"/>
      <point x="399" y="580" type="line"/>
      <point x="161" y="580" type="line"/>
      <point x="161" y="640" type="line" smooth="yes"/>
      <point x="161" y="652"/>
      <point x="171" y="662"/>
      <point x="183" y="662" type="curve" smooth="yes"/>
    </contour>
  </outline>
</glyph>
<glyph name="g" format="1">
  <advance width="683"/>
  <unicode hex="0067"/>
  <outline>
    <contour>
      <point x="631" y="450" type="line" smooth="yes"/>
      <point x="631" y="522"/>
      <point x="573" y="580"/>
      <point x="501" y="580" type="curve" smooth="yes"/>
      <point x="171" y="580" type="line" smooth="yes"/>
      <point x="99" y="580"/>
      <point x="41" y="522"/>
      <point x="41" y="450" type="curve" smooth="yes"/>
      <point x="41" y="130" type="line" smooth="yes"/>
      <point x="41" y="58"/>
      <point x="99" y="0"/>
      <point x="171" y="0" type="curve" smooth="yes"/>
      <point x="523" y="0" type="line"/>
      <point x="523" y="-100" type="line" smooth="yes"/>
      <point x="523" y="-112"/>
      <point x="513" y="-122"/>
      <point x="501" y="-122" type="curve" smooth="yes"/>
      <point x="143" y="-122" type="line"/>
      <point x="143" y="-230" type="line"/>
      <point x="501" y="-230" type="line" smooth="yes"/>
      <point x="573" y="-230"/>
      <point x="631" y="-172"/>
      <point x="631" y="-100" type="curve" smooth="yes"/>
      <point x="631" y="220" type="line"/>
      <point x="631" y="220"/>
      <point x="631" y="221"/>
      <point x="631" y="221" type="curve"/>
    </contour>
    <contour>
      <point x="171" y="108" type="line" smooth="yes"/>
      <point x="159" y="108"/>
      <point x="149" y="118"/>
      <point x="149" y="130" type="curve" smooth="yes"/>
      <point x="149" y="450" type="line" smooth="yes"/>
      <point x="149" y="462"/>
      <point x="159" y="472"/>
      <point x="171" y="472" type="curve" smooth="yes"/>
      <point x="501" y="472" type="line" smooth="yes"/>
      <point x="513" y="472"/>
      <point x="523" y="462"/>
      <point x="523" y="450" type="curve" smooth="yes"/>
      <point x="523" y="130" type="line" smooth="yes"/>
      <point x="523" y="118"/>
      <point x="513" y="108"/>
      <point x="501" y="108" type="curve" smooth="yes"/>
    </contour>
  </outline>
</glyph>
<glyph name="h" format="1">
  <advance width="668"/>
  <unicode hex="0068"/>
  <outline>
    <contour>
      <point x="162" y="580" type="line"/>
      <point x="162" y="770" type="line"/>
      <point x="54" y="770" type="line"/>
      <point x="54" y="0" type="line"/>
      <point x="162" y="0" type="line"/>
      <point x="162" y="450" type="line" smooth="yes"/>
      <point x="162" y="462"/>
      <point x="172" y="472"/>
      <point x="184" y="472" type="curve" smooth="yes"/>
      <point x="514" y="472" type="line" smooth="yes"/>
      <point x="526" y="472"/>
      <point x="536" y="462"/>
      <point x="536" y="450" type="curve" smooth="yes"/>
      <point x="536" y="0" type="line"/>
      <point x="644" y="0" type="line"/>
      <point x="644" y="450" type="line" smooth="yes"/>
      <point x="644" y="522"/>
      <point x="585" y="580"/>
      <point x="514" y="580" type="curve" smooth="yes"/>
    </contour>
  </outline>
</glyph>
<glyph name="j" format="1">
  <advance width="239"/>
  <unicode hex="006A"/>
  <outline>
    <contour>
      <point x="83" y="770" type="line"/>
      <point x="83" y="662" type="line"/>
      <point x="191" y="662" type="line"/>
      <point x="191" y="770" type="line"/>
    </contour>
    <contour>
      <point x="191" y="578" type="line"/>
      <point x="83" y="578" type="line"/>
      <point x="83" y="-100" type="line" smooth="yes"/>
      <point x="83" y="-112"/>
      <point x="73" y="-122"/>
      <point x="61" y="-122" type="curve" smooth="yes"/>
      <point x="-187" y="-122" type="line"/>
      <point x="-187" y="-230" type="line"/>
      <point x="61" y="-230" type="line" smooth="yes"/>
      <point x="133" y="-230"/>
      <point x="191" y="-172"/>
      <point x="191" y="-100" type="curve" smooth="yes"/>
      <point x="191" y="220" type="line"/>
      <point x="191" y="220"/>
      <point x="191" y="220"/>
      <point x="191" y="220" type="curve"/>
    </contour>
  </outline>
</glyph>
<glyph name="k" format="1">
  <advance width="646"/>
  <unicode hex="006B"/>
  <outline>
    <contour>
      <point x="509" y="580" type="line"/>
      <point x="292" y="344" type="line"/>
      <point x="162" y="344" type="line"/>
      <point x="162" y="770" type="line"/>
      <point x="54" y="770" type="line"/>
      <point x="54" y="0" type="line"/>
      <point x="162" y="0" type="line"/>
      <point x="162" y="236" type="line"/>
      <point x="292" y="236" type="line"/>
      <point x="509" y="0" type="line"/>
      <point x="637" y="0" type="line"/>
      <point x="637" y="15" type="line"/>
      <point x="388" y="290" type="line"/>
      <point x="637" y="565" type="line"/>
      <point x="637" y="580" type="line"/>
    </contour>
  </outline>
</glyph>
<glyph name="l" format="1">
  <advance width="302"/>
  <unicode hex="006C"/>
  <outline>
    <contour>
      <point x="52" y="450"/>
      <point x="52" y="450"/>
      <point x="52" y="450" type="curve"/>
      <point x="52" y="130" type="line" smooth="yes"/>
      <point x="52" y="58"/>
      <point x="110" y="0"/>
      <point x="182" y="0" type="curve" smooth="yes"/>
      <point x="290" y="0" type="line"/>
      <point x="290" y="108" type="line"/>
      <point x="182" y="108" type="line" smooth="yes"/>
      <point x="170" y="108"/>
      <point x="160" y="118"/>
      <point x="160" y="130" type="curve" smooth="yes"/>
      <point x="160" y="770" type="line"/>
      <point x="52" y="770" type="line"/>
      <point x="52" y="450" type="line"/>
    </contour>
  </outline>
</glyph>
<glyph name="m" format="1">
  <advance width="978"/>
  <unicode hex="006D"/>
  <outline>
    <contour>
      <point x="54" y="580" type="line"/>
      <point x="54" y="0" type="line"/>
      <point x="162" y="0" type="line"/>
      <point x="162" y="450" type="line" smooth="yes"/>
      <point x="162" y="462"/>
      <point x="172" y="472"/>
      <point x="184" y="472" type="curve" smooth="yes"/>
      <point x="414" y="472" type="line" smooth="yes"/>
      <point x="426" y="472"/>
      <point x="436" y="462"/>
      <point x="436" y="450" type="curve" smooth="yes"/>
      <point x="436" y="0" type="line"/>
      <point x="544" y="0" type="line"/>
      <point x="544" y="450" type="line" smooth="yes"/>
      <point x="544" y="462"/>
      <point x="554" y="472"/>
      <point x="566" y="472" type="curve" smooth="yes"/>
      <point x="795" y="472" type="line" smooth="yes"/>
      <point x="808" y="472"/>
      <point x="818" y="462"/>
      <point x="818" y="450" type="curve" smooth="yes"/>
      <point x="818" y="0" type="line"/>
      <point x="925" y="0" type="line"/>
      <point x="925" y="450" type="line" smooth="yes"/>
      <point x="925" y="522"/>
      <point x="867" y="580"/>
      <point x="795" y="580" type="curve" smooth="yes"/>
    </contour>
  </outline>
</glyph>
<glyph name="p" format="1">
  <advance width="664"/>
  <unicode hex="0070"/>
  <outline>
    <contour>
      <point x="54" y="580" type="line"/>
      <point x="54" y="-230" type="line"/>
      <point x="162" y="-230" type="line"/>
      <point x="162" y="0" type="line"/>
      <point x="514" y="0" type="line" smooth="yes"/>
      <point x="586" y="0"/>
      <point x="644" y="58"/>
      <point x="644" y="130" type="curve" smooth="yes"/>
      <point x="644" y="450" type="line" smooth="yes"/>
      <point x="644" y="522"/>
      <point x="586" y="580"/>
      <point x="514" y="580" type="curve" smooth="yes"/>
    </contour>
    <contour>
      <point x="536" y="130" type="line" smooth="yes"/>
      <point x="536" y="118"/>
      <point x="526" y="108"/>
      <point x="514" y="108" type="curve" smooth="yes"/>
      <point x="184" y="108" type="line" smooth="yes"/>
      <point x="172" y="108"/>
      <point x="162" y="118"/>
      <point x="162" y="130" type="curve" smooth="yes"/>
      <point x="162" y="450" type="line" smooth="yes"/>
      <point x="162" y="462"/>
      <point x="172" y="472"/>
      <point x="184" y="472" type="curve" smooth="yes"/>
      <point x="514" y="472" type="line" smooth="yes"/>
      <point x="526" y="472"/>
      <point x="536" y="462"/>
      <point x="536" y="450" type="curve" smooth="yes"/>
    </contour>
  </outline>
</glyph>
<glyph name="q" format="1">
  <advance width="664"/>
  <unicode hex="0071"/>
  <outline>
    <contour>
      <point x="20" y="130" type="line" smooth="yes"/>
      <point x="20" y="58"/>
      <point x="78" y="0"/>
      <point x="150" y="0" type="curve" smooth="yes"/>
      <point x="502" y="0" type="line"/>
      <point x="502" y="-230" type="line"/>
      <point x="610" y="-230" type="line"/>
      <point x="610" y="580" type="line"/>
      <point x="150" y="580" type="line" smooth="yes"/>
      <point x="78" y="580"/>
      <point x="20" y="522"/>
      <point x="20" y="450" type="curve" smooth="yes"/>
    </contour>
    <contour>
      <point x="128" y="450" type="line" smooth="yes"/>
      <point x="128" y="462"/>
      <point x="138" y="472"/>
      <point x="150" y="472" type="curve" smooth="yes"/>
      <point x="480" y="472" type="line" smooth="yes"/>
      <point x="492" y="472"/>
      <point x="502" y="462"/>
      <point x="502" y="450" type="curve" smooth="yes"/>
      <point x="502" y="130" type="line" smooth="yes"/>
      <point x="502" y="118"/>
      <point x="492" y="108"/>
      <point x="480" y="108" type="curve" smooth="yes"/>
      <point x="150" y="108" type="line" smooth="yes"/>
      <point x="138" y="108"/>
      <point x="128" y="118"/>
      <point x="128" y="130" type="curve" smooth="yes"/>
    </contour>
  </outline>
</glyph>
<glyph name="r" format="1">
  <advance width="512"/>
  <unicode hex="0072"/>
  <outline>
    <contour>
      <point x="182" y="580" type="line" smooth="yes"/>
      <point x="110" y="580"/>
      <point x="52" y="522"/>
      <point x="52" y="450" type="curve" smooth="yes"/>
      <point x="52" y="130" type="line"/>
      <point x="52" y="130"/>
      <point x="52" y="130"/>
      <point x="52" y="130" type="curve"/>
      <point x="52" y="0" type="line"/>
      <point x="160" y="0" type="line"/>
      <point x="160" y="450" type="line" smooth="yes"/>
      <point x="160" y="462"/>
      <point x="170" y="472"/>
      <point x="182" y="472" type="curve" smooth="yes"/>
      <point x="506" y="472" type="line"/>
      <point x="506" y="580" type="line"/>
    </contour>
  </outline>
</glyph>
<glyph name="s" format="1">
  <advance width="686"/>
  <unicode hex="0073"/>
  <outline>
    <contour>
      <point x="638" y="450" type="line" smooth="yes"/>
      <point x="638" y="522"/>
      <point x="580" y="580"/>
      <point x="508" y="580" type="curve" smooth="yes"/>
      <point x="178" y="580" type="line" smooth="yes"/>
      <point x="106" y="580"/>
      <point x="48" y="522"/>
      <point x="48" y="450" type="curve" smooth="yes"/>
      <point x="48" y="366" type="line" smooth="yes"/>
      <point x="48" y="294"/>
      <point x="106" y="236"/>
      <point x="178" y="236" type="curve" smooth="yes"/>
      <point x="508" y="236" type="line" smooth="yes"/>
      <point x="520" y="236"/>
      <point x="530" y="226"/>
      <point x="530" y="214" type="curve" smooth="yes"/>
      <point x="530" y="130" type="line" smooth="yes"/>
      <point x="530" y="118"/>
      <point x="520" y="108"/>
      <point x="508" y="108" type="curve" smooth="yes"/>
      <point x="178" y="108" type="line" smooth="yes"/>
      <point x="166" y="108"/>
      <point x="156" y="118"/>
      <point x="156" y="130" type="curve" smooth="yes"/>
      <point x="156" y="152" type="line"/>
      <point x="48" y="152" type="line"/>
      <point x="48" y="130" type="line" smooth="yes"/>
      <point x="48" y="58"/>
      <point x="106" y="0"/>
      <point x="178" y="0" type="curve" smooth="yes"/>
      <point x="508" y="0" type="line" smooth="yes"/>
      <point x="580" y="0"/>
      <point x="638" y="58"/>
      <point x="638" y="130" type="curve" smooth="yes"/>
      <point x="638" y="214" type="line" smooth="yes"/>
      <point x="638" y="286"/>
      <point x="580" y="344"/>
      <point x="508" y="344" type="curve" smooth="yes"/>
      <point x="178" y="344" type="line" smooth="yes"/>
      <point x="166" y="344"/>
      <point x="156" y="354"/>
      <point x="156" y="366" type="curve" smooth="yes"/>
      <point x="156" y="450" type="line" smooth="yes"/>
      <point x="156" y="462"/>
      <point x="166" y="472"/>
      <point x="178" y="472" type="curve" smooth="yes"/>
      <point x="508" y="472" type="line" smooth="yes"/>
      <point x="520" y="472"/>
      <point x="530" y="462"/>
      <point x="530" y="450" type="curve" smooth="yes"/>
      <point x="530" y="428" type="line"/>
      <point x="638" y="428" type="line"/>
    </contour>
  </outline>
</glyph>
<glyph name="t" format="1">
  <advance width="410"/>
  <unicode hex="0074"/>
  <outline>
    <contour>
      <point x="399" y="472" type="line"/>
      <point x="399" y="580" type="line"/>
      <point x="161" y="580" type="line"/>
      <point x="161" y="770" type="line"/>
      <point x="53" y="770" type="line"/>
      <point x="53" y="450" type="line"/>
      <point x="53" y="450"/>
      <point x="53" y="450"/>
      <point x="53" y="450" type="curve"/>
      <point x="53" y="130" type="line" smooth="yes"/>
      <point x="53" y="58"/>
      <point x="111" y="0"/>
      <point x="183" y="0" type="curve" smooth="yes"/>
      <point x="399" y="0" type="line"/>
      <point x="399" y="108" type="line"/>
      <point x="183" y="108" type="line" smooth="yes"/>
      <point x="171" y="108"/>
      <point x="161" y="118"/>
      <point x="161" y="130" type="curve" smooth="yes"/>
      <point x="161" y="472" type="line"/>
    </contour>
  </outline>
</glyph>
<glyph name="u" format="1">
  <advance width="695"/>
  <unicode hex="0075"/>
  <outline>
    <contour>
      <point x="535" y="580" type="line"/>
      <point x="535" y="130" type="line" smooth="yes"/>
      <point x="535" y="118"/>
      <point x="525" y="108"/>
      <point x="513" y="108" type="curve" smooth="yes"/>
      <point x="183" y="108" type="line" smooth="yes"/>
      <point x="171" y="108"/>
      <point x="161" y="118"/>
      <point x="161" y="130" type="curve" smooth="yes"/>
      <point x="161" y="580" type="line"/>
      <point x="53" y="580" type="line"/>
      <point x="53" y="130" type="line" smooth="yes"/>
      <point x="53" y="58"/>
      <point x="111" y="0"/>
      <point x="183" y="0" type="curve" smooth="yes"/>
      <point x="513" y="0" type="line" smooth="yes"/>
      <point x="585" y="0"/>
      <point x="643" y="58"/>
      <point x="643" y="130" type="curve" smooth="yes"/>
      <point x="643" y="580" type="line"/>
    </contour>
  </outline>
</glyph>
<glyph name="v" format="1">
  <advance width="790"/>
  <unicode hex="0076"/>
  <outline>
    <contour>
      <point x="645" y="580" type="line"/>
      <point x="395" y="122" type="line"/>
      <point x="146" y="580" type="line"/>
      <point x="21" y="580" type="line"/>
      <point x="341" y="0" type="line"/>
      <point x="449" y="0" type="line"/>
      <point x="769" y="580" type="line"/>
    </contour>
  </outline>
</glyph>
<glyph name="w" format="1">
  <advance width="1060"/>
  <unicode hex="0077"/>
  <outline>
    <contour>
      <point x="921" y="580" type="line"/>
      <point x="774" y="195" type="line"/>
      <point x="597" y="580" type="line"/>
      <point x="474" y="580" type="line"/>
      <point x="307" y="195" type="line"/>
      <point x="150" y="580" type="line"/>
      <point x="35" y="580" type="line"/>
      <point x="263" y="0" type="line"/>
      <point x="350" y="0" type="line"/>
      <point x="349" y="1" type="line"/>
      <point x="351" y="0" type="line"/>
      <point x="535" y="431" type="line"/>
      <point x="730" y="0" type="line"/>
      <point x="818" y="0" type="line"/>
      <point x="1036" y="580" type="line"/>
    </contour>
  </outline>
</glyph>
<glyph name="x" format="1">
  <advance width="692"/>
  <unicode hex="0078"/>
  <outline>
    <contour>
      <point x="518" y="580" type="line"/>
      <point x="346" y="379" type="line"/>
      <point x="174" y="580" type="line"/>
      <point x="46" y="580" type="line"/>
      <point x="46" y="565" type="line"/>
      <point x="275" y="295" type="line"/>
      <point x="46" y="15" type="line"/>
      <point x="46" y="0" type="line"/>
      <point x="174" y="0" type="line"/>
      <point x="346" y="211" type="line"/>
      <point x="518" y="0" type="line"/>
      <point x="646" y="0" type="line"/>
      <point x="646" y="15" type="line"/>
      <point x="416" y="295" type="line"/>
      <point x="646" y="565" type="line"/>
      <point x="646" y="580" type="line"/>
    </contour>
  </outline>
</glyph>
<glyph name="y" format="1">
  <advance width="685"/>
  <unicode hex="0079"/>
  <outline>
    <contour>
      <point x="632" y="578" type="line"/>
      <point x="524" y="578" type="line"/>
      <point x="524" y="130" type="line" smooth="yes"/>
      <point x="524" y="118"/>
      <point x="514" y="108"/>
      <point x="502" y="108" type="curve" smooth="yes"/>
      <point x="172" y="108" type="line" smooth="yes"/>
      <point x="160" y="108"/>
      <point x="150" y="118"/>
      <point x="150" y="130" type="curve" smooth="yes"/>
      <point x="150" y="578" type="line"/>
      <point x="42" y="578" type="line"/>
      <point x="42" y="130" type="line" smooth="yes"/>
      <point x="42" y="58"/>
      <point x="100" y="0"/>
      <point x="172" y="0" type="curve" smooth="yes"/>
      <point x="524" y="0" type="line"/>
      <point x="524" y="-100" type="line" smooth="yes"/>
      <point x="524" y="-112"/>
      <point x="514" y="-122"/>
      <point x="502" y="-122" type="curve" smooth="yes"/>
      <point x="144" y="-122" type="line"/>
      <point x="144" y="-230" type="line"/>
      <point x="502" y="-230" type="line" smooth="yes"/>
      <point x="574" y="-230"/>
      <point x="632" y="-172"/>
      <point x="632" y="-100" type="curve" smooth="yes"/>
      <point x="632" y="220" type="line"/>
      <point x="632" y="220"/>
      <point x="632" y="221"/>
      <point x="632" y="222" type="curve" smooth="yes"/>
    </contour>
  </outline>
</glyph>
<glyph name="z" format="1">
  <advance width="698"/>
  <unicode hex="007A"/>
  <outline>
    <contour>
      <point x="54" y="472" type="line"/>
      <point x="500" y="472" type="line"/>
      <point x="54" y="128" type="line"/>
      <point x="54" y="0" type="line"/>
      <point x="644" y="0" type="line"/>
      <point x="644" y="108" type="line"/>
      <point x="198" y="108" type="line"/>
      <point x="644" y="452" type="line"/>
      <point x="644" y="580" type="line"/>
      <point x="54" y="580" type="line"/>
    </contour>
  </outline>
</glyph>
<glyph name="braceleft" format="1">
  <advance width="289"/>
  <unicode hex="007B"/>
  <outline>
    <contour>
      <point x="175" y="308" type="line"/>
      <point x="105" y="366" type="line"/>
      <point x="175" y="421" type="line"/>
      <point x="175" y="590" type="line" smooth="yes"/>
      <point x="175" y="602"/>
      <point x="185" y="612"/>
      <point x="197" y="612" type="curve" smooth="yes"/>
      <point x="239" y="612" type="line"/>
      <point x="239" y="720" type="line"/>
      <point x="197" y="720" type="line" smooth="yes"/>
      <point x="125" y="720"/>
      <point x="67" y="662"/>
      <point x="67" y="590" type="curve" smooth="yes"/>
      <point x="67" y="445" type="line"/>
      <point x="23" y="420" type="line"/>
      <point x="23" y="312" type="line"/>
      <point x="67" y="286" type="line"/>
      <point x="67" y="130" type="line" smooth="yes"/>
      <point x="67" y="58"/>
      <point x="125" y="0"/>
      <point x="197" y="0" type="curve" smooth="yes"/>
      <point x="239" y="0" type="line"/>
      <point x="239" y="108" type="line"/>
      <point x="197" y="108" type="line" smooth="yes"/>
      <point x="185" y="108"/>
      <point x="175" y="118"/>
      <point x="175" y="130" type="curve" smooth="yes"/>
    </contour>
  </outline>
</glyph>
<glyph name="bar" format="1">
  <advance width="214"/>
  <unicode hex="007C"/>
  <outline>
    <contour>
      <point x="54" y="-109" type="line"/>
      <point x="162" y="-109" type="line"/>
      <point x="162" y="828" type="line"/>
      <point x="54" y="828" type="line"/>
    </contour>
  </outline>
</glyph>
<glyph name="braceright" format="1">
  <advance width="289"/>
  <unicode hex="007D"/>
  <outline>
    <contour>
      <point x="115" y="130" type="line" smooth="yes"/>
      <point x="115" y="118"/>
      <point x="105" y="108"/>
      <point x="93" y="108" type="curve" smooth="yes"/>
      <point x="51" y="108" type="line"/>
      <point x="51" y="0" type="line"/>
      <point x="93" y="0" type="line" smooth="yes"/>
      <point x="165" y="0"/>
      <point x="223" y="58"/>
      <point x="223" y="130" type="curve" smooth="yes"/>
      <point x="223" y="286" type="line"/>
      <point x="267" y="312" type="line"/>
      <point x="267" y="420" type="line"/>
      <point x="223" y="445" type="line"/>
      <point x="223" y="590" type="line" smooth="yes"/>
      <point x="223" y="662"/>
      <point x="165" y="720"/>
      <point x="93" y="720" type="curve" smooth="yes"/>
      <point x="51" y="720" type="line"/>
      <point x="51" y="612" type="line"/>
      <point x="93" y="612" type="line" smooth="yes"/>
      <point x="105" y="612"/>
      <point x="115" y="602"/>
      <point x="115" y="590" type="curve" smooth="yes"/>
      <point x="115" y="421" type="line"/>
      <point x="185" y="366" type="line"/>
      <point x="115" y="308" type="line"/>
    </contour>
  </outline>
</glyph>
<glyph name="asciitilde" format="1">
  <advance width="404"/>
  <unicode hex="007E"/>
  <outline>
    <contour>
      <point x="224" y="306"/>
      <point x="172" y="366"/>
      <point x="98" y="366" type="curve" smooth="yes"/>
      <point x="68" y="366"/>
      <point x="43" y="360"/>
      <point x="24" y="352" type="curve"/>
      <point x="24" y="277" type="line"/>
      <point x="37" y="298"/>
      <point x="76" y="300"/>
      <point x="98" y="300" type="curve" smooth="yes"/>
      <point x="174" y="300"/>
      <point x="227" y="232"/>
      <point x="298" y="232" type="curve" smooth="yes"/>
      <point x="329" y="232"/>
      <point x="355" y="241"/>
      <point x="376" y="250" type="curve"/>
      <point x="376" y="324" type="line"/>
      <point x="352" y="308"/>
      <point x="327" y="298"/>
      <point x="298" y="298" type="curve"/>
    </contour>
  </outline>
</glyph>
<glyph name="exclamdown" format="1">
  <advance width="210"/>
  <unicode hex="00A1"/>
  <outline>
    <contour>
      <point x="161" y="720" type="line"/>
      <point x="53" y="720" type="line"/>
      <point x="53" y="612" type="line"/>
      <point x="161" y="612" type="line"/>
    </contour>
    <contour>
      <point x="161" y="0" type="line"/>
      <point x="161" y="520" type="line"/>
      <point x="53" y="520" type="line"/>
      <point x="53" y="0" type="line"/>
    </contour>
  </outline>
</glyph>
<glyph name="cent" format="1">
  <advance width="636"/>
  <unicode hex="00A2"/>
  <outline>
    <contour>
      <point x="621" y="482" type="line"/>
      <point x="621" y="590" type="line"/>
      <point x="382" y="590" type="line"/>
      <point x="382" y="718" type="line"/>
      <point x="274" y="718" type="line"/>
      <point x="274" y="590" type="line"/>
      <point x="163" y="590" type="line" smooth="yes"/>
      <point x="91" y="590"/>
      <point x="33" y="532"/>
      <point x="33" y="460" type="curve" smooth="yes"/>
      <point x="33" y="130" type="line" smooth="yes"/>
      <point x="33" y="58"/>
      <point x="91" y="0"/>
      <point x="163" y="0" type="curve" smooth="yes"/>
      <point x="274" y="0" type="line"/>
      <point x="274" y="-109" type="line"/>
      <point x="382" y="-109" type="line"/>
      <point x="382" y="0" type="line"/>
      <point x="621" y="0" type="line"/>
      <point x="621" y="108" type="line"/>
      <point x="382" y="108" type="line"/>
      <point x="382" y="482" type="line"/>
    </contour>
    <contour>
      <point x="274" y="108" type="line"/>
      <point x="163" y="108" type="line" smooth="yes"/>
      <point x="151" y="108"/>
      <point x="141" y="118"/>
      <point x="141" y="130" type="curve" smooth="yes"/>
      <point x="141" y="460" type="line" smooth="yes"/>
      <point x="141" y="472"/>
      <point x="151" y="482"/>
      <point x="163" y="482" type="curve" smooth="yes"/>
      <point x="274" y="482" type="line"/>
    </contour>
  </outline>
</glyph>
<glyph name="sterling" format="1">
  <advance width="734"/>
  <unicode hex="00A3"/>
  <outline>
    <contour>
      <point x="687" y="560" type="line"/>
      <point x="687" y="590" type="line" smooth="yes"/>
      <point x="687" y="662"/>
      <point x="629" y="720"/>
      <point x="557" y="720" type="curve" smooth="yes"/>
      <point x="269" y="720" type="line" smooth="yes"/>
      <point x="197" y="720"/>
      <point x="139" y="662"/>
      <point x="139" y="590" type="curve" smooth="yes"/>
      <point x="139" y="414" type="line"/>
      <point x="39" y="414" type="line"/>
      <point x="39" y="306" type="line"/>
      <point x="139" y="306" type="line"/>
      <point x="139" y="108" type="line"/>
      <point x="39" y="108" type="line"/>
      <point x="39" y="0" type="line"/>
      <point x="687" y="0" type="line"/>
      <point x="687" y="108" type="line"/>
      <point x="247" y="108" type="line"/>
      <point x="247" y="306" type="line"/>
      <point x="581" y="306" type="line"/>
      <point x="581" y="414" type="line"/>
      <point x="247" y="414" type="line"/>
      <point x="247" y="590" type="line" smooth="yes"/>
      <point x="247" y="602"/>
      <point x="257" y="612"/>
      <point x="269" y="612" type="curve" smooth="yes"/>
      <point x="557" y="612" type="line" smooth="yes"/>
      <point x="569" y="612"/>
      <point x="579" y="602"/>
      <point x="579" y="590" type="curve" smooth="yes"/>
      <point x="579" y="560" type="line"/>
    </contour>
  </outline>
</glyph>
<glyph name="dieresis" format="1">
  <advance width="385"/>
  <unicode hex="00A8"/>
  <outline>
    <contour>
      <point x="332" y="935" type="line"/>
      <point x="224" y="935" type="line"/>
      <point x="224" y="827" type="line"/>
      <point x="332" y="827" type="line"/>
    </contour>
    <contour>
      <point x="162" y="935" type="line"/>
      <point x="54" y="935" type="line"/>
      <point x="54" y="827" type="line"/>
      <point x="162" y="827" type="line"/>
    </contour>
  </outline>
</glyph>
<glyph name="degree" format="1">
  <advance width="439"/>
  <unicode hex="00B0"/>
  <outline>
    <contour>
      <point x="175" y="720" type="line" smooth="yes"/>
      <point x="103" y="720"/>
      <point x="45" y="662"/>
      <point x="45" y="590" type="curve" smooth="yes"/>
      <point x="45" y="510" type="line" smooth="yes"/>
      <point x="45" y="438"/>
      <point x="103" y="380"/>
      <point x="175" y="380" type="curve" smooth="yes"/>
      <point x="265" y="380" type="line" smooth="yes"/>
      <point x="337" y="380"/>
      <point x="395" y="438"/>
      <point x="395" y="510" type="curve" smooth="yes"/>
      <point x="395" y="590" type="line" smooth="yes"/>
      <point x="395" y="662"/>
      <point x="337" y="720"/>
      <point x="265" y="720" type="curve" smooth="yes"/>
    </contour>
    <contour>
      <point x="155" y="468" type="line" smooth="yes"/>
      <point x="143" y="468"/>
      <point x="133" y="478"/>
      <point x="133" y="490" type="curve" smooth="yes"/>
      <point x="133" y="610" type="line" smooth="yes"/>
      <point x="133" y="622"/>
      <point x="143" y="632"/>
      <point x="155" y="632" type="curve" smooth="yes"/>
      <point x="285" y="632" type="line" smooth="yes"/>
      <point x="297" y="632"/>
      <point x="307" y="622"/>
      <point x="307" y="610" type="curve" smooth="yes"/>
      <point x="307" y="490" type="line" smooth="yes"/>
      <point x="307" y="478"/>
      <point x="297" y="468"/>
      <point x="285" y="468" type="curve" smooth="yes"/>
    </contour>
  </outline>
</glyph>
<glyph name="acute" format="1">
  <advance width="213"/>
  <unicode hex="00B4"/>
  <outline>
    <contour>
      <point x="33" y="827" type="line"/>
      <point x="141" y="827" type="line"/>
      <point x="181" y="989" type="line"/>
      <point x="73" y="989" type="line"/>
    </contour>
  </outline>
</glyph>
<glyph name="paragraph" format="1">
  <advance width="833"/>
  <unicode hex="00B6"/>
  <outline>
    <contour>
      <point x="56" y="387" type="line" smooth="yes"/>
      <point x="56" y="316"/>
      <point x="114" y="257"/>
      <point x="186" y="257" type="curve" smooth="yes"/>
      <point x="459" y="257" type="line"/>
      <point x="459" y="0" type="line"/>
      <point x="567" y="0" type="line"/>
      <point x="567" y="257" type="line"/>
      <point x="668" y="257" type="line"/>
      <point x="668" y="0" type="line"/>
      <point x="776" y="0" type="line"/>
      <point x="776" y="719" type="line"/>
      <point x="186" y="719" type="line" smooth="yes"/>
      <point x="114" y="719"/>
      <point x="56" y="660"/>
      <point x="56" y="589" type="curve" smooth="yes"/>
    </contour>
    <contour>
      <point x="567" y="611" type="line"/>
      <point x="668" y="611" type="line"/>
      <point x="668" y="365" type="line"/>
      <point x="567" y="365" type="line"/>
    </contour>
    <contour>
      <point x="164" y="589" type="line" smooth="yes"/>
      <point x="164" y="601"/>
      <point x="174" y="611"/>
      <point x="186" y="611" type="curve" smooth="yes"/>
      <point x="459" y="611" type="line"/>
      <point x="459" y="365" type="line"/>
      <point x="186" y="365" type="line" smooth="yes"/>
      <point x="174" y="365"/>
      <point x="164" y="375"/>
      <point x="164" y="387" type="curve" smooth="yes"/>
    </contour>
  </outline>
</glyph>
<glyph name="cedilla" format="1">
  <advance width="213"/>
  <unicode hex="00B8"/>
  <outline>
    <contour>
      <point x="33" y="-162" type="line"/>
      <point x="141" y="-162" type="line"/>
      <point x="181" y="0" type="line"/>
      <point x="73" y="0" type="line"/>
    </contour>
  </outline>
</glyph>
<glyph name="questiondown" format="1">
  <advance width="675"/>
  <unicode hex="00BF"/>
  <outline>
    <contour>
      <point x="646" y="0" type="line"/>
      <point x="646" y="0"/>
      <point x="646" y="45"/>
      <point x="646" y="108" type="curve"/>
      <point x="149" y="108" type="line" smooth="yes"/>
      <point x="137" y="108"/>
      <point x="127" y="118"/>
      <point x="127" y="130" type="curve" smooth="yes"/>
      <point x="127" y="314" type="line" smooth="yes"/>
      <point x="127" y="326"/>
      <point x="137" y="336"/>
      <point x="149" y="336" type="curve" smooth="yes"/>
      <point x="408" y="336" type="line" smooth="yes"/>
      <point x="480" y="336"/>
      <point x="538" y="394"/>
      <point x="538" y="466" type="curve" smooth="yes"/>
      <point x="538" y="527" type="line"/>
      <point x="430" y="527" type="line"/>
      <point x="430" y="466" type="line" smooth="yes"/>
      <point x="430" y="454"/>
      <point x="420" y="444"/>
      <point x="408" y="444" type="curve" smooth="yes"/>
      <point x="149" y="444" type="line" smooth="yes"/>
      <point x="77" y="444"/>
      <point x="19" y="386"/>
      <point x="19" y="314" type="curve" smooth="yes"/>
      <point x="19" y="130" type="line" smooth="yes"/>
      <point x="19" y="58"/>
      <point x="77" y="0"/>
      <point x="149" y="0" type="curve" smooth="yes"/>
    </contour>
    <contour>
      <point x="538" y="720" type="line"/>
      <point x="430" y="720" type="line"/>
      <point x="430" y="612" type="line"/>
      <point x="538" y="612" type="line"/>
    </contour>
  </outline>
</glyph>
<glyph name="Aacute" format="1">
  <advance width="836"/>
  <unicode hex="00C1"/>
  <outline>
    <contour>
      <point x="188" y="720" type="line" smooth="yes"/>
      <point x="116" y="720"/>
      <point x="58" y="662"/>
      <point x="58" y="590" type="curve" smooth="yes"/>
      <point x="58" y="0" type="line"/>
      <point x="166" y="0" type="line"/>
      <point x="166" y="252" type="line"/>
      <point x="670" y="252" type="line"/>
      <point x="670" y="0" type="line"/>
      <point x="778" y="0" type="line"/>
      <point x="778" y="590" type="line" smooth="yes"/>
      <point x="778" y="662"/>
      <point x="720" y="720"/>
      <point x="648" y="720" type="curve" smooth="yes"/>
    </contour>
    <contour>
      <point x="166" y="360" type="line"/>
      <point x="166" y="590" type="line" smooth="yes"/>
      <point x="166" y="602"/>
      <point x="176" y="612"/>
      <point x="188" y="612" type="curve" smooth="yes"/>
      <point x="648" y="612" type="line" smooth="yes"/>
      <point x="660" y="612"/>
      <point x="670" y="602"/>
      <point x="670" y="590" type="curve" smooth="yes"/>
      <point x="670" y="360" type="line"/>
    </contour>
    <contour>
      <point x="344" y="819" type="line"/>
      <point x="452" y="819" type="line"/>
      <point x="492" y="981" type="line"/>
      <point x="384" y="981" type="line"/>
    </contour>
  </outline>
</glyph>
<glyph name="Atilde" format="1">
  <advance width="836"/>
  <unicode hex="00C3"/>
  <outline>
    <contour>
      <point x="188" y="720" type="line" smooth="yes"/>
      <point x="116" y="720"/>
      <point x="58" y="662"/>
      <point x="58" y="590" type="curve" smooth="yes"/>
      <point x="58" y="0" type="line"/>
      <point x="166" y="0" type="line"/>
      <point x="166" y="252" type="line"/>
      <point x="670" y="252" type="line"/>
      <point x="670" y="0" type="line"/>
      <point x="778" y="0" type="line"/>
      <point x="778" y="590" type="line" smooth="yes"/>
      <point x="778" y="662"/>
      <point x="720" y="720"/>
      <point x="648" y="720" type="curve" smooth="yes"/>
    </contour>
    <contour>
      <point x="166" y="360" type="line"/>
      <point x="166" y="590" type="line" smooth="yes"/>
      <point x="166" y="602"/>
      <point x="176" y="612"/>
      <point x="188" y="612" type="curve" smooth="yes"/>
      <point x="648" y="612" type="line" smooth="yes"/>
      <point x="660" y="612"/>
      <point x="670" y="602"/>
      <point x="670" y="590" type="curve" smooth="yes"/>
      <point x="670" y="360" type="line"/>
    </contour>
    <contour>
      <point x="442" y="898"/>
      <point x="390" y="958"/>
      <point x="316" y="958" type="curve" smooth="yes"/>
      <point x="286" y="958"/>
      <point x="261" y="952"/>
      <point x="242" y="944" type="curve"/>
      <point x="242" y="869" type="line"/>
      <point x="255" y="890"/>
      <point x="294" y="892"/>
      <point x="316" y="892" type="curve" smooth="yes"/>
      <point x="392" y="892"/>
      <point x="445" y="824"/>
      <point x="516" y="824" type="curve" smooth="yes"/>
      <point x="547" y="824"/>
      <point x="573" y="833"/>
      <point x="594" y="842" type="curve"/>
      <point x="594" y="916" type="line"/>
      <point x="570" y="900"/>
      <point x="545" y="890"/>
      <point x="516" y="890" type="curve"/>
    </contour>
  </outline>
</glyph>
<glyph name="Aring" format="1">
  <advance width="836"/>
  <unicode hex="00C5"/>
  <outline>
    <contour>
      <point x="188" y="720" type="line" smooth="yes"/>
      <point x="116" y="720"/>
      <point x="58" y="662"/>
      <point x="58" y="590" type="curve" smooth="yes"/>
      <point x="58" y="0" type="line"/>
      <point x="166" y="0" type="line"/>
      <point x="166" y="252" type="line"/>
      <point x="670" y="252" type="line"/>
      <point x="670" y="0" type="line"/>
      <point x="778" y="0" type="line"/>
      <point x="778" y="590" type="line" smooth="yes"/>
      <point x="778" y="662"/>
      <point x="720" y="720"/>
      <point x="648" y="720" type="curve" smooth="yes"/>
    </contour>
    <contour>
      <point x="166" y="360" type="line"/>
      <point x="166" y="590" type="line" smooth="yes"/>
      <point x="166" y="602"/>
      <point x="176" y="612"/>
      <point x="188" y="612" type="curve" smooth="yes"/>
      <point x="648" y="612" type="line" smooth="yes"/>
      <point x="660" y="612"/>
      <point x="670" y="602"/>
      <point x="670" y="590" type="curve" smooth="yes"/>
      <point x="670" y="360" type="line"/>
    </contour>
    <contour>
      <point x="390" y="981" type="line" smooth="yes"/>
      <point x="360" y="981"/>
      <point x="336" y="957"/>
      <point x="336" y="928" type="curve" smooth="yes"/>
      <point x="336" y="874" type="line" smooth="yes"/>
      <point x="336" y="845"/>
      <point x="360" y="821"/>
      <point x="390" y="821" type="curve" smooth="yes"/>
      <point x="446" y="821" type="line" smooth="yes"/>
      <point x="476" y="821"/>
      <point x="500" y="845"/>
      <point x="500" y="874" type="curve" smooth="yes"/>
      <point x="500" y="928" type="line" smooth="yes"/>
      <point x="500" y="957"/>
      <point x="476" y="981"/>
      <point x="446" y="981" type="curve" smooth="yes"/>
    </contour>
    <contour>
      <point x="385" y="861" type="line" smooth="yes"/>
      <point x="380" y="861"/>
      <point x="376" y="865"/>
      <point x="376" y="871" type="curve" smooth="yes"/>
      <point x="376" y="931" type="line" smooth="yes"/>
      <point x="376" y="937"/>
      <point x="380" y="941"/>
      <point x="385" y="941" type="curve" smooth="yes"/>
      <point x="451" y="941" type="line" smooth="yes"/>
      <point x="456" y="941"/>
      <point x="460" y="937"/>
      <point x="460" y="931" type="curve" smooth="yes"/>
      <point x="460" y="871" type="line" smooth="yes"/>
      <point x="460" y="865"/>
      <point x="456" y="861"/>
      <point x="451" y="861" type="curve" smooth="yes"/>
    </contour>
  </outline>
</glyph>
<glyph name="AE" format="1">
  <advance width="1375"/>
  <unicode hex="00C6"/>
  <outline>
    <contour>
      <point x="774" y="612" type="line"/>
      <point x="1326" y="612" type="line"/>
      <point x="1326" y="720" type="line"/>
      <point x="184" y="720" type="line" smooth="yes"/>
      <point x="112" y="720"/>
      <point x="54" y="662"/>
      <point x="54" y="590" type="curve" smooth="yes"/>
      <point x="54" y="0" type="line"/>
      <point x="162" y="0" type="line"/>
      <point x="162" y="252" type="line"/>
      <point x="666" y="252" type="line"/>
      <point x="666" y="0" type="line"/>
      <point x="1326" y="0" type="line"/>
      <point x="1326" y="108" type="line"/>
      <point x="774" y="108" type="line"/>
      <point x="774" y="306" type="line"/>
      <point x="1218" y="306" type="line"/>
      <point x="1218" y="414" type="line"/>
      <point x="774" y="414" type="line"/>
    </contour>
    <contour>
      <point x="666" y="360" type="line"/>
      <point x="162" y="360" type="line"/>
      <point x="162" y="590" type="line" smooth="yes"/>
      <point x="162" y="602"/>
      <point x="172" y="612"/>
      <point x="184" y="612" type="curve" smooth="yes"/>
      <point x="644" y="612" type="line" smooth="yes"/>
      <point x="656" y="612"/>
      <point x="666" y="602"/>
      <point x="666" y="590" type="curve" smooth="yes"/>
    </contour>
  </outline>
</glyph>
<glyph name="Ecircumflex" format="1">
  <advance width="766"/>
  <unicode hex="00CA"/>
  <outline>
    <contour>
      <point x="718" y="720" type="line"/>
      <point x="58" y="720" type="line"/>
      <point x="58" y="0" type="line"/>
      <point x="718" y="0" type="line"/>
      <point x="718" y="108" type="line"/>
      <point x="166" y="108" type="line"/>
      <point x="166" y="306" type="line"/>
      <point x="610" y="306" type="line"/>
      <point x="610" y="414" type="line"/>
      <point x="166" y="414" type="line"/>
      <point x="166" y="612" type="line"/>
      <point x="718" y="612" type="line"/>
    </contour>
    <contour>
      <point x="335" y="819" type="line"/>
      <point x="383" y="895" type="line"/>
      <point x="430" y="819" type="line"/>
      <point x="505" y="819" type="line"/>
      <point x="420" y="960" type="line"/>
      <point x="346" y="960" type="line"/>
      <point x="261" y="819" type="line"/>
    </contour>
  </outline>
</glyph>
<glyph name="Edieresis" format="1">
  <advance width="766"/>
  <unicode hex="00CB"/>
  <outline>
    <contour>
      <point x="718" y="720" type="line"/>
      <point x="58" y="720" type="line"/>
      <point x="58" y="0" type="line"/>
      <point x="718" y="0" type="line"/>
      <point x="718" y="108" type="line"/>
      <point x="166" y="108" type="line"/>
      <point x="166" y="306" type="line"/>
      <point x="610" y="306" type="line"/>
      <point x="610" y="414" type="line"/>
      <point x="166" y="414" type="line"/>
      <point x="166" y="612" type="line"/>
      <point x="718" y="612" type="line"/>
    </contour>
    <contour>
      <point x="522" y="928" type="line"/>
      <point x="414" y="928" type="line"/>
      <point x="414" y="820" type="line"/>
      <point x="522" y="820" type="line"/>
    </contour>
    <contour>
      <point x="352" y="928" type="line"/>
      <point x="244" y="928" type="line"/>
      <point x="244" y="820" type="line"/>
      <point x="352" y="820" type="line"/>
    </contour>
  </outline>
</glyph>
<glyph name="Igrave" format="1">
  <advance width="220"/>
  <unicode hex="00CC"/>
  <outline>
    <contour>
      <point x="57" y="0" type="line"/>
      <point x="165" y="0" type="line"/>
      <point x="165" y="720" type="line"/>
      <point x="57" y="720" type="line"/>
    </contour>
    <contour>
      <point x="144" y="982" type="line"/>
      <point x="36" y="982" type="line"/>
      <point x="76" y="820" type="line"/>
      <point x="184" y="820" type="line"/>
    </contour>
  </outline>
</glyph>
<glyph name="Iacute" format="1">
  <advance width="220"/>
  <unicode hex="00CD"/>
  <outline>
    <contour>
      <point x="57" y="0" type="line"/>
      <point x="165" y="0" type="line"/>
      <point x="165" y="720" type="line"/>
      <point x="57" y="720" type="line"/>
    </contour>
    <contour>
      <point x="36" y="820" type="line"/>
      <point x="144" y="820" type="line"/>
      <point x="184" y="982" type="line"/>
      <point x="76" y="982" type="line"/>
    </contour>
  </outline>
</glyph>
<glyph name="Icircumflex" format="1">
  <advance width="220"/>
  <unicode hex="00CE"/>
  <outline>
    <contour>
      <point x="57" y="0" type="line"/>
      <point x="165" y="0" type="line"/>
      <point x="165" y="720" type="line"/>
      <point x="57" y="720" type="line"/>
    </contour>
    <contour>
      <point x="62" y="819" type="line"/>
      <point x="110" y="895" type="line"/>
      <point x="157" y="819" type="line"/>
      <point x="232" y="819" type="line"/>
      <point x="147" y="960" type="line"/>
      <point x="73" y="960" type="line"/>
      <point x="-12" y="819" type="line"/>
    </contour>
  </outline>
</glyph>
<glyph name="Idieresis" format="1">
  <advance width="220"/>
  <unicode hex="00CF"/>
  <outline>
    <contour>
      <point x="57" y="0" type="line"/>
      <point x="165" y="0" type="line"/>
      <point x="165" y="720" type="line"/>
      <point x="57" y="720" type="line"/>
    </contour>
    <contour>
      <point x="249" y="928" type="line"/>
      <point x="141" y="928" type="line"/>
      <point x="141" y="820" type="line"/>
      <point x="249" y="820" type="line"/>
    </contour>
    <contour>
      <point x="79" y="928" type="line"/>
      <point x="-29" y="928" type="line"/>
      <point x="-29" y="820" type="line"/>
      <point x="79" y="820" type="line"/>
    </contour>
  </outline>
</glyph>
<glyph name="Ntilde" format="1">
  <advance width="832"/>
  <unicode hex="00D1"/>
  <outline>
    <contour>
      <point x="668" y="144" type="line"/>
      <point x="184" y="720" type="line"/>
      <point x="56" y="720" type="line"/>
      <point x="56" y="0" type="line"/>
      <point x="164" y="0" type="line"/>
      <point x="164" y="576" type="line"/>
      <point x="648" y="0" type="line"/>
      <point x="776" y="0" type="line"/>
      <point x="776" y="720" type="line"/>
      <point x="668" y="720" type="line"/>
    </contour>
    <contour>
      <point x="440" y="898"/>
      <point x="388" y="958"/>
      <point x="314" y="958" type="curve" smooth="yes"/>
      <point x="284" y="958"/>
      <point x="259" y="952"/>
      <point x="240" y="944" type="curve"/>
      <point x="240" y="869" type="line"/>
      <point x="253" y="890"/>
      <point x="292" y="892"/>
      <point x="314" y="892" type="curve" smooth="yes"/>
      <point x="390" y="892"/>
      <point x="443" y="824"/>
      <point x="514" y="824" type="curve" smooth="yes"/>
      <point x="545" y="824"/>
      <point x="571" y="833"/>
      <point x="592" y="842" type="curve"/>
      <point x="592" y="916" type="line"/>
      <point x="568" y="900"/>
      <point x="543" y="890"/>
      <point x="514" y="890" type="curve"/>
    </contour>
  </outline>
</glyph>
<glyph name="Oacute" format="1">
  <advance width="828"/>
  <unicode hex="00D3"/>
  <outline>
    <contour>
      <point x="184" y="720" type="line" smooth="yes"/>
      <point x="112" y="720"/>
      <point x="54" y="662"/>
      <point x="54" y="590" type="curve" smooth="yes"/>
      <point x="54" y="130" type="line" smooth="yes"/>
      <point x="54" y="58"/>
      <point x="112" y="0"/>
      <point x="184" y="0" type="curve" smooth="yes"/>
      <point x="644" y="0" type="line" smooth="yes"/>
      <point x="716" y="0"/>
      <point x="774" y="58"/>
      <point x="774" y="130" type="curve" smooth="yes"/>
      <point x="774" y="590" type="line" smooth="yes"/>
      <point x="774" y="662"/>
      <point x="716" y="720"/>
      <point x="644" y="720" type="curve" smooth="yes"/>
    </contour>
    <contour>
      <point x="184" y="108" type="line" smooth="yes"/>
      <point x="172" y="108"/>
      <point x="162" y="118"/>
      <point x="162" y="130" type="curve" smooth="yes"/>
      <point x="162" y="590" type="line" smooth="yes"/>
      <point x="162" y="602"/>
      <point x="172" y="612"/>
      <point x="184" y="612" type="curve" smooth="yes"/>
      <point x="644" y="612" type="line" smooth="yes"/>
      <point x="656" y="612"/>
      <point x="666" y="602"/>
      <point x="666" y="590" type="curve" smooth="yes"/>
      <point x="666" y="130" type="line" smooth="yes"/>
      <point x="666" y="118"/>
      <point x="656" y="108"/>
      <point x="644" y="108" type="curve" smooth="yes"/>
    </contour>
    <contour>
      <point x="340" y="820" type="line"/>
      <point x="448" y="820" type="line"/>
      <point x="488" y="982" type="line"/>
      <point x="380" y="982" type="line"/>
    </contour>
  </outline>
</glyph>
<glyph name="Otilde" format="1">
  <advance width="828"/>
  <unicode hex="00D5"/>
  <outline>
    <contour>
      <point x="184" y="720" type="line" smooth="yes"/>
      <point x="112" y="720"/>
      <point x="54" y="662"/>
      <point x="54" y="590" type="curve" smooth="yes"/>
      <point x="54" y="130" type="line" smooth="yes"/>
      <point x="54" y="58"/>
      <point x="112" y="0"/>
      <point x="184" y="0" type="curve" smooth="yes"/>
      <point x="644" y="0" type="line" smooth="yes"/>
      <point x="716" y="0"/>
      <point x="774" y="58"/>
      <point x="774" y="130" type="curve" smooth="yes"/>
      <point x="774" y="590" type="line" smooth="yes"/>
      <point x="774" y="662"/>
      <point x="716" y="720"/>
      <point x="644" y="720" type="curve" smooth="yes"/>
    </contour>
    <contour>
      <point x="184" y="108" type="line" smooth="yes"/>
      <point x="172" y="108"/>
      <point x="162" y="118"/>
      <point x="162" y="130" type="curve" smooth="yes"/>
      <point x="162" y="590" type="line" smooth="yes"/>
      <point x="162" y="602"/>
      <point x="172" y="612"/>
      <point x="184" y="612" type="curve" smooth="yes"/>
      <point x="644" y="612" type="line" smooth="yes"/>
      <point x="656" y="612"/>
      <point x="666" y="602"/>
      <point x="666" y="590" type="curve" smooth="yes"/>
      <point x="666" y="130" type="line" smooth="yes"/>
      <point x="666" y="118"/>
      <point x="656" y="108"/>
      <point x="644" y="108" type="curve" smooth="yes"/>
    </contour>
    <contour>
      <point x="438" y="898"/>
      <point x="386" y="958"/>
      <point x="312" y="958" type="curve" smooth="yes"/>
      <point x="282" y="958"/>
      <point x="257" y="952"/>
      <point x="238" y="944" type="curve"/>
      <point x="238" y="869" type="line"/>
      <point x="251" y="890"/>
      <point x="290" y="892"/>
      <point x="312" y="892" type="curve" smooth="yes"/>
      <point x="388" y="892"/>
      <point x="441" y="824"/>
      <point x="512" y="824" type="curve" smooth="yes"/>
      <point x="543" y="824"/>
      <point x="569" y="833"/>
      <point x="590" y="842" type="curve"/>
      <point x="590" y="916" type="line"/>
      <point x="566" y="900"/>
      <point x="541" y="890"/>
      <point x="512" y="890" type="curve"/>
    </contour>
  </outline>
</glyph>
<glyph name="multiply" format="1">
  <advance width="546"/>
  <unicode hex="00D7"/>
  <outline>
    <contour>
      <point x="493" y="510" type="line"/>
      <point x="365" y="510" type="line"/>
      <point x="273" y="384" type="line"/>
      <point x="181" y="510" type="line"/>
      <point x="53" y="510" type="line"/>
      <point x="53" y="495" type="line"/>
      <point x="202" y="300" type="line"/>
      <point x="53" y="105" type="line"/>
      <point x="53" y="90" type="line"/>
      <point x="181" y="90" type="line"/>
      <point x="273" y="216" type="line"/>
      <point x="365" y="90" type="line"/>
      <point x="493" y="90" type="line"/>
      <point x="493" y="105" type="line"/>
      <point x="343" y="300" type="line"/>
      <point x="493" y="495" type="line"/>
    </contour>
  </outline>
</glyph>
<glyph name="Ugrave" format="1">
  <advance width="828"/>
  <unicode hex="00D9"/>
  <outline>
    <contour>
      <point x="666" y="130" type="line" smooth="yes"/>
      <point x="666" y="118"/>
      <point x="656" y="108"/>
      <point x="644" y="108" type="curve" smooth="yes"/>
      <point x="184" y="108" type="line" smooth="yes"/>
      <point x="172" y="108"/>
      <point x="162" y="118"/>
      <point x="162" y="130" type="curve" smooth="yes"/>
      <point x="162" y="720" type="line"/>
      <point x="54" y="720" type="line"/>
      <point x="54" y="130" type="line" smooth="yes"/>
      <point x="54" y="58"/>
      <point x="112" y="0"/>
      <point x="184" y="0" type="curve" smooth="yes"/>
      <point x="644" y="0" type="line" smooth="yes"/>
      <point x="716" y="0"/>
      <point x="774" y="58"/>
      <point x="774" y="130" type="curve" smooth="yes"/>
      <point x="774" y="720" type="line"/>
      <point x="666" y="720" type="line"/>
    </contour>
    <contour>
      <point x="448" y="982" type="line"/>
      <point x="340" y="982" type="line"/>
      <point x="380" y="820" type="line"/>
      <point x="488" y="820" type="line"/>
    </contour>
  </outline>
</glyph>
<glyph name="Ucircumflex" format="1">
  <advance width="828"/>
  <unicode hex="00DB"/>
  <outline>
    <contour>
      <point x="666" y="130" type="line" smooth="yes"/>
      <point x="666" y="118"/>
      <point x="656" y="108"/>
      <point x="644" y="108" type="curve" smooth="yes"/>
      <point x="184" y="108" type="line" smooth="yes"/>
      <point x="172" y="108"/>
      <point x="162" y="118"/>
      <point x="162" y="130" type="curve" smooth="yes"/>
      <point x="162" y="720" type="line"/>
      <point x="54" y="720" type="line"/>
      <point x="54" y="130" type="line" smooth="yes"/>
      <point x="54" y="58"/>
      <point x="112" y="0"/>
      <point x="184" y="0" type="curve" smooth="yes"/>
      <point x="644" y="0" type="line" smooth="yes"/>
      <point x="716" y="0"/>
      <point x="774" y="58"/>
      <point x="774" y="130" type="curve" smooth="yes"/>
      <point x="774" y="720" type="line"/>
      <point x="666" y="720" type="line"/>
    </contour>
    <contour>
      <point x="366" y="819" type="line"/>
      <point x="414" y="895" type="line"/>
      <point x="461" y="819" type="line"/>
      <point x="536" y="819" type="line"/>
      <point x="451" y="960" type="line"/>
      <point x="377" y="960" type="line"/>
      <point x="292" y="819" type="line"/>
    </contour>
  </outline>
</glyph>
<glyph name="Udieresis" format="1">
  <advance width="828"/>
  <unicode hex="00DC"/>
  <outline>
    <contour>
      <point x="666" y="130" type="line" smooth="yes"/>
      <point x="666" y="118"/>
      <point x="656" y="108"/>
      <point x="644" y="108" type="curve" smooth="yes"/>
      <point x="184" y="108" type="line" smooth="yes"/>
      <point x="172" y="108"/>
      <point x="162" y="118"/>
      <point x="162" y="130" type="curve" smooth="yes"/>
      <point x="162" y="720" type="line"/>
      <point x="54" y="720" type="line"/>
      <point x="54" y="130" type="line" smooth="yes"/>
      <point x="54" y="58"/>
      <point x="112" y="0"/>
      <point x="184" y="0" type="curve" smooth="yes"/>
      <point x="644" y="0" type="line" smooth="yes"/>
      <point x="716" y="0"/>
      <point x="774" y="58"/>
      <point x="774" y="130" type="curve" smooth="yes"/>
      <point x="774" y="720" type="line"/>
      <point x="666" y="720" type="line"/>
    </contour>
    <contour>
      <point x="553" y="928" type="line"/>
      <point x="445" y="928" type="line"/>
      <point x="445" y="820" type="line"/>
      <point x="553" y="820" type="line"/>
    </contour>
    <contour>
      <point x="383" y="928" type="line"/>
      <point x="275" y="928" type="line"/>
      <point x="275" y="820" type="line"/>
      <point x="383" y="820" type="line"/>
    </contour>
  </outline>
</glyph>
<glyph name="Yacute" format="1">
  <advance width="806"/>
  <unicode hex="00DD"/>
  <outline>
    <contour>
      <point x="661" y="720" type="line"/>
      <point x="403" y="392" type="line"/>
      <point x="144" y="720" type="line"/>
      <point x="17" y="720" type="line"/>
      <point x="349" y="270" type="line"/>
      <point x="349" y="0" type="line"/>
      <point x="457" y="0" type="line"/>
      <point x="457" y="270" type="line"/>
      <point x="789" y="720" type="line"/>
    </contour>
    <contour>
      <point x="329" y="820" type="line"/>
      <point x="437" y="820" type="line"/>
      <point x="477" y="982" type="line"/>
      <point x="369" y="982" type="line"/>
    </contour>
  </outline>
</glyph>
<glyph name="germandbls" format="1">
  <advance width="833"/>
  <unicode hex="00DF"/>
  <outline>
    <contour>
      <point x="777" y="612" type="line"/>
      <point x="766" y="673"/>
      <point x="711" y="720"/>
      <point x="647" y="720" type="curve" smooth="yes"/>
      <point x="187" y="720" type="line" smooth="yes"/>
      <point x="115" y="720"/>
      <point x="57" y="662"/>
      <point x="57" y="590" type="curve" smooth="yes"/>
      <point x="57" y="0" type="line"/>
      <point x="165" y="0" type="line"/>
      <point x="165" y="589" type="line" smooth="yes"/>
      <point x="165" y="601"/>
      <point x="175" y="611"/>
      <point x="187" y="611" type="curve" smooth="yes"/>
      <point x="647" y="611" type="line" smooth="yes"/>
      <point x="659" y="611"/>
      <point x="669" y="601"/>
      <point x="669" y="589" type="curve" smooth="yes"/>
      <point x="669" y="435" type="line" smooth="yes"/>
      <point x="669" y="423"/>
      <point x="659" y="413"/>
      <point x="647" y="413" type="curve" smooth="yes"/>
      <point x="273" y="413" type="line"/>
      <point x="273" y="316" type="line"/>
      <point x="647" y="316" type="line" smooth="yes"/>
      <point x="659" y="316"/>
      <point x="669" y="306"/>
      <point x="669" y="294" type="curve" smooth="yes"/>
      <point x="669" y="130" type="line" smooth="yes"/>
      <point x="669" y="118"/>
      <point x="659" y="108"/>
      <point x="647" y="108" type="curve" smooth="yes"/>
      <point x="273" y="108" type="line"/>
      <point x="273" y="0" type="line"/>
      <point x="647" y="0" type="line" smooth="yes"/>
      <point x="719" y="0"/>
      <point x="777" y="58"/>
      <point x="777" y="130" type="curve" smooth="yes"/>
      <point x="777" y="294" type="line" smooth="yes"/>
      <point x="777" y="322"/>
      <point x="768" y="349"/>
      <point x="752" y="370" type="curve"/>
      <point x="768" y="391"/>
      <point x="777" y="418"/>
      <point x="777" y="446" type="curve" smooth="yes"/>
    </contour>
  </outline>
</glyph>
<glyph name="aacute" format="1">
  <advance width="725"/>
  <unicode hex="00E1"/>
  <outline>
    <contour>
      <point x="52" y="580" type="line"/>
      <point x="52" y="472" type="line"/>
      <point x="512" y="472" type="line" smooth="yes"/>
      <point x="524" y="472"/>
      <point x="534" y="462"/>
      <point x="534" y="450" type="curve" smooth="yes"/>
      <point x="534" y="344" type="line"/>
      <point x="52" y="344" type="line"/>
      <point x="52" y="130" type="line" smooth="yes"/>
      <point x="52" y="58"/>
      <point x="110" y="0"/>
      <point x="182" y="0" type="curve" smooth="yes"/>
      <point x="642" y="0" type="line"/>
      <point x="642" y="450" type="line" smooth="yes"/>
      <point x="642" y="522"/>
      <point x="584" y="580"/>
      <point x="512" y="580" type="curve" smooth="yes"/>
    </contour>
    <contour>
      <point x="534" y="108" type="line"/>
      <point x="182" y="108" type="line" smooth="yes"/>
      <point x="170" y="108"/>
      <point x="160" y="118"/>
      <point x="160" y="130" type="curve" smooth="yes"/>
      <point x="160" y="236" type="line"/>
      <point x="534" y="236" type="line"/>
    </contour>
    <contour>
      <point x="288" y="718" type="line"/>
      <point x="396" y="718" type="line"/>
      <point x="436" y="880" type="line"/>
      <point x="328" y="880" type="line"/>
    </contour>
  </outline>
</glyph>
<glyph name="acircumflex" format="1">
  <advance width="725"/>
  <unicode hex="00E2"/>
  <outline>
    <contour>
      <point x="52" y="580" type="line"/>
      <point x="52" y="472" type="line"/>
      <point x="512" y="472" type="line" smooth="yes"/>
      <point x="524" y="472"/>
      <point x="534" y="462"/>
      <point x="534" y="450" type="curve" smooth="yes"/>
      <point x="534" y="344" type="line"/>
      <point x="52" y="344" type="line"/>
      <point x="52" y="130" type="line" smooth="yes"/>
      <point x="52" y="58"/>
      <point x="110" y="0"/>
      <point x="182" y="0" type="curve" smooth="yes"/>
      <point x="642" y="0" type="line"/>
      <point x="642" y="450" type="line" smooth="yes"/>
      <point x="642" y="522"/>
      <point x="584" y="580"/>
      <point x="512" y="580" type="curve" smooth="yes"/>
    </contour>
    <contour>
      <point x="534" y="108" type="line"/>
      <point x="182" y="108" type="line" smooth="yes"/>
      <point x="170" y="108"/>
      <point x="160" y="118"/>
      <point x="160" y="130" type="curve" smooth="yes"/>
      <point x="160" y="236" type="line"/>
      <point x="534" y="236" type="line"/>
    </contour>
    <contour>
      <point x="314" y="718" type="line"/>
      <point x="362" y="794" type="line"/>
      <point x="409" y="718" type="line"/>
      <point x="484" y="718" type="line"/>
      <point x="399" y="859" type="line"/>
      <point x="325" y="859" type="line"/>
      <point x="240" y="718" type="line"/>
    </contour>
  </outline>
</glyph>
<glyph name="atilde" format="1">
  <advance width="725"/>
  <unicode hex="00E3"/>
  <outline>
    <contour>
      <point x="52" y="580" type="line"/>
      <point x="52" y="472" type="line"/>
      <point x="512" y="472" type="line" smooth="yes"/>
      <point x="524" y="472"/>
      <point x="534" y="462"/>
      <point x="534" y="450" type="curve" smooth="yes"/>
      <point x="534" y="344" type="line"/>
      <point x="52" y="344" type="line"/>
      <point x="52" y="130" type="line" smooth="yes"/>
      <point x="52" y="58"/>
      <point x="110" y="0"/>
      <point x="182" y="0" type="curve" smooth="yes"/>
      <point x="642" y="0" type="line"/>
      <point x="642" y="450" type="line" smooth="yes"/>
      <point x="642" y="522"/>
      <point x="584" y="580"/>
      <point x="512" y="580" type="curve" smooth="yes"/>
    </contour>
    <contour>
      <point x="534" y="108" type="line"/>
      <point x="182" y="108" type="line" smooth="yes"/>
      <point x="170" y="108"/>
      <point x="160" y="118"/>
      <point x="160" y="130" type="curve" smooth="yes"/>
      <point x="160" y="236" type="line"/>
      <point x="534" y="236" type="line"/>
    </contour>
    <contour>
      <point x="386" y="795"/>
      <point x="334" y="855"/>
      <point x="260" y="855" type="curve" smooth="yes"/>
      <point x="230" y="855"/>
      <point x="205" y="849"/>
      <point x="186" y="841" type="curve"/>
      <point x="186" y="766" type="line"/>
      <point x="199" y="787"/>
      <point x="238" y="789"/>
      <point x="260" y="789" type="curve" smooth="yes"/>
      <point x="336" y="789"/>
      <point x="389" y="721"/>
      <point x="460" y="721" type="curve" smooth="yes"/>
      <point x="491" y="721"/>
      <point x="517" y="730"/>
      <point x="538" y="739" type="curve"/>
      <point x="538" y="813" type="line"/>
      <point x="514" y="797"/>
      <point x="489" y="787"/>
      <point x="460" y="787" type="curve"/>
    </contour>
  </outline>
</glyph>
<glyph name="aring" format="1">
  <advance width="725"/>
  <unicode hex="00E5"/>
  <outline>
    <contour>
      <point x="52" y="580" type="line"/>
      <point x="52" y="472" type="line"/>
      <point x="512" y="472" type="line" smooth="yes"/>
      <point x="524" y="472"/>
      <point x="534" y="462"/>
      <point x="534" y="450" type="curve" smooth="yes"/>
      <point x="534" y="344" type="line"/>
      <point x="52" y="344" type="line"/>
      <point x="52" y="130" type="line" smooth="yes"/>
      <point x="52" y="58"/>
      <point x="110" y="0"/>
      <point x="182" y="0" type="curve" smooth="yes"/>
      <point x="642" y="0" type="line"/>
      <point x="642" y="450" type="line" smooth="yes"/>
      <point x="642" y="522"/>
      <point x="584" y="580"/>
      <point x="512" y="580" type="curve" smooth="yes"/>
    </contour>
    <contour>
      <point x="534" y="108" type="line"/>
      <point x="182" y="108" type="line" smooth="yes"/>
      <point x="170" y="108"/>
      <point x="160" y="118"/>
      <point x="160" y="130" type="curve" smooth="yes"/>
      <point x="160" y="236" type="line"/>
      <point x="534" y="236" type="line"/>
    </contour>
    <contour>
      <point x="334" y="878" type="line" smooth="yes"/>
      <point x="304" y="878"/>
      <point x="280" y="854"/>
      <point x="280" y="825" type="curve" smooth="yes"/>
      <point x="280" y="771" type="line" smooth="yes"/>
      <point x="280" y="742"/>
      <point x="304" y="718"/>
      <point x="334" y="718" type="curve" smooth="yes"/>
      <point x="390" y="718" type="line" smooth="yes"/>
      <point x="420" y="718"/>
      <point x="444" y="742"/>
      <point x="444" y="771" type="curve" smooth="yes"/>
      <point x="444" y="825" type="line" smooth="yes"/>
      <point x="444" y="854"/>
      <point x="420" y="878"/>
      <point x="390" y="878" type="curve" smooth="yes"/>
    </contour>
    <contour>
      <point x="329" y="758" type="line" smooth="yes"/>
      <point x="324" y="758"/>
      <point x="320" y="762"/>
      <point x="320" y="768" type="curve" smooth="yes"/>
      <point x="320" y="828" type="line" smooth="yes"/>
      <point x="320" y="834"/>
      <point x="324" y="838"/>
      <point x="329" y="838" type="curve" smooth="yes"/>
      <point x="395" y="838" type="line" smooth="yes"/>
      <point x="400" y="838"/>
      <point x="404" y="834"/>
      <point x="404" y="828" type="curve" smooth="yes"/>
      <point x="404" y="768" type="line" smooth="yes"/>
      <point x="404" y="762"/>
      <point x="400" y="758"/>
      <point x="395" y="758" type="curve" smooth="yes"/>
    </contour>
  </outline>
</glyph>
<glyph name="ae" format="1">
  <advance width="1178"/>
  <unicode hex="00E6"/>
  <outline>
    <contour>
      <point x="53" y="580" type="line"/>
      <point x="53" y="472" type="line"/>
      <point x="513" y="472" type="line" smooth="yes"/>
      <point x="525" y="472"/>
      <point x="535" y="462"/>
      <point x="535" y="450" type="curve" smooth="yes"/>
      <point x="535" y="344" type="line"/>
      <point x="53" y="344" type="line"/>
      <point x="53" y="130" type="line" smooth="yes"/>
      <point x="53" y="58"/>
      <point x="111" y="0"/>
      <point x="183" y="0" type="curve" smooth="yes"/>
      <point x="1125" y="0" type="line"/>
      <point x="1125" y="108" type="line"/>
      <point x="665" y="108" type="line" smooth="yes"/>
      <point x="654" y="108"/>
      <point x="644" y="116"/>
      <point x="643" y="127" type="curve"/>
      <point x="643" y="236" type="line"/>
      <point x="1125" y="236" type="line"/>
      <point x="1125" y="450" type="line" smooth="yes"/>
      <point x="1125" y="522"/>
      <point x="1067" y="580"/>
      <point x="995" y="580" type="curve" smooth="yes"/>
    </contour>
    <contour>
      <point x="535" y="108" type="line"/>
      <point x="183" y="108" type="line" smooth="yes"/>
      <point x="171" y="108"/>
      <point x="161" y="118"/>
      <point x="161" y="130" type="curve" smooth="yes"/>
      <point x="161" y="236" type="line"/>
      <point x="535" y="236" type="line"/>
    </contour>
    <contour>
      <point x="643" y="344" type="line"/>
      <point x="643" y="450" type="line" smooth="yes"/>
      <point x="643" y="462"/>
      <point x="653" y="472"/>
      <point x="665" y="472" type="curve" smooth="yes"/>
      <point x="995" y="472" type="line" smooth="yes"/>
      <point x="1007" y="472"/>
      <point x="1017" y="462"/>
      <point x="1017" y="450" type="curve" smooth="yes"/>
      <point x="1017" y="344" type="line"/>
    </contour>
  </outline>
</glyph>
<glyph name="edieresis" format="1">
  <advance width="638"/>
  <unicode hex="00EB"/>
  <outline>
    <contour>
      <point x="181" y="580" type="line" smooth="yes"/>
      <point x="109" y="580"/>
      <point x="51" y="522"/>
      <point x="51" y="450" type="curve" smooth="yes"/>
      <point x="51" y="130" type="line" smooth="yes"/>
      <point x="51" y="58"/>
      <point x="109" y="0"/>
      <point x="181" y="0" type="curve" smooth="yes"/>
      <point x="641" y="0" type="line"/>
      <point x="641" y="108" type="line"/>
      <point x="181" y="108" type="line" smooth="yes"/>
      <point x="169" y="108"/>
      <point x="159" y="118"/>
      <point x="159" y="130" type="curve" smooth="yes"/>
      <point x="159" y="236" type="line"/>
      <point x="641" y="236" type="line"/>
      <point x="641" y="450" type="line" smooth="yes"/>
      <point x="641" y="522"/>
      <point x="583" y="580"/>
      <point x="511" y="580" type="curve" smooth="yes"/>
    </contour>
    <contour>
      <point x="159" y="344" type="line"/>
      <point x="159" y="450" type="line" smooth="yes"/>
      <point x="159" y="462"/>
      <point x="169" y="472"/>
      <point x="181" y="472" type="curve" smooth="yes"/>
      <point x="511" y="472" type="line" smooth="yes"/>
      <point x="523" y="472"/>
      <point x="533" y="462"/>
      <point x="533" y="450" type="curve" smooth="yes"/>
      <point x="533" y="344" type="line"/>
    </contour>
    <contour>
      <point x="458" y="826" type="line"/>
      <point x="350" y="826" type="line"/>
      <point x="350" y="718" type="line"/>
      <point x="458" y="718" type="line"/>
    </contour>
    <contour>
      <point x="288" y="826" type="line"/>
      <point x="180" y="826" type="line"/>
      <point x="180" y="718" type="line"/>
      <point x="288" y="718" type="line"/>
    </contour>
  </outline>
</glyph>
<glyph name="igrave" format="1">
  <advance width="214"/>
  <unicode hex="00EC"/>
  <outline>
    <contour>
      <point x="56" y="0" type="line"/>
      <point x="164" y="0" type="line"/>
      <point x="164" y="580" type="line"/>
      <point x="56" y="580" type="line"/>
    </contour>
    <contour>
      <point x="124" y="881" type="line"/>
      <point x="16" y="881" type="line"/>
      <point x="56" y="719" type="line"/>
      <point x="164" y="719" type="line"/>
    </contour>
  </outline>
</glyph>
<glyph name="iacute" format="1">
  <advance width="214"/>
  <unicode hex="00ED"/>
  <outline>
    <contour>
      <point x="51" y="0" type="line"/>
      <point x="159" y="0" type="line"/>
      <point x="159" y="580" type="line"/>
      <point x="51" y="580" type="line"/>
    </contour>
    <contour>
      <point x="49" y="718" type="line"/>
      <point x="157" y="718" type="line"/>
      <point x="197" y="880" type="line"/>
      <point x="89" y="880" type="line"/>
    </contour>
  </outline>
</glyph>
<glyph name="icircumflex" format="1">
  <advance width="214"/>
  <unicode hex="00EE"/>
  <outline>
    <contour>
      <point x="51" y="0" type="line"/>
      <point x="159" y="0" type="line"/>
      <point x="159" y="580" type="line"/>
      <point x="51" y="580" type="line"/>
    </contour>
    <contour>
      <point x="59" y="718" type="line"/>
      <point x="107" y="794" type="line"/>
      <point x="154" y="718" type="line"/>
      <point x="229" y="718" type="line"/>
      <point x="144" y="859" type="line"/>
      <point x="70" y="859" type="line"/>
      <point x="-15" y="718" type="line"/>
    </contour>
  </outline>
</glyph>
<glyph name="idieresis" format="1">
  <advance width="214"/>
  <unicode hex="00EF"/>
  <outline>
    <contour>
      <point x="55" y="0" type="line"/>
      <point x="163" y="0" type="line"/>
      <point x="163" y="580" type="line"/>
      <point x="55" y="580" type="line"/>
    </contour>
    <contour>
      <point x="246" y="828" type="line"/>
      <point x="138" y="828" type="line"/>
      <point x="138" y="720" type="line"/>
      <point x="246" y="720" type="line"/>
    </contour>
    <contour>
      <point x="76" y="828" type="line"/>
      <point x="-32" y="828" type="line"/>
      <point x="-32" y="720" type="line"/>
      <point x="76" y="720" type="line"/>
    </contour>
  </outline>
</glyph>
<glyph name="ntilde" format="1">
  <advance width="708"/>
  <unicode hex="00F1"/>
  <outline>
    <contour>
      <point x="54" y="580" type="line"/>
      <point x="54" y="0" type="line"/>
      <point x="162" y="0" type="line"/>
      <point x="162" y="450" type="line" smooth="yes"/>
      <point x="162" y="462"/>
      <point x="172" y="472"/>
      <point x="184" y="472" type="curve" smooth="yes"/>
      <point x="514" y="472" type="line" smooth="yes"/>
      <point x="526" y="472"/>
      <point x="536" y="462"/>
      <point x="536" y="450" type="curve" smooth="yes"/>
      <point x="536" y="0" type="line"/>
      <point x="644" y="0" type="line"/>
      <point x="644" y="450" type="line" smooth="yes"/>
      <point x="644" y="522"/>
      <point x="586" y="580"/>
      <point x="514" y="580" type="curve" smooth="yes"/>
    </contour>
    <contour>
      <point x="378" y="794"/>
      <point x="326" y="854"/>
      <point x="252" y="854" type="curve" smooth="yes"/>
      <point x="222" y="854"/>
      <point x="197" y="848"/>
      <point x="178" y="840" type="curve"/>
      <point x="178" y="765" type="line"/>
      <point x="191" y="786"/>
      <point x="230" y="788"/>
      <point x="252" y="788" type="curve" smooth="yes"/>
      <point x="328" y="788"/>
      <point x="381" y="720"/>
      <point x="452" y="720" type="curve" smooth="yes"/>
      <point x="483" y="720"/>
      <point x="509" y="729"/>
      <point x="530" y="738" type="curve"/>
      <point x="530" y="812" type="line"/>
      <point x="506" y="796"/>
      <point x="481" y="786"/>
      <point x="452" y="786" type="curve"/>
    </contour>
  </outline>
</glyph>
<glyph name="ocircumflex" format="1">
  <advance width="692"/>
  <unicode hex="00F4"/>
  <outline>
    <contour>
      <point x="181" y="580" type="line" smooth="yes"/>
      <point x="109" y="580"/>
      <point x="51" y="522"/>
      <point x="51" y="450" type="curve" smooth="yes"/>
      <point x="51" y="130" type="line" smooth="yes"/>
      <point x="51" y="58"/>
      <point x="109" y="0"/>
      <point x="181" y="0" type="curve" smooth="yes"/>
      <point x="511" y="0" type="line" smooth="yes"/>
      <point x="583" y="0"/>
      <point x="641" y="58"/>
      <point x="641" y="130" type="curve" smooth="yes"/>
      <point x="641" y="450" type="line" smooth="yes"/>
      <point x="641" y="522"/>
      <point x="583" y="580"/>
      <point x="511" y="580" type="curve" smooth="yes"/>
    </contour>
    <contour>
      <point x="511" y="472" type="line" smooth="yes"/>
      <point x="523" y="472"/>
      <point x="533" y="462"/>
      <point x="533" y="450" type="curve" smooth="yes"/>
      <point x="533" y="130" type="line" smooth="yes"/>
      <point x="533" y="118"/>
      <point x="523" y="108"/>
      <point x="511" y="108" type="curve" smooth="yes"/>
      <point x="181" y="108" type="line" smooth="yes"/>
      <point x="169" y="108"/>
      <point x="159" y="118"/>
      <point x="159" y="130" type="curve" smooth="yes"/>
      <point x="159" y="450" type="line" smooth="yes"/>
      <point x="159" y="462"/>
      <point x="169" y="472"/>
      <point x="181" y="472" type="curve" smooth="yes"/>
    </contour>
    <contour>
      <point x="298" y="718" type="line"/>
      <point x="346" y="794" type="line"/>
      <point x="393" y="718" type="line"/>
      <point x="468" y="718" type="line"/>
      <point x="383" y="859" type="line"/>
      <point x="309" y="859" type="line"/>
      <point x="224" y="718" type="line"/>
    </contour>
  </outline>
</glyph>
<glyph name="otilde" format="1">
  <advance width="692"/>
  <unicode hex="00F5"/>
  <outline>
    <contour>
      <point x="181" y="580" type="line" smooth="yes"/>
      <point x="109" y="580"/>
      <point x="51" y="522"/>
      <point x="51" y="450" type="curve" smooth="yes"/>
      <point x="51" y="130" type="line" smooth="yes"/>
      <point x="51" y="58"/>
      <point x="109" y="0"/>
      <point x="181" y="0" type="curve" smooth="yes"/>
      <point x="511" y="0" type="line" smooth="yes"/>
      <point x="583" y="0"/>
      <point x="641" y="58"/>
      <point x="641" y="130" type="curve" smooth="yes"/>
      <point x="641" y="450" type="line" smooth="yes"/>
      <point x="641" y="522"/>
      <point x="583" y="580"/>
      <point x="511" y="580" type="curve" smooth="yes"/>
    </contour>
    <contour>
      <point x="511" y="472" type="line" smooth="yes"/>
      <point x="523" y="472"/>
      <point x="533" y="462"/>
      <point x="533" y="450" type="curve" smooth="yes"/>
      <point x="533" y="130" type="line" smooth="yes"/>
      <point x="533" y="118"/>
      <point x="523" y="108"/>
      <point x="511" y="108" type="curve" smooth="yes"/>
      <point x="181" y="108" type="line" smooth="yes"/>
      <point x="169" y="108"/>
      <point x="159" y="118"/>
      <point x="159" y="130" type="curve" smooth="yes"/>
      <point x="159" y="450" type="line" smooth="yes"/>
      <point x="159" y="462"/>
      <point x="169" y="472"/>
      <point x="181" y="472" type="curve" smooth="yes"/>
    </contour>
    <contour>
      <point x="370" y="794"/>
      <point x="318" y="854"/>
      <point x="244" y="854" type="curve" smooth="yes"/>
      <point x="214" y="854"/>
      <point x="189" y="848"/>
      <point x="170" y="840" type="curve"/>
      <point x="170" y="765" type="line"/>
      <point x="183" y="786"/>
      <point x="222" y="788"/>
      <point x="244" y="788" type="curve" smooth="yes"/>
      <point x="320" y="788"/>
      <point x="373" y="720"/>
      <point x="444" y="720" type="curve" smooth="yes"/>
      <point x="475" y="720"/>
      <point x="501" y="729"/>
      <point x="522" y="738" type="curve"/>
      <point x="522" y="812" type="line"/>
      <point x="498" y="796"/>
      <point x="473" y="786"/>
      <point x="444" y="786" type="curve"/>
    </contour>
  </outline>
</glyph>
<glyph name="divide" format="1">
  <advance width="502"/>
  <unicode hex="00F7"/>
  <outline>
    <contour>
      <point x="498" y="350" type="line"/>
      <point x="18" y="350" type="line"/>
      <point x="18" y="242" type="line"/>
      <point x="498" y="242" type="line"/>
    </contour>
    <contour>
      <point x="201" y="108" type="line"/>
      <point x="201" y="0" type="line"/>
      <point x="309" y="0" type="line"/>
      <point x="309" y="108" type="line"/>
    </contour>
    <contour>
      <point x="309" y="588" type="line"/>
      <point x="201" y="588" type="line"/>
      <point x="201" y="480" type="line"/>
      <point x="309" y="480" type="line"/>
    </contour>
  </outline>
</glyph>
<glyph name="ugrave" format="1">
  <advance width="695"/>
  <unicode hex="00F9"/>
  <outline>
    <contour>
      <point x="535" y="580" type="line"/>
      <point x="535" y="130" type="line" smooth="yes"/>
      <point x="535" y="118"/>
      <point x="525" y="108"/>
      <point x="513" y="108" type="curve" smooth="yes"/>
      <point x="183" y="108" type="line" smooth="yes"/>
      <point x="171" y="108"/>
      <point x="161" y="118"/>
      <point x="161" y="130" type="curve" smooth="yes"/>
      <point x="161" y="580" type="line"/>
      <point x="53" y="580" type="line"/>
      <point x="53" y="130" type="line" smooth="yes"/>
      <point x="53" y="58"/>
      <point x="111" y="0"/>
      <point x="183" y="0" type="curve" smooth="yes"/>
      <point x="513" y="0" type="line" smooth="yes"/>
      <point x="585" y="0"/>
      <point x="643" y="58"/>
      <point x="643" y="130" type="curve" smooth="yes"/>
      <point x="643" y="580" type="line"/>
    </contour>
    <contour>
      <point x="381" y="881" type="line"/>
      <point x="273" y="881" type="line"/>
      <point x="313" y="719" type="line"/>
      <point x="421" y="719" type="line"/>
    </contour>
  </outline>
</glyph>
<glyph name="ucircumflex" format="1">
  <advance width="695"/>
  <unicode hex="00FB"/>
  <outline>
    <contour>
      <point x="535" y="580" type="line"/>
      <point x="535" y="130" type="line" smooth="yes"/>
      <point x="535" y="118"/>
      <point x="525" y="108"/>
      <point x="513" y="108" type="curve" smooth="yes"/>
      <point x="183" y="108" type="line" smooth="yes"/>
      <point x="171" y="108"/>
      <point x="161" y="118"/>
      <point x="161" y="130" type="curve" smooth="yes"/>
      <point x="161" y="580" type="line"/>
      <point x="53" y="580" type="line"/>
      <point x="53" y="130" type="line" smooth="yes"/>
      <point x="53" y="58"/>
      <point x="111" y="0"/>
      <point x="183" y="0" type="curve" smooth="yes"/>
      <point x="513" y="0" type="line" smooth="yes"/>
      <point x="585" y="0"/>
      <point x="643" y="58"/>
      <point x="643" y="130" type="curve" smooth="yes"/>
      <point x="643" y="580" type="line"/>
    </contour>
    <contour>
      <point x="299" y="719" type="line"/>
      <point x="347" y="795" type="line"/>
      <point x="394" y="719" type="line"/>
      <point x="469" y="719" type="line"/>
      <point x="384" y="860" type="line"/>
      <point x="310" y="860" type="line"/>
      <point x="225" y="719" type="line"/>
    </contour>
  </outline>
</glyph>
<glyph name="udieresis" format="1">
  <advance width="695"/>
  <unicode hex="00FC"/>
  <outline>
    <contour>
      <point x="535" y="580" type="line"/>
      <point x="535" y="130" type="line" smooth="yes"/>
      <point x="535" y="118"/>
      <point x="525" y="108"/>
      <point x="513" y="108" type="curve" smooth="yes"/>
      <point x="183" y="108" type="line" smooth="yes"/>
      <point x="171" y="108"/>
      <point x="161" y="118"/>
      <point x="161" y="130" type="curve" smooth="yes"/>
      <point x="161" y="580" type="line"/>
      <point x="53" y="580" type="line"/>
      <point x="53" y="130" type="line" smooth="yes"/>
      <point x="53" y="58"/>
      <point x="111" y="0"/>
      <point x="183" y="0" type="curve" smooth="yes"/>
      <point x="513" y="0" type="line" smooth="yes"/>
      <point x="585" y="0"/>
      <point x="643" y="58"/>
      <point x="643" y="130" type="curve" smooth="yes"/>
      <point x="643" y="580" type="line"/>
    </contour>
    <contour>
      <point x="486" y="826" type="line"/>
      <point x="378" y="826" type="line"/>
      <point x="378" y="718" type="line"/>
      <point x="486" y="718" type="line"/>
    </contour>
    <contour>
      <point x="316" y="826" type="line"/>
      <point x="208" y="826" type="line"/>
      <point x="208" y="718" type="line"/>
      <point x="316" y="718" type="line"/>
    </contour>
  </outline>
</glyph>
<glyph name="ydieresis" format="1">
  <advance width="688"/>
  <unicode hex="00FF"/>
  <outline>
    <contour>
      <point x="632" y="578" type="line"/>
      <point x="524" y="578" type="line"/>
      <point x="524" y="130" type="line" smooth="yes"/>
      <point x="524" y="118"/>
      <point x="514" y="108"/>
      <point x="502" y="108" type="curve" smooth="yes"/>
      <point x="172" y="108" type="line" smooth="yes"/>
      <point x="160" y="108"/>
      <point x="150" y="118"/>
      <point x="150" y="130" type="curve" smooth="yes"/>
      <point x="150" y="578" type="line"/>
      <point x="42" y="578" type="line"/>
      <point x="42" y="130" type="line" smooth="yes"/>
      <point x="42" y="58"/>
      <point x="100" y="0"/>
      <point x="172" y="0" type="curve" smooth="yes"/>
      <point x="524" y="0" type="line"/>
      <point x="524" y="-100" type="line" smooth="yes"/>
      <point x="524" y="-112"/>
      <point x="514" y="-122"/>
      <point x="502" y="-122" type="curve" smooth="yes"/>
      <point x="144" y="-122" type="line"/>
      <point x="144" y="-230" type="line"/>
      <point x="502" y="-230" type="line" smooth="yes"/>
      <point x="574" y="-230"/>
      <point x="632" y="-172"/>
      <point x="632" y="-100" type="curve" smooth="yes"/>
      <point x="632" y="220" type="line"/>
      <point x="632" y="220"/>
      <point x="632" y="221"/>
      <point x="632" y="222" type="curve" smooth="yes"/>
    </contour>
    <contour>
      <point x="483" y="828" type="line"/>
      <point x="375" y="828" type="line"/>
      <point x="375" y="720" type="line"/>
      <point x="483" y="720" type="line"/>
    </contour>
    <contour>
      <point x="313" y="828" type="line"/>
      <point x="205" y="828" type="line"/>
      <point x="205" y="720" type="line"/>
      <point x="313" y="720" type="line"/>
    </contour>
  </outline>
</glyph>
<glyph name="OE" format="1">
  <advance width="1374"/>
  <unicode hex="0152"/>
  <outline>
    <contour>
      <point x="773" y="612" type="line"/>
      <point x="1325" y="612" type="line"/>
      <point x="1325" y="720" type="line"/>
      <point x="183" y="720" type="line" smooth="yes"/>
      <point x="111" y="720"/>
      <point x="53" y="662"/>
      <point x="53" y="590" type="curve" smooth="yes"/>
      <point x="53" y="130" type="line" smooth="yes"/>
      <point x="53" y="58"/>
      <point x="111" y="0"/>
      <point x="183" y="0" type="curve" smooth="yes"/>
      <point x="1325" y="0" type="line"/>
      <point x="1325" y="108" type="line"/>
      <point x="773" y="108" type="line"/>
      <point x="773" y="306" type="line"/>
      <point x="1217" y="306" type="line"/>
      <point x="1217" y="414" type="line"/>
      <point x="773" y="414" type="line"/>
    </contour>
    <contour>
      <point x="183" y="108" type="line" smooth="yes"/>
      <point x="171" y="108"/>
      <point x="161" y="118"/>
      <point x="161" y="130" type="curve" smooth="yes"/>
      <point x="161" y="590" type="line" smooth="yes"/>
      <point x="161" y="602"/>
      <point x="171" y="612"/>
      <point x="183" y="612" type="curve" smooth="yes"/>
      <point x="643" y="612" type="line" smooth="yes"/>
      <point x="655" y="612"/>
      <point x="665" y="602"/>
      <point x="665" y="590" type="curve" smooth="yes"/>
      <point x="665" y="130" type="line" smooth="yes"/>
      <point x="665" y="118"/>
      <point x="655" y="108"/>
      <point x="643" y="108" type="curve" smooth="yes"/>
    </contour>
  </outline>
</glyph>
<glyph name="Ydieresis" format="1">
  <advance width="806"/>
  <unicode hex="0178"/>
  <outline>
    <contour>
      <point x="661" y="720" type="line"/>
      <point x="403" y="392" type="line"/>
      <point x="144" y="720" type="line"/>
      <point x="17" y="720" type="line"/>
      <point x="349" y="270" type="line"/>
      <point x="349" y="0" type="line"/>
      <point x="457" y="0" type="line"/>
      <point x="457" y="270" type="line"/>
      <point x="789" y="720" type="line"/>
    </contour>
    <contour>
      <point x="542" y="928" type="line"/>
      <point x="434" y="928" type="line"/>
      <point x="434" y="820" type="line"/>
      <point x="542" y="820" type="line"/>
    </contour>
    <contour>
      <point x="372" y="928" type="line"/>
      <point x="264" y="928" type="line"/>
      <point x="264" y="820" type="line"/>
      <point x="372" y="820" type="line"/>
    </contour>
  </outline>
</glyph>
<glyph name="Zcaron" format="1">
  <advance width="821"/>
  <unicode hex="017D"/>
  <outline>
    <contour>
      <point x="51" y="612" type="line"/>
      <point x="627" y="612" type="line"/>
      <point x="51" y="128" type="line"/>
      <point x="51" y="0" type="line"/>
      <point x="771" y="0" type="line"/>
      <point x="771" y="108" type="line"/>
      <point x="195" y="108" type="line"/>
      <point x="771" y="592" type="line"/>
      <point x="771" y="720" type="line"/>
      <point x="51" y="720" type="line"/>
    </contour>
    <contour>
      <point x="288" y="960" type="line"/>
      <point x="373" y="819" type="line"/>
      <point x="447" y="819" type="line"/>
      <point x="532" y="960" type="line"/>
      <point x="457" y="960" type="line"/>
      <point x="410" y="884" type="line"/>
      <point x="362" y="960" type="line"/>
    </contour>
  </outline>
</glyph>
<glyph name="zcaron" format="1">
  <advance width="698"/>
  <unicode hex="017E"/>
  <outline>
    <contour>
      <point x="54" y="472" type="line"/>
      <point x="500" y="472" type="line"/>
      <point x="54" y="128" type="line"/>
      <point x="54" y="0" type="line"/>
      <point x="644" y="0" type="line"/>
      <point x="644" y="108" type="line"/>
      <point x="198" y="108" type="line"/>
      <point x="644" y="452" type="line"/>
      <point x="644" y="580" type="line"/>
      <point x="54" y="580" type="line"/>
    </contour>
    <contour>
      <point x="227" y="862" type="line"/>
      <point x="312" y="721" type="line"/>
      <point x="386" y="721" type="line"/>
      <point x="471" y="862" type="line"/>
      <point x="396" y="862" type="line"/>
      <point x="349" y="786" type="line"/>
      <point x="301" y="862" type="line"/>
    </contour>
  </outline>
</glyph>
<glyph name="circumflex" format="1">
  <advance width="300"/>
  <unicode hex="02C6"/>
  <outline>
    <contour>
      <point x="102" y="826" type="line"/>
      <point x="150" y="902" type="line"/>
      <point x="197" y="826" type="line"/>
      <point x="272" y="826" type="line"/>
      <point x="187" y="967" type="line"/>
      <point x="113" y="967" type="line"/>
      <point x="28" y="826" type="line"/>
    </contour>
  </outline>
</glyph>
<glyph name="caron" format="1">
  <advance width="297"/>
  <unicode hex="02C7"/>
  <outline>
    <contour>
      <point x="27" y="967" type="line"/>
      <point x="112" y="826" type="line"/>
      <point x="186" y="826" type="line"/>
      <point x="271" y="967" type="line"/>
      <point x="196" y="967" type="line"/>
      <point x="149" y="891" type="line"/>
      <point x="101" y="967" type="line"/>
    </contour>
  </outline>
</glyph>
<glyph name="breve" format="1">
  <advance width="287"/>
  <unicode hex="02D8"/>
  <outline>
    <contour>
      <point x="195" y="911" type="line"/>
      <point x="195" y="893" type="line" smooth="yes"/>
      <point x="195" y="885"/>
      <point x="189" y="879"/>
      <point x="181" y="879" type="curve" smooth="yes"/>
      <point x="105" y="879" type="line" smooth="yes"/>
      <point x="97" y="879"/>
      <point x="91" y="885"/>
      <point x="91" y="893" type="curve" smooth="yes"/>
      <point x="91" y="911" type="line"/>
      <point x="40" y="911" type="line"/>
      <point x="40" y="904" type="line" smooth="yes"/>
      <point x="40" y="862"/>
      <point x="73" y="827"/>
      <point x="117" y="827" type="curve" smooth="yes"/>
      <point x="169" y="827" type="line" smooth="yes"/>
      <point x="213" y="827"/>
      <point x="246" y="862"/>
      <point x="246" y="904" type="curve" smooth="yes"/>
      <point x="246" y="911" type="line"/>
    </contour>
  </outline>
</glyph>
<glyph name="dotaccent" format="1">
  <advance width="233"/>
  <unicode hex="02D9"/>
  <outline>
    <contour>
      <point x="99" y="968" type="line" smooth="yes"/>
      <point x="69" y="968"/>
      <point x="45" y="944"/>
      <point x="45" y="915" type="curve" smooth="yes"/>
      <point x="45" y="881" type="line" smooth="yes"/>
      <point x="45" y="852"/>
      <point x="69" y="828"/>
      <point x="99" y="828" type="curve" smooth="yes"/>
      <point x="135" y="828" type="line" smooth="yes"/>
      <point x="165" y="828"/>
      <point x="189" y="852"/>
      <point x="189" y="881" type="curve" smooth="yes"/>
      <point x="189" y="915" type="line" smooth="yes"/>
      <point x="189" y="944"/>
      <point x="165" y="968"/>
      <point x="135" y="968" type="curve" smooth="yes"/>
    </contour>
  </outline>
</glyph>
<glyph name="tilde" format="1">
  <advance width="403"/>
  <unicode hex="02DC"/>
  <outline>
    <contour>
      <point x="223" y="905"/>
      <point x="171" y="965"/>
      <point x="97" y="965" type="curve" smooth="yes"/>
      <point x="67" y="965"/>
      <point x="42" y="959"/>
      <point x="23" y="951" type="curve"/>
      <point x="23" y="876" type="line"/>
      <point x="36" y="897"/>
      <point x="75" y="899"/>
      <point x="97" y="899" type="curve" smooth="yes"/>
      <point x="173" y="899"/>
      <point x="226" y="831"/>
      <point x="297" y="831" type="curve" smooth="yes"/>
      <point x="328" y="831"/>
      <point x="354" y="840"/>
      <point x="375" y="849" type="curve"/>
      <point x="375" y="923" type="line"/>
      <point x="351" y="907"/>
      <point x="326" y="897"/>
      <point x="297" y="897" type="curve"/>
    </contour>
  </outline>
</glyph>
<glyph name="endash" format="1">
  <advance width="708"/>
  <unicode hex="2013"/>
  <outline>
    <contour>
      <point x="654" y="349" type="line"/>
      <point x="54" y="349" type="line"/>
      <point x="54" y="241" type="line"/>
      <point x="654" y="241" type="line"/>
    </contour>
  </outline>
</glyph>
<glyph name="emdash" format="1">
  <advance width="822"/>
  <unicode hex="2014"/>
  <outline>
    <contour>
      <point x="768" y="349" type="line"/>
      <point x="54" y="349" type="line"/>
      <point x="54" y="241" type="line"/>
      <point x="768" y="241" type="line"/>
    </contour>
  </outline>
</glyph>
<glyph name="quoteleft" format="1">
  <advance width="194"/>
  <unicode hex="2018"/>
  <outline>
    <contour>
      <point x="142" y="484" type="line"/>
      <point x="142" y="720" type="line"/>
      <point x="81" y="710"/>
      <point x="34" y="657"/>
      <point x="34" y="592" type="curve" smooth="yes"/>
      <point x="34" y="484" type="line"/>
    </contour>
  </outline>
</glyph>
<glyph name="quoteright" format="1">
  <advance width="193"/>
  <unicode hex="2019"/>
  <outline>
    <contour>
      <point x="54" y="720" type="line"/>
      <point x="54" y="484" type="line"/>
      <point x="115" y="494"/>
      <point x="162" y="547"/>
      <point x="162" y="612" type="curve" smooth="yes"/>
      <point x="162" y="720" type="line"/>
    </contour>
  </outline>
</glyph>
<glyph name="quotedblleft" format="1">
  <advance width="378"/>
  <unicode hex="201C"/>
  <outline>
    <contour>
      <point x="154" y="484" type="line"/>
      <point x="154" y="720" type="line"/>
      <point x="93" y="710"/>
      <point x="46" y="657"/>
      <point x="46" y="592" type="curve" smooth="yes"/>
      <point x="46" y="484" type="line"/>
    </contour>
    <contour>
      <point x="325" y="484" type="line"/>
      <point x="325" y="720" type="line"/>
      <point x="264" y="710"/>
      <point x="217" y="657"/>
      <point x="217" y="592" type="curve" smooth="yes"/>
      <point x="217" y="484" type="line"/>
    </contour>
  </outline>
</glyph>
<glyph name="quotedblright" format="1">
  <advance width="378"/>
  <unicode hex="201D"/>
  <outline>
    <contour>
      <point x="225" y="720" type="line"/>
      <point x="225" y="484" type="line"/>
      <point x="286" y="494"/>
      <point x="333" y="547"/>
      <point x="333" y="612" type="curve" smooth="yes"/>
      <point x="333" y="720" type="line"/>
    </contour>
    <contour>
      <point x="54" y="720" type="line"/>
      <point x="54" y="484" type="line"/>
      <point x="115" y="494"/>
      <point x="162" y="547"/>
      <point x="162" y="612" type="curve" smooth="yes"/>
      <point x="162" y="720" type="line"/>
    </contour>
  </outline>
</glyph>
<glyph name="bullet" format="1">
  <advance width="371"/>
  <unicode hex="2022"/>
  <outline>
    <contour>
      <point x="173" y="412" type="line" smooth="yes"/>
      <point x="146" y="412"/>
      <point x="131" y="397"/>
      <point x="131" y="370" type="curve" smooth="yes"/>
      <point x="131" y="350" type="line" smooth="yes"/>
      <point x="131" y="323"/>
      <point x="146" y="308"/>
      <point x="173" y="308" type="curve" smooth="yes"/>
      <point x="196" y="308" type="line" smooth="yes"/>
      <point x="224" y="308"/>
      <point x="239" y="323"/>
      <point x="239" y="350" type="curve" smooth="yes"/>
      <point x="239" y="370" type="line" smooth="yes"/>
      <point x="239" y="397"/>
      <point x="224" y="412"/>
      <point x="196" y="412" type="curve" smooth="yes"/>
    </contour>
  </outline>
</glyph>
<glyph name="ellipsis" format="1">
  <advance width="574"/>
  <unicode hex="2026"/>
  <outline>
    <contour>
      <point x="162" y="108" type="line"/>
      <point x="54" y="108" type="line"/>
      <point x="54" y="0" type="line"/>
      <point x="162" y="0" type="line"/>
    </contour>
    <contour>
      <point x="520" y="108" type="line"/>
      <point x="412" y="108" type="line"/>
      <point x="412" y="0" type="line"/>
      <point x="520" y="0" type="line"/>
    </contour>
    <contour>
      <point x="341" y="108" type="line"/>
      <point x="233" y="108" type="line"/>
      <point x="233" y="0" type="line"/>
      <point x="341" y="0" type="line"/>
    </contour>
  </outline>
</glyph>
<glyph name="Euro" format="1">
  <advance width="799"/>
  <unicode hex="20AC"/>
  <outline>
    <contour>
      <point x="265" y="108" type="line" smooth="yes"/>
      <point x="253" y="108"/>
      <point x="243" y="118"/>
      <point x="243" y="130" type="curve" smooth="yes"/>
      <point x="243" y="218" type="line"/>
      <point x="645" y="218" type="line"/>
      <point x="645" y="326" type="line"/>
      <point x="243" y="326" type="line"/>
      <point x="243" y="394" type="line"/>
      <point x="645" y="394" type="line"/>
      <point x="645" y="502" type="line"/>
      <point x="243" y="502" type="line"/>
      <point x="243" y="590" type="line" smooth="yes"/>
      <point x="243" y="602"/>
      <point x="253" y="612"/>
      <point x="265" y="612" type="curve" smooth="yes"/>
      <point x="753" y="612" type="line"/>
      <point x="753" y="720" type="line"/>
      <point x="265" y="720" type="line" smooth="yes"/>
      <point x="193" y="720"/>
      <point x="135" y="662"/>
      <point x="135" y="590" type="curve" smooth="yes"/>
      <point x="135" y="502" type="line"/>
      <point x="35" y="502" type="line"/>
      <point x="35" y="394" type="line"/>
      <point x="135" y="394" type="line"/>
      <point x="135" y="326" type="line"/>
      <point x="35" y="326" type="line"/>
      <point x="35" y="218" type="line"/>
      <point x="135" y="218" type="line"/>
      <point x="135" y="130" type="line" smooth="yes"/>
      <point x="135" y="58"/>
      <point x="193" y="0"/>
      <point x="265" y="0" type="curve" smooth="yes"/>
      <point x="753" y="0" type="line"/>
      <point x="753" y="108" type="line"/>
    </contour>
  </outline>
</glyph>
<glyph name="minus" format="1">
  <advance width="517"/>
  <unicode hex="2212"/>
  <outline>
    <contour>
      <point x="459" y="350" type="line"/>
      <point x="59" y="350" type="line"/>
      <point x="59" y="242" type="line"/>
      <point x="459" y="242" type="line"/>
    </contour>
  </outline>
</glyph>
<glyph name="A.alt" format="1">
  <advance width="774"/>
  <outline>
    <contour>
      <point x="0" y="0" type="line"/>
      <point x="128" y="0" type="line"/>
      <point x="289" y="192" type="line"/>
      <point x="612" y="192" type="line"/>
      <point x="612" y="0" type="line"/>
      <point x="720" y="0" type="line"/>
      <point x="720" y="720" type="line"/>
      <point x="592" y="720" type="line"/>
      <point x="0" y="15" type="line"/>
    </contour>
    <contour>
      <point x="612" y="576" type="line"/>
      <point x="612" y="300" type="line"/>
      <point x="380" y="300" type="line"/>
    </contour>
  </outline>
</glyph>
<glyph name="A.alt2" format="1">
  <advance width="774"/>
  <outline>
    <contour>
      <point x="54" y="720" type="line"/>
      <point x="54" y="0" type="line"/>
      <point x="162" y="0" type="line"/>
      <point x="162" y="192" type="line"/>
      <point x="484" y="192" type="line"/>
      <point x="646" y="0" type="line"/>
      <point x="774" y="0" type="line"/>
      <point x="774" y="15" type="line"/>
      <point x="182" y="720" type="line"/>
    </contour>
    <contour>
      <point x="162" y="576" type="line"/>
      <point x="394" y="300" type="line"/>
      <point x="162" y="300" type="line"/>
    </contour>
  </outline>
</glyph>
<glyph name="A.alt3" format="1">
  <advance width="827"/>
  <outline>
    <contour>
      <point x="851" y="0" type="line"/>
      <point x="466" y="720" type="line"/>
      <point x="358" y="720" type="line"/>
      <point x="-28" y="0" type="line"/>
      <point x="97" y="0" type="line"/>
      <point x="198" y="175" type="line"/>
      <point x="625" y="175" type="line"/>
      <point x="727" y="0" type="line"/>
    </contour>
    <contour>
      <point x="412" y="597" type="line"/>
      <point x="563" y="283" type="line"/>
      <point x="260" y="283" type="line"/>
    </contour>
  </outline>
</glyph>
<glyph name="C.alt" format="1">
  <advance width="822"/>
  <outline>
    <contour>
      <point x="773" y="612" type="line"/>
      <point x="770" y="612" type="line"/>
      <point x="759" y="673"/>
      <point x="706" y="720"/>
      <point x="642" y="720" type="curve" smooth="yes"/>
      <point x="182" y="720" type="line" smooth="yes"/>
      <point x="110" y="720"/>
      <point x="52" y="662"/>
      <point x="52" y="590" type="curve" smooth="yes"/>
      <point x="52" y="130" type="line" smooth="yes"/>
      <point x="52" y="58"/>
      <point x="110" y="0"/>
      <point x="182" y="0" type="curve" smooth="yes"/>
      <point x="642" y="0" type="line" smooth="yes"/>
      <point x="706" y="0"/>
      <point x="759" y="47"/>
      <point x="770" y="108" type="curve"/>
      <point x="770" y="216" type="line"/>
      <point x="665" y="216" type="line"/>
      <point x="665" y="108" type="line"/>
      <point x="182" y="108" type="line" smooth="yes"/>
      <point x="170" y="108"/>
      <point x="160" y="118"/>
      <point x="160" y="130" type="curve" smooth="yes"/>
      <point x="160" y="590" type="line" smooth="yes"/>
      <point x="160" y="602"/>
      <point x="170" y="612"/>
      <point x="182" y="612" type="curve" smooth="yes"/>
      <point x="665" y="612" type="line"/>
      <point x="665" y="504" type="line"/>
      <point x="773" y="504" type="line"/>
    </contour>
  </outline>
</glyph>
<glyph name="I.alt" format="1">
  <advance width="818"/>
  <outline>
    <contour>
      <point x="769" y="720" type="line"/>
      <point x="49" y="720" type="line"/>
      <point x="49" y="612" type="line"/>
      <point x="355" y="612" type="line"/>
      <point x="355" y="108" type="line"/>
      <point x="49" y="108" type="line"/>
      <point x="49" y="0" type="line"/>
      <point x="769" y="0" type="line"/>
      <point x="769" y="108" type="line"/>
      <point x="463" y="108" type="line"/>
      <point x="463" y="612" type="line"/>
      <point x="769" y="612" type="line"/>
    </contour>
  </outline>
</glyph>
<glyph name="J.alt" format="1">
  <advance width="645"/>
  <outline>
    <contour>
      <point x="485" y="130" type="line" smooth="yes"/>
      <point x="485" y="118"/>
      <point x="475" y="108"/>
      <point x="463" y="108" type="curve" smooth="yes"/>
      <point x="3" y="108" type="line"/>
      <point x="3" y="0" type="line"/>
      <point x="463" y="0" type="line" smooth="yes"/>
      <point x="535" y="0"/>
      <point x="593" y="58"/>
      <point x="593" y="130" type="curve" smooth="yes"/>
      <point x="593" y="720" type="line"/>
      <point x="485" y="720" type="line"/>
    </contour>
  </outline>
</glyph>
<glyph name="K.alt" format="1">
  <advance width="829"/>
  <outline>
    <contour>
      <point x="667" y="433" type="line" smooth="yes"/>
      <point x="667" y="421"/>
      <point x="657" y="411"/>
      <point x="645" y="411" type="curve" smooth="yes"/>
      <point x="184" y="411" type="line" smooth="yes"/>
      <point x="172" y="411"/>
      <point x="162" y="421"/>
      <point x="162" y="433" type="curve" smooth="yes"/>
      <point x="162" y="720" type="line"/>
      <point x="54" y="720" type="line"/>
      <point x="54" y="0" type="line"/>
      <point x="162" y="0" type="line"/>
      <point x="162" y="281" type="line" smooth="yes"/>
      <point x="162" y="293"/>
      <point x="172" y="303"/>
      <point x="184" y="303" type="curve" smooth="yes"/>
      <point x="644" y="303" type="line" smooth="yes"/>
      <point x="656" y="303"/>
      <point x="666" y="293"/>
      <point x="666" y="281" type="curve" smooth="yes"/>
      <point x="666" y="0" type="line"/>
      <point x="774" y="0" type="line"/>
      <point x="774" y="261" type="line" smooth="yes"/>
      <point x="774" y="309"/>
      <point x="714" y="357"/>
      <point x="627" y="357" type="curve"/>
      <point x="714" y="357"/>
      <point x="775" y="405"/>
      <point x="775" y="453" type="curve" smooth="yes"/>
      <point x="775" y="720" type="line"/>
      <point x="667" y="720" type="line"/>
    </contour>
  </outline>
</glyph>
<glyph name="M.alt" format="1">
  <advance width="1155"/>
  <outline>
    <contour>
      <point x="54" y="720" type="line"/>
      <point x="54" y="0" type="line"/>
      <point x="162" y="0" type="line"/>
      <point x="162" y="612" type="line"/>
      <point x="490" y="612" type="line" smooth="yes"/>
      <point x="502" y="612"/>
      <point x="512" y="602"/>
      <point x="512" y="590" type="curve" smooth="yes"/>
      <point x="512" y="0" type="line"/>
      <point x="620" y="0" type="line"/>
      <point x="620" y="612" type="line"/>
      <point x="972" y="612" type="line" smooth="yes"/>
      <point x="984" y="612"/>
      <point x="994" y="602"/>
      <point x="994" y="590" type="curve" smooth="yes"/>
      <point x="994" y="0" type="line"/>
      <point x="1102" y="0" type="line"/>
      <point x="1102" y="590" type="line" smooth="yes"/>
      <point x="1102" y="662"/>
      <point x="1044" y="720"/>
      <point x="972" y="720" type="curve" smooth="yes"/>
    </contour>
  </outline>
</glyph>
<glyph name="N.alt" format="1">
  <advance width="827"/>
  <outline>
    <contour>
      <point x="162" y="0" type="line"/>
      <point x="162" y="612" type="line"/>
      <point x="644" y="612" type="line" smooth="yes"/>
      <point x="656" y="612"/>
      <point x="666" y="602"/>
      <point x="666" y="590" type="curve" smooth="yes"/>
      <point x="666" y="0" type="line"/>
      <point x="774" y="0" type="line"/>
      <point x="774" y="590" type="line" smooth="yes"/>
      <point x="774" y="662"/>
      <point x="716" y="720"/>
      <point x="644" y="720" type="curve" smooth="yes"/>
      <point x="54" y="720" type="line"/>
      <point x="54" y="0" type="line"/>
    </contour>
  </outline>
</glyph>
<glyph name="O.alt" format="1">
  <advance width="824"/>
  <outline>
    <contour>
      <point x="182" y="720" type="line" smooth="yes"/>
      <point x="110" y="720"/>
      <point x="52" y="662"/>
      <point x="52" y="590" type="curve" smooth="yes"/>
      <point x="52" y="130" type="line" smooth="yes"/>
      <point x="52" y="58"/>
      <point x="110" y="0"/>
      <point x="182" y="0" type="curve" smooth="yes"/>
      <point x="642" y="0" type="line" smooth="yes"/>
      <point x="714" y="0"/>
      <point x="772" y="58"/>
      <point x="772" y="130" type="curve" smooth="yes"/>
      <point x="772" y="590" type="line" smooth="yes"/>
      <point x="772" y="662"/>
      <point x="714" y="720"/>
      <point x="642" y="720" type="curve" smooth="yes"/>
    </contour>
    <contour>
      <point x="664" y="130" type="line" smooth="yes"/>
      <point x="664" y="118"/>
      <point x="654" y="108"/>
      <point x="642" y="108" type="curve" smooth="yes"/>
      <point x="182" y="108" type="line" smooth="yes"/>
      <point x="170" y="108"/>
      <point x="160" y="118"/>
      <point x="160" y="130" type="curve" smooth="yes"/>
      <point x="160" y="590" type="line" smooth="yes"/>
      <point x="160" y="602"/>
      <point x="170" y="612"/>
      <point x="182" y="612" type="curve" smooth="yes"/>
      <point x="642" y="612" type="line" smooth="yes"/>
      <point x="654" y="612"/>
      <point x="664" y="602"/>
      <point x="664" y="590" type="curve" smooth="yes"/>
    </contour>
    <contour>
      <point x="466" y="306" type="line"/>
      <point x="466" y="414" type="line"/>
      <point x="358" y="414" type="line"/>
      <point x="358" y="306" type="line"/>
    </contour>
  </outline>
</glyph>
<glyph name="R.alt" format="1">
  <advance width="826"/>
  <outline>
    <contour>
      <point x="774" y="589" type="line" smooth="yes"/>
      <point x="774" y="660"/>
      <point x="716" y="719"/>
      <point x="644" y="719" type="curve" smooth="yes"/>
      <point x="54" y="720" type="line"/>
      <point x="54" y="0" type="line"/>
      <point x="162" y="0" type="line"/>
      <point x="162" y="235" type="line" smooth="yes"/>
      <point x="162" y="247"/>
      <point x="172" y="257"/>
      <point x="184" y="257" type="curve" smooth="yes"/>
      <point x="644" y="257" type="line" smooth="yes"/>
      <point x="656" y="257"/>
      <point x="666" y="247"/>
      <point x="666" y="235" type="curve" smooth="yes"/>
      <point x="666" y="0" type="line"/>
      <point x="774" y="0" type="line"/>
      <point x="774" y="235" type="line" smooth="yes"/>
      <point x="774" y="304"/>
      <point x="688" y="311"/>
      <point x="656" y="311" type="curve"/>
      <point x="687" y="311"/>
      <point x="774" y="319"/>
      <point x="774" y="387" type="curve" smooth="yes"/>
    </contour>
    <contour>
      <point x="644" y="611" type="line" smooth="yes"/>
      <point x="656" y="611"/>
      <point x="666" y="601"/>
      <point x="666" y="589" type="curve" smooth="yes"/>
      <point x="666" y="387" type="line" smooth="yes"/>
      <point x="666" y="375"/>
      <point x="656" y="365"/>
      <point x="644" y="365" type="curve" smooth="yes"/>
      <point x="184" y="365" type="line" smooth="yes"/>
      <point x="172" y="365"/>
      <point x="162" y="375"/>
      <point x="162" y="387" type="curve" smooth="yes"/>
      <point x="162" y="589" type="line" smooth="yes"/>
      <point x="162" y="601"/>
      <point x="172" y="611"/>
      <point x="184" y="611" type="curve" smooth="yes"/>
    </contour>
  </outline>
</glyph>
<glyph name="S.alt" format="1">
  <advance width="812"/>
  <outline>
    <contour>
      <point x="516" y="414" type="line"/>
      <point x="176" y="414" type="line" smooth="yes"/>
      <point x="164" y="414"/>
      <point x="154" y="424"/>
      <point x="154" y="436" type="curve" smooth="yes"/>
      <point x="154" y="590" type="line" smooth="yes"/>
      <point x="154" y="602"/>
      <point x="164" y="612"/>
      <point x="176" y="612" type="curve" smooth="yes"/>
      <point x="766" y="612" type="line"/>
      <point x="766" y="647"/>
      <point x="766" y="662"/>
      <point x="766" y="720" type="curve"/>
      <point x="176" y="720" type="line" smooth="yes"/>
      <point x="104" y="720"/>
      <point x="46" y="662"/>
      <point x="46" y="590" type="curve" smooth="yes"/>
      <point x="46" y="436" type="line" smooth="yes"/>
      <point x="46" y="364"/>
      <point x="104" y="306"/>
      <point x="176" y="306" type="curve" smooth="yes"/>
      <point x="636" y="306" type="line" smooth="yes"/>
      <point x="648" y="306"/>
      <point x="658" y="296"/>
      <point x="658" y="284" type="curve" smooth="yes"/>
      <point x="658" y="130" type="line" smooth="yes"/>
      <point x="658" y="118"/>
      <point x="648" y="108"/>
      <point x="636" y="108" type="curve" smooth="yes"/>
      <point x="46" y="108" type="line"/>
      <point x="46" y="44"/>
      <point x="46" y="12"/>
      <point x="46" y="0" type="curve"/>
      <point x="636" y="0" type="line" smooth="yes"/>
      <point x="708" y="0"/>
      <point x="766" y="58"/>
      <point x="766" y="130" type="curve" smooth="yes"/>
      <point x="766" y="284" type="line" smooth="yes"/>
      <point x="766" y="356"/>
      <point x="708" y="414"/>
      <point x="636" y="414" type="curve" smooth="yes"/>
    </contour>
  </outline>
</glyph>
<glyph name="V.alt" format="1">
  <advance width="774"/>
  <outline>
    <contour>
      <point x="54" y="720" type="line"/>
      <point x="54" y="0" type="line"/>
      <point x="182" y="0" type="line"/>
      <point x="774" y="705" type="line"/>
      <point x="774" y="720" type="line"/>
      <point x="646" y="720" type="line"/>
      <point x="162" y="144" type="line"/>
      <point x="162" y="720" type="line"/>
    </contour>
  </outline>
</glyph>
<glyph name="V.alt2" format="1">
  <advance width="774"/>
  <outline>
    <contour>
      <point x="612" y="144" type="line"/>
      <point x="128" y="720" type="line"/>
      <point x="0" y="720" type="line"/>
      <point x="0" y="705" type="line"/>
      <point x="592" y="0" type="line"/>
      <point x="720" y="0" type="line"/>
      <point x="720" y="720" type="line"/>
      <point x="612" y="720" type="line"/>
    </contour>
  </outline>
</glyph>
<glyph name="V.alt3" format="1">
  <advance width="827"/>
  <outline>
    <contour>
      <point x="665" y="720" type="line"/>
      <point x="665" y="108" type="line"/>
      <point x="183" y="108" type="line" smooth="yes"/>
      <point x="171" y="108"/>
      <point x="161" y="118"/>
      <point x="161" y="130" type="curve" smooth="yes"/>
      <point x="161" y="720" type="line"/>
      <point x="53" y="720" type="line"/>
      <point x="53" y="130" type="line" smooth="yes"/>
      <point x="53" y="58"/>
      <point x="111" y="0"/>
      <point x="183" y="0" type="curve" smooth="yes"/>
      <point x="773" y="0" type="line"/>
      <point x="773" y="720" type="line"/>
    </contour>
  </outline>
</glyph>
<glyph name="W.alt" format="1">
  <advance width="1149"/>
  <outline>
    <contour>
      <point x="1018" y="720" type="line"/>
      <point x="534" y="144" type="line"/>
      <point x="534" y="428" type="line"/>
      <point x="767" y="705" type="line"/>
      <point x="767" y="720" type="line"/>
      <point x="639" y="720" type="line"/>
      <point x="155" y="144" type="line"/>
      <point x="155" y="720" type="line"/>
      <point x="47" y="720" type="line"/>
      <point x="47" y="0" type="line"/>
      <point x="175" y="0" type="line"/>
      <point x="426" y="299" type="line"/>
      <point x="426" y="0" type="line"/>
      <point x="554" y="0" type="line"/>
      <point x="1146" y="705" type="line"/>
      <point x="1146" y="720" type="line"/>
    </contour>
  </outline>
</glyph>
<glyph name="W.alt2" format="1">
  <advance width="1131"/>
  <outline>
    <contour>
      <point x="0" y="720" type="line"/>
      <point x="0" y="705" type="line"/>
      <point x="592" y="0" type="line"/>
      <point x="720" y="0" type="line"/>
      <point x="720" y="299" type="line"/>
      <point x="971" y="0" type="line"/>
      <point x="1099" y="0" type="line"/>
      <point x="1099" y="720" type="line"/>
      <point x="991" y="720" type="line"/>
      <point x="991" y="144" type="line"/>
      <point x="507" y="720" type="line"/>
      <point x="379" y="720" type="line"/>
      <point x="379" y="705" type="line"/>
      <point x="612" y="428" type="line"/>
      <point x="612" y="144" type="line"/>
      <point x="128" y="720" type="line"/>
    </contour>
  </outline>
</glyph>
<glyph name="W.alt3" format="1">
  <advance width="1028"/>
  <outline>
    <contour>
      <point x="514" y="395" type="line"/>
      <point x="846" y="0" type="line"/>
      <point x="974" y="0" type="line"/>
      <point x="974" y="720" type="line"/>
      <point x="866" y="720" type="line"/>
      <point x="866" y="144" type="line"/>
      <point x="514" y="563" type="line"/>
      <point x="162" y="144" type="line"/>
      <point x="162" y="720" type="line"/>
      <point x="54" y="720" type="line"/>
      <point x="54" y="0" type="line"/>
      <point x="182" y="0" type="line"/>
    </contour>
  </outline>
</glyph>
<glyph name="W.alt4" format="1">
  <advance width="1155"/>
  <outline>
    <contour>
      <point x="1101" y="0" type="line"/>
      <point x="1101" y="720" type="line"/>
      <point x="993" y="720" type="line"/>
      <point x="993" y="108" type="line"/>
      <point x="665" y="108" type="line" smooth="yes"/>
      <point x="653" y="108"/>
      <point x="643" y="118"/>
      <point x="643" y="130" type="curve" smooth="yes"/>
      <point x="643" y="720" type="line"/>
      <point x="535" y="720" type="line"/>
      <point x="535" y="108" type="line"/>
      <point x="183" y="108" type="line" smooth="yes"/>
      <point x="171" y="108"/>
      <point x="161" y="118"/>
      <point x="161" y="130" type="curve" smooth="yes"/>
      <point x="161" y="720" type="line"/>
      <point x="53" y="720" type="line"/>
      <point x="53" y="130" type="line" smooth="yes"/>
      <point x="53" y="58"/>
      <point x="111" y="0"/>
      <point x="183" y="0" type="curve" smooth="yes"/>
    </contour>
  </outline>
</glyph>
<glyph name="X.alt" format="1">
  <advance width="829"/>
  <outline>
    <contour>
      <point x="667" y="720" type="line"/>
      <point x="667" y="433" type="line" smooth="yes"/>
      <point x="667" y="421"/>
      <point x="657" y="411"/>
      <point x="645" y="411" type="curve" smooth="yes"/>
      <point x="184" y="411" type="line" smooth="yes"/>
      <point x="172" y="411"/>
      <point x="162" y="421"/>
      <point x="162" y="433" type="curve" smooth="yes"/>
      <point x="162" y="720" type="line"/>
      <point x="54" y="720" type="line"/>
      <point x="54" y="453" type="line" smooth="yes"/>
      <point x="54" y="395"/>
      <point x="124" y="357"/>
      <point x="202" y="357" type="curve"/>
      <point x="124" y="357"/>
      <point x="55" y="319"/>
      <point x="55" y="261" type="curve" smooth="yes"/>
      <point x="55" y="0" type="line"/>
      <point x="163" y="0" type="line"/>
      <point x="163" y="281" type="line" smooth="yes"/>
      <point x="163" y="293"/>
      <point x="173" y="303"/>
      <point x="185" y="303" type="curve" smooth="yes"/>
      <point x="644" y="303" type="line" smooth="yes"/>
      <point x="656" y="303"/>
      <point x="666" y="293"/>
      <point x="666" y="281" type="curve" smooth="yes"/>
      <point x="666" y="0" type="line"/>
      <point x="774" y="0" type="line"/>
      <point x="774" y="261" type="line" smooth="yes"/>
      <point x="774" y="319"/>
      <point x="704" y="357"/>
      <point x="627" y="357" type="curve"/>
      <point x="704" y="357"/>
      <point x="775" y="395"/>
      <point x="775" y="453" type="curve" smooth="yes"/>
      <point x="775" y="720" type="line"/>
    </contour>
  </outline>
</glyph>
<glyph name="Y.alt" format="1">
  <advance width="824"/>
  <outline>
    <contour>
      <point x="663" y="720" type="line"/>
      <point x="663" y="414" type="line"/>
      <point x="181" y="414" type="line" smooth="yes"/>
      <point x="169" y="414"/>
      <point x="159" y="424"/>
      <point x="159" y="436" type="curve" smooth="yes"/>
      <point x="159" y="720" type="line"/>
      <point x="51" y="720" type="line"/>
      <point x="51" y="436" type="line" smooth="yes"/>
      <point x="51" y="364"/>
      <point x="109" y="306"/>
      <point x="181" y="306" type="curve" smooth="yes"/>
      <point x="641" y="306" type="line" smooth="yes"/>
      <point x="653" y="306"/>
      <point x="663" y="296"/>
      <point x="663" y="284" type="curve" smooth="yes"/>
      <point x="663" y="130" type="line" smooth="yes"/>
      <point x="663" y="118"/>
      <point x="653" y="108"/>
      <point x="641" y="108" type="curve" smooth="yes"/>
      <point x="51" y="108" type="line"/>
      <point x="51" y="0" type="line"/>
      <point x="641" y="0" type="line" smooth="yes"/>
      <point x="713" y="0"/>
      <point x="771" y="58"/>
      <point x="771" y="130" type="curve" smooth="yes"/>
      <point x="771" y="720" type="line"/>
    </contour>
  </outline>
</glyph>
<glyph name="Z.alt" format="1">
  <advance width="818"/>
  <outline>
    <contour>
      <point x="179" y="414" type="line" smooth="yes"/>
      <point x="107" y="414"/>
      <point x="49" y="356"/>
      <point x="49" y="284" type="curve" smooth="yes"/>
      <point x="49" y="130" type="line" smooth="yes"/>
      <point x="49" y="58"/>
      <point x="107" y="0"/>
      <point x="179" y="0" type="curve" smooth="yes"/>
      <point x="769" y="0" type="line"/>
      <point x="769" y="108" type="line"/>
      <point x="179" y="108" type="line" smooth="yes"/>
      <point x="167" y="108"/>
      <point x="157" y="118"/>
      <point x="157" y="130" type="curve" smooth="yes"/>
      <point x="157" y="284" type="line" smooth="yes"/>
      <point x="157" y="296"/>
      <point x="167" y="306"/>
      <point x="179" y="306" type="curve" smooth="yes"/>
      <point x="639" y="306" type="line" smooth="yes"/>
      <point x="711" y="306"/>
      <point x="769" y="364"/>
      <point x="769" y="436" type="curve" smooth="yes"/>
      <point x="769" y="590" type="line" smooth="yes"/>
      <point x="769" y="662"/>
      <point x="711" y="720"/>
      <point x="639" y="720" type="curve" smooth="yes"/>
      <point x="49" y="720" type="line"/>
      <point x="49" y="612" type="line"/>
      <point x="639" y="612" type="line" smooth="yes"/>
      <point x="651" y="612"/>
      <point x="661" y="602"/>
      <point x="661" y="590" type="curve" smooth="yes"/>
      <point x="661" y="436" type="line" smooth="yes"/>
      <point x="661" y="424"/>
      <point x="651" y="414"/>
      <point x="639" y="414" type="curve" smooth="yes"/>
      <point x="299" y="414" type="line"/>
    </contour>
  </outline>
</glyph>
<glyph name="a.sc" format="1">
  <advance width="725"/>
  <outline>
    <contour>
      <point x="183" y="580" type="line" smooth="yes"/>
      <point x="111" y="580"/>
      <point x="53" y="522"/>
      <point x="53" y="450" type="curve" smooth="yes"/>
      <point x="53" y="0" type="line"/>
      <point x="161" y="0" type="line"/>
      <point x="161" y="152" type="line"/>
      <point x="565" y="152" type="line"/>
      <point x="565" y="0" type="line"/>
      <point x="673" y="0" type="line"/>
      <point x="673" y="450" type="line" smooth="yes"/>
      <point x="673" y="522"/>
      <point x="615" y="580"/>
      <point x="543" y="580" type="curve" smooth="yes"/>
    </contour>
    <contour>
      <point x="161" y="260" type="line"/>
      <point x="161" y="450" type="line" smooth="yes"/>
      <point x="161" y="462"/>
      <point x="171" y="472"/>
      <point x="183" y="472" type="curve" smooth="yes"/>
      <point x="543" y="472" type="line" smooth="yes"/>
      <point x="555" y="472"/>
      <point x="565" y="462"/>
      <point x="565" y="450" type="curve" smooth="yes"/>
      <point x="565" y="260" type="line"/>
    </contour>
  </outline>
</glyph>
<glyph name="b.sc" format="1">
  <advance width="700"/>
  <outline>
    <contour>
      <point x="619" y="324"/>
      <point x="624" y="343"/>
      <point x="624" y="363" type="curve" smooth="yes"/>
      <point x="624" y="451" type="line" smooth="yes"/>
      <point x="624" y="523"/>
      <point x="566" y="581"/>
      <point x="494" y="581" type="curve" smooth="yes"/>
      <point x="54" y="581" type="line"/>
      <point x="54" y="0" type="line"/>
      <point x="524" y="0" type="line" smooth="yes"/>
      <point x="596" y="0"/>
      <point x="654" y="58"/>
      <point x="654" y="130" type="curve" smooth="yes"/>
      <point x="654" y="211" type="line" smooth="yes"/>
      <point x="654" y="249"/>
      <point x="637" y="284"/>
      <point x="611" y="307" type="curve"/>
    </contour>
    <contour>
      <point x="494" y="473" type="line" smooth="yes"/>
      <point x="506" y="473"/>
      <point x="516" y="463"/>
      <point x="516" y="451" type="curve" smooth="yes"/>
      <point x="516" y="363" type="line" smooth="yes"/>
      <point x="516" y="351"/>
      <point x="506" y="341"/>
      <point x="494" y="341" type="curve" smooth="yes"/>
      <point x="184" y="341" type="line" smooth="yes"/>
      <point x="172" y="341"/>
      <point x="162" y="351"/>
      <point x="162" y="363" type="curve" smooth="yes"/>
      <point x="162" y="451" type="line" smooth="yes"/>
      <point x="162" y="463"/>
      <point x="172" y="473"/>
      <point x="184" y="473" type="curve" smooth="yes"/>
    </contour>
    <contour>
      <point x="546" y="130" type="line" smooth="yes"/>
      <point x="546" y="118"/>
      <point x="536" y="108"/>
      <point x="524" y="108" type="curve" smooth="yes"/>
      <point x="184" y="108" type="line" smooth="yes"/>
      <point x="172" y="108"/>
      <point x="162" y="118"/>
      <point x="162" y="130" type="curve" smooth="yes"/>
      <point x="162" y="211" type="line" smooth="yes"/>
      <point x="162" y="223"/>
      <point x="172" y="233"/>
      <point x="184" y="233" type="curve" smooth="yes"/>
      <point x="524" y="233" type="line" smooth="yes"/>
      <point x="536" y="233"/>
      <point x="546" y="223"/>
      <point x="546" y="211" type="curve" smooth="yes"/>
    </contour>
  </outline>
</glyph>
<glyph name="c.sc" format="1">
  <advance width="693"/>
  <outline>
    <contour>
      <point x="639" y="473" type="line"/>
      <point x="639" y="581" type="line"/>
      <point x="181" y="581" type="line" smooth="yes"/>
      <point x="109" y="581"/>
      <point x="51" y="523"/>
      <point x="51" y="451" type="curve" smooth="yes"/>
      <point x="51" y="130" type="line" smooth="yes"/>
      <point x="51" y="58"/>
      <point x="109" y="0"/>
      <point x="181" y="0" type="curve" smooth="yes"/>
      <point x="639" y="0" type="line"/>
      <point x="639" y="108" type="line"/>
      <point x="181" y="108" type="line" smooth="yes"/>
      <point x="169" y="108"/>
      <point x="159" y="118"/>
      <point x="159" y="130" type="curve" smooth="yes"/>
      <point x="159" y="451" type="line" smooth="yes"/>
      <point x="159" y="463"/>
      <point x="169" y="473"/>
      <point x="181" y="473" type="curve" smooth="yes"/>
    </contour>
  </outline>
</glyph>
<glyph name="d.sc" format="1">
  <advance width="705"/>
  <outline>
    <contour>
      <point x="54" y="581" type="line"/>
      <point x="54" y="0" type="line"/>
      <point x="524" y="0" type="line" smooth="yes"/>
      <point x="596" y="0"/>
      <point x="654" y="58"/>
      <point x="654" y="130" type="curve" smooth="yes"/>
      <point x="654" y="451" type="line" smooth="yes"/>
      <point x="654" y="523"/>
      <point x="596" y="581"/>
      <point x="524" y="581" type="curve" smooth="yes"/>
    </contour>
    <contour>
      <point x="546" y="130" type="line" smooth="yes"/>
      <point x="546" y="118"/>
      <point x="536" y="108"/>
      <point x="524" y="108" type="curve" smooth="yes"/>
      <point x="184" y="108" type="line" smooth="yes"/>
      <point x="172" y="108"/>
      <point x="162" y="118"/>
      <point x="162" y="130" type="curve" smooth="yes"/>
      <point x="162" y="451" type="line" smooth="yes"/>
      <point x="162" y="463"/>
      <point x="172" y="473"/>
      <point x="184" y="473" type="curve" smooth="yes"/>
      <point x="524" y="473" type="line" smooth="yes"/>
      <point x="536" y="473"/>
      <point x="546" y="463"/>
      <point x="546" y="451" type="curve" smooth="yes"/>
    </contour>
  </outline>
</glyph>
<glyph name="e.sc" format="1">
  <advance width="638"/>
  <outline>
    <contour>
      <point x="584" y="581" type="line"/>
      <point x="54" y="581" type="line"/>
      <point x="54" y="0" type="line"/>
      <point x="584" y="0" type="line"/>
      <point x="584" y="108" type="line"/>
      <point x="162" y="108" type="line"/>
      <point x="162" y="236" type="line"/>
      <point x="476" y="236" type="line"/>
      <point x="476" y="344" type="line"/>
      <point x="162" y="344" type="line"/>
      <point x="162" y="473" type="line"/>
      <point x="584" y="473" type="line"/>
    </contour>
  </outline>
</glyph>
<glyph name="f.sc" format="1">
  <advance width="591"/>
  <outline>
    <contour>
      <point x="54" y="581" type="line"/>
      <point x="54" y="0" type="line"/>
      <point x="162" y="0" type="line"/>
      <point x="162" y="236" type="line"/>
      <point x="476" y="236" type="line"/>
      <point x="476" y="344" type="line"/>
      <point x="162" y="344" type="line"/>
      <point x="162" y="473" type="line"/>
      <point x="584" y="473" type="line"/>
      <point x="584" y="581" type="line"/>
    </contour>
  </outline>
</glyph>
<glyph name="four.alt" format="1">
  <advance width="723"/>
  <outline>
    <contour>
      <point x="593" y="291" type="line"/>
      <point x="593" y="440" type="line"/>
      <point x="485" y="440" type="line"/>
      <point x="485" y="291" type="line"/>
      <point x="140" y="291" type="line"/>
      <point x="483" y="670" type="line"/>
      <point x="483" y="720" type="line"/>
      <point x="375" y="720" type="line"/>
      <point x="9" y="291" type="line"/>
      <point x="9" y="183" type="line"/>
      <point x="485" y="183" type="line"/>
      <point x="485" y="0" type="line"/>
      <point x="593" y="0" type="line"/>
      <point x="593" y="183" type="line"/>
      <point x="699" y="183" type="line"/>
      <point x="699" y="291" type="line"/>
    </contour>
  </outline>
</glyph>
<glyph name="g.sc" format="1">
  <advance width="690"/>
  <outline>
    <contour>
      <point x="641" y="451" type="line" smooth="yes"/>
      <point x="641" y="523"/>
      <point x="583" y="581"/>
      <point x="511" y="581" type="curve" smooth="yes"/>
      <point x="181" y="581" type="line" smooth="yes"/>
      <point x="109" y="581"/>
      <point x="51" y="523"/>
      <point x="51" y="451" type="curve" smooth="yes"/>
      <point x="51" y="130" type="line" smooth="yes"/>
      <point x="51" y="58"/>
      <point x="109" y="0"/>
      <point x="181" y="0" type="curve" smooth="yes"/>
      <point x="511" y="0" type="line" smooth="yes"/>
      <point x="583" y="0"/>
      <point x="641" y="58"/>
      <point x="641" y="130" type="curve" smooth="yes"/>
      <point x="641" y="314" type="line"/>
      <point x="363" y="314" type="line"/>
      <point x="363" y="206" type="line"/>
      <point x="533" y="206" type="line"/>
      <point x="533" y="130" type="line" smooth="yes"/>
      <point x="533" y="118"/>
      <point x="523" y="108"/>
      <point x="511" y="108" type="curve" smooth="yes"/>
      <point x="181" y="108" type="line" smooth="yes"/>
      <point x="169" y="108"/>
      <point x="159" y="118"/>
      <point x="159" y="130" type="curve" smooth="yes"/>
      <point x="159" y="451" type="line" smooth="yes"/>
      <point x="159" y="463"/>
      <point x="169" y="473"/>
      <point x="181" y="473" type="curve" smooth="yes"/>
      <point x="511" y="473" type="line" smooth="yes"/>
      <point x="523" y="473"/>
      <point x="533" y="463"/>
      <point x="533" y="451" type="curve" smooth="yes"/>
      <point x="533" y="423" type="line"/>
      <point x="641" y="423" type="line"/>
    </contour>
  </outline>
</glyph>
<glyph name="h.sc" format="1">
  <advance width="715"/>
  <outline>
    <contour>
      <point x="553" y="580" type="line"/>
      <point x="553" y="344" type="line"/>
      <point x="162" y="344" type="line"/>
      <point x="162" y="580" type="line"/>
      <point x="54" y="580" type="line"/>
      <point x="54" y="0" type="line"/>
      <point x="162" y="0" type="line"/>
      <point x="162" y="236" type="line"/>
      <point x="553" y="236" type="line"/>
      <point x="553" y="0" type="line"/>
      <point x="661" y="0" type="line"/>
      <point x="661" y="580" type="line"/>
    </contour>
  </outline>
</glyph>
<glyph name="j.sc" format="1">
  <advance width="657"/>
  <outline>
    <contour>
      <point x="497" y="130" type="line" smooth="yes"/>
      <point x="497" y="118"/>
      <point x="487" y="108"/>
      <point x="475" y="108" type="curve" smooth="yes"/>
      <point x="135" y="108" type="line" smooth="yes"/>
      <point x="123" y="108"/>
      <point x="113" y="118"/>
      <point x="113" y="130" type="curve" smooth="yes"/>
      <point x="113" y="190" type="line"/>
      <point x="5" y="190" type="line"/>
      <point x="5" y="130" type="line" smooth="yes"/>
      <point x="5" y="58"/>
      <point x="63" y="0"/>
      <point x="135" y="0" type="curve" smooth="yes"/>
      <point x="475" y="0" type="line" smooth="yes"/>
      <point x="547" y="0"/>
      <point x="605" y="58"/>
      <point x="605" y="130" type="curve" smooth="yes"/>
      <point x="605" y="580" type="line"/>
      <point x="497" y="580" type="line"/>
    </contour>
  </outline>
</glyph>
<glyph name="k.alt" format="1">
  <advance width="669"/>
  <outline>
    <contour>
      <point x="644" y="580" type="line"/>
      <point x="536" y="580" type="line"/>
      <point x="536" y="366" type="line" smooth="yes"/>
      <point x="536" y="354"/>
      <point x="526" y="344"/>
      <point x="514" y="344" type="curve" smooth="yes"/>
      <point x="162" y="344" type="line"/>
      <point x="162" y="770" type="line"/>
      <point x="54" y="770" type="line"/>
      <point x="54" y="0" type="line"/>
      <point x="162" y="0" type="line"/>
      <point x="162" y="236" type="line"/>
      <point x="514" y="236" type="line" smooth="yes"/>
      <point x="526" y="236"/>
      <point x="536" y="226"/>
      <point x="536" y="214" type="curve" smooth="yes"/>
      <point x="536" y="0" type="line"/>
      <point x="644" y="0" type="line"/>
      <point x="644" y="214" type="line" smooth="yes"/>
      <point x="644" y="242"/>
      <point x="635" y="269"/>
      <point x="620" y="290" type="curve"/>
      <point x="635" y="311"/>
      <point x="644" y="338"/>
      <point x="644" y="366" type="curve" smooth="yes"/>
    </contour>
  </outline>
</glyph>
<glyph name="m.sc" format="1">
  <advance width="824"/>
  <outline>
    <contour>
      <point x="412" y="252" type="line"/>
      <point x="182" y="581" type="line"/>
      <point x="54" y="581" type="line"/>
      <point x="54" y="0" type="line"/>
      <point x="162" y="0" type="line"/>
      <point x="162" y="446" type="line"/>
      <point x="412" y="89" type="line"/>
      <point x="662" y="446" type="line"/>
      <point x="662" y="0" type="line"/>
      <point x="770" y="0" type="line"/>
      <point x="770" y="581" type="line"/>
      <point x="641" y="581" type="line"/>
    </contour>
  </outline>
</glyph>
<glyph name="n.sc" format="1">
  <advance width="708"/>
  <outline>
    <contour>
      <point x="546" y="144" type="line"/>
      <point x="182" y="580" type="line"/>
      <point x="54" y="580" type="line"/>
      <point x="54" y="0" type="line"/>
      <point x="162" y="0" type="line"/>
      <point x="162" y="437" type="line"/>
      <point x="526" y="0" type="line"/>
      <point x="654" y="0" type="line"/>
      <point x="654" y="580" type="line"/>
      <point x="546" y="580" type="line"/>
    </contour>
  </outline>
</glyph>
